<?xml version="1.0" encoding="UTF-8"?>
<svg width="481px" height="468px" viewBox="0 0 481 468" version="1.1" xmlns="http://www.w3.org/2000/svg" xmlns:xlink="http://www.w3.org/1999/xlink">
    <title>undraw_gift_re_qr17</title>
    <g id="Page-2" stroke="none" stroke-width="1" fill="none" fill-rule="evenodd">
        <g id="Artboard" transform="translate(-172.000000, -67.000000)" fill-rule="nonzero">
            <g id="undraw_gift_re_qr17" transform="translate(172.000000, 67.010263)">
                <path d="M1.53339865,438.190782 C6.32458506,439.825691 11.647313,438.915541 15.5746625,435.789824 C20.4926049,431.782512 22.0348224,425.182814 23.2890831,419.070253 L27,400.989737 L19.2309281,406.182683 C13.6435023,409.917183 7.93059633,413.771668 4.06227683,419.180794 C0.193957334,424.589921 -1.49367087,431.974419 1.61349311,437.827587" id="f5877e54-26d9-4110-bb17-7d90037dcb2b-395" fill="#E6E6E6"></path>
                <path d="M4.48671122,463.468112 C3.53214196,456.160091 2.54999766,448.757576 3.22118988,441.3712 C3.81599382,434.811229 5.72060683,428.405154 9.59810219,423.150332 C11.656261,420.366917 14.1606696,417.982081 16.9987324,416.103045 C17.7386102,415.612414 18.4197444,416.844424 17.6830263,417.333194 C12.7722828,420.594305 8.97393747,425.409929 6.83563192,431.085754 C4.47406093,437.397322 4.09486294,444.277877 4.50163598,450.982706 C4.74751352,455.037322 5.26999743,459.065352 5.79473236,463.088632 C5.88070408,463.466161 5.67368619,463.849147 5.32107927,463.964897 C4.96029904,464.067021 4.58848468,463.845096 4.48718604,463.46717 L4.48671122,463.468112 Z" id="af7e5462-cb8c-4c3a-a84b-026a28a01614-396" fill="#F2F2F2"></path>
                <path d="M12,452.582037 C13.989906,455.437384 17.4142657,457.105894 21.0331863,456.983432 C25.6071813,456.778595 29.4188398,453.767045 32.8497839,450.906996 L43,442.449154 L36.2825076,442.145719 C31.4515585,441.927346 26.4959591,441.722519 21.894617,443.130099 C17.2932749,444.537679 13.0497785,447.919987 12.2085238,452.414914" id="b74da307-8ad0-4d1b-99e4-dedad26aca71-397" fill="#E6E6E6"></path>
                <path d="M1.09147125,467.072429 C5.80516948,458.903273 11.2721845,449.824177 21.041709,446.922227 C23.7578766,446.118157 26.6059388,445.830099 29.4325419,446.073564 C30.3235408,446.148945 30.101015,447.493885 29.21188,447.418975 C24.4736928,447.033669 19.7446498,448.259102 15.8208673,450.888979 C12.0450001,453.406335 9.10496026,456.906299 6.61691655,460.617389 C5.09266013,462.890921 3.72740652,465.260699 2.36215892,467.627303 C1.92590981,468.383777 0.650141505,467.83753 1.09147125,467.072429 Z" id="eea67ff0-2845-4236-af55-5d249be779f1-398" fill="#F2F2F2"></path>
                <rect id="Rectangle" fill="#FFFFFF" x="122" y="292.989737" width="204" height="175"></rect>
                <path d="M329,467.989737 L122,467.989737 L122,292.989737 L329,292.989737 L329,467.989737 Z M123.196532,466.803296 L327.803468,466.803296 L327.803468,294.176177 L123.196532,294.176177 L123.196532,466.803296 Z" id="Shape" fill="#3F3D56"></path>
                <rect id="Rectangle" fill="#CDE9D5" x="198" y="326.989737" width="52" height="141"></rect>
                <rect id="Rectangle" fill="#CDE9D5" x="198" y="326.989737" width="52" height="141"></rect>
                <polygon id="Path" fill="#000000" opacity="0.2" points="122 304.989737 122 333.033737 326 345.989737 325.398706 311.385737"></polygon>
                <rect id="Rectangle" fill="#FFFFFF" x="111" y="277.989737" width="230" height="49"></rect>
                <path d="M339,326.989737 L108,326.989737 L108,274.989737 L339,274.989737 L339,326.989737 Z M109.196891,325.780434 L337.803109,325.780434 L337.803109,276.199039 L109.196891,276.199039 L109.196891,325.780434 Z" id="Shape" fill="#3F3D56"></path>
                <rect id="Rectangle" fill="#CDE9D5" x="198" y="271.989737" width="52" height="55"></rect>
                <path d="M217.764283,224.850015 C231.321823,244.45612 218.548086,275.989737 218.548086,275.989737 C218.548086,275.989737 183.793249,275.735563 170.235715,256.129458 C156.678181,236.523353 169.451911,204.989737 169.451911,204.989737 C169.451911,204.989737 204.206748,205.243934 217.764283,224.850015 Z" id="Path" fill="#CDE9D5"></path>
                <path d="M225.235715,224.850015 C211.67818,244.45612 224.451911,275.989737 224.451911,275.989737 C224.451911,275.989737 259.20675,275.735563 272.764285,256.129458 C286.32182,236.523353 273.548089,204.989737 273.548089,204.989737 C273.548089,204.989737 238.79325,205.243934 225.235715,224.850015 Z" id="Path" fill="#CDE9D5"></path>
                <circle id="Oval" fill="#3F3D56" cx="188.5" cy="232.489737" r="5.5"></circle>
                <circle id="Oval" fill="#3F3D56" cx="221.5" cy="287.489737" r="5.5"></circle>
                <circle id="Oval" fill="#3F3D56" cx="221.5" cy="406.489737" r="5.5"></circle>
                <circle id="Oval" fill="#3F3D56" cx="204.5" cy="253.489737" r="3.5"></circle>
                <circle id="Oval" fill="#3F3D56" cx="257.5" cy="222.489737" r="3.5"></circle>
                <circle id="Oval" fill="#3F3D56" cx="233.5" cy="307.489737" r="3.5"></circle>
                <circle id="Oval" fill="#3F3D56" cx="212.5" cy="353.489737" r="3.5"></circle>
                <circle id="Oval" fill="#3F3D56" cx="230.5" cy="370.489737" r="3.5"></circle>
                <circle id="Oval" fill="#3F3D56" cx="226.5" cy="437.489737" r="3.5"></circle>
                <polygon id="Path" fill="#FFB7B7" points="446.999012 460.989737 441.578908 460.989146 439 435.989737 447 435.990327"></polygon>
                <path d="M446.999627,467.989737 L427,467.989 L427,467.737235 C427.000297,463.458484 430.485344,459.989963 434.784415,459.989737 L434.784907,459.989737 L447,459.990226 L446.999627,467.989737 Z" id="Path" fill="#2F2E41"></path>
                <polygon id="Path" fill="#FFB7B7" points="464.000988 460.989737 469.421586 460.989146 472 435.989737 464 435.990327"></polygon>
                <path d="M461,459.990226 L473.215096,459.989737 L473.215588,459.989737 C477.514658,459.989967 480.999703,463.458486 481,467.737235 L481,467.989 L461.000373,467.989737 L461,459.990226 Z" id="Path" fill="#2F2E41"></path>
                <circle id="Oval" fill="#FFB7B7" transform="translate(435.714232, 258.049563) rotate(-63.579800) translate(-435.714232, -258.049563) " cx="435.714232" cy="258.049563" r="11.4472673"></circle>
                <path d="M427.323185,336.209719 C427.323185,336.209719 423.693197,351.459712 425.508206,358.779716 C427.323215,366.09972 432.768188,416.119711 432.768188,416.119711 L436.398182,455.769724 L450.91811,456.989737 L449.103131,410.629754 L450.91811,370.36975 L461.203073,409.409741 L461.203073,455.907979 L476.602214,456.517982 L476.933009,395.989737 C476.933009,395.989737 478.143017,348.409744 470.278034,342.309729 C462.413051,336.209713 461.203079,334.989737 461.203079,334.989737 L427.323185,336.209719 Z" id="Path" fill="#2F2E41"></path>
                <path d="M448.991741,270.989737 L463.136378,278.186894 L465,340.562319 C465,340.562319 456.924223,335.764206 444.5,341.761841 C432.075777,347.759476 424,343.561136 424,343.561136 L431.454555,316.571761 L428.348496,280.585939 L432.791092,276.692907 L448.991741,270.989737 Z" id="Path" fill="#CBCBCB"></path>
                <path d="M433.452696,275.006781 L430.858977,277.045964 C430.858977,277.045964 414.624416,284.880082 414,290.303701 L425.239326,319.832288 C425.239326,319.832288 428.361356,326.461156 425.863742,328.871642 C423.366128,331.282129 420.868476,337.308387 421.492886,340.321508 C422.117296,343.334628 417.746446,355.989737 422.741712,355.989737 C427.736977,355.989737 439.600688,327.063771 438.976272,315.613906 C438.351857,304.164041 437.919658,274.172854 433.452696,275.006781 Z" id="Path" fill="#2F2E41"></path>
                <path d="M443.20106,271.922683 L448.67827,270.989737 C448.67827,270.989737 469.010037,276.498895 472,285.680845 L463.628078,307.105364 C463.628078,307.105364 469.608033,346.281632 467.814039,346.281632 L466.020074,346.281632 C466.020074,346.281632 470.804002,349.95441 467.814039,351.17867 C464.824076,352.402929 457.648152,362.196993 455.854188,357.912094 C454.060223,353.627195 443.29634,302.820447 444.492338,291.802106 C445.688337,280.783764 442.139007,273.077007 443.20106,271.922683 Z" id="Path" fill="#2F2E41"></path>
                <path d="M447.258148,247.166225 L447.79187,246.081114 L445.106297,244.733255 C445.106297,244.733255 442.143678,239.863815 436.782711,241.232236 C431.421744,242.600658 429.009762,243.419623 429.009762,243.419623 L426.330981,244.781178 L427.675448,246.132459 L425.263525,246.95146 L426.874833,247.760167 L425,248.848723 L426.009266,254.429036 C426.009266,254.429036 427.685578,250.196583 430.908247,251.814004 C434.130916,253.431425 440.025664,250.977898 440.025664,250.977898 L445.146901,260.989737 C445.146901,260.989737 446.203413,257.480088 448.08711,258.415918 C448.087163,258.415918 452.899525,250.674079 447.258148,247.166225 Z" id="Path" fill="#2F2E41"></path>
                <path d="M462.397547,352.673875 C461.799921,351.233668 461.879255,349.606136 462.614202,348.22922 C463.349149,346.852303 464.664213,345.867442 466.205534,345.539646 L468.505507,326.989737 L476,333.28142 L472.666923,349.932146 C473.06184,352.582734 471.38594,355.105981 468.765954,355.805474 C466.145968,356.504966 463.41003,355.159607 462.397547,352.673899 L462.397547,352.673875 Z" id="Path" fill="#FFB7B7"></path>
                <path d="M430.799707,352.109016 C431.216471,350.601219 430.97591,348.976991 430.142753,347.673383 C429.309597,346.369774 427.969431,345.520696 426.482869,345.354619 L422.425119,326.989737 L416,334.092313 L420.838398,350.443011 C420.735997,353.143578 422.573052,355.497773 425.114469,355.922817 C427.655886,356.347862 430.098352,354.709404 430.799741,352.109016 L430.799707,352.109016 Z" id="Path" fill="#FFB7B7"></path>
                <path d="M462.283654,279.475289 C462.283654,279.475289 470.627297,276.440591 473.194604,285.544678 C475.761911,294.648765 478.970972,312.856807 478.970972,312.856807 C479.130502,322.981711 478.561409,322.981711 478.970972,332.885704 L477.045526,341.989737 L466.134582,340.775852 L466.610473,317.600106 L461,294.041748 L462.283654,279.475289 Z" id="Path" fill="#2F2E41"></path>
                <path d="M419.806467,285.989737 L416.111556,286.388714 C416.111556,286.388714 412.612928,289.015472 412.612928,295.066944 C412.612928,301.118415 412.013458,319.272841 412.013458,319.272841 C412.013458,319.272841 411.673458,319.697578 414.411297,335.00667 C415.745752,342.468525 418.051853,345.989737 418.051853,345.989737 L425.493341,339.014263 L424.602168,321.088293 L427,311.405935 L419.806467,285.989737 Z" id="Path" fill="#2F2E41"></path>
                <circle id="Oval" fill="#FFB8B8" cx="114.5" cy="276.489737" r="13.5"></circle>
                <path d="M111.303761,355.989737 C111.143316,355.989737 110.982157,355.98238 110.820285,355.967667 C109.199792,355.827358 107.713967,354.976639 106.735895,353.629123 C105.757822,352.281608 105.380404,350.565289 105.698409,348.911128 C105.735572,348.721156 105.782318,348.533337 105.838455,348.348447 L87.0365889,325.282731 C85.7785938,323.727309 85.6532614,321.500087 86.7282513,319.803413 L86.7623433,319.760324 L103.686326,302.450774 C105.610272,300.483109 108.707736,300.505792 110.604707,302.501436 C112.501678,304.49708 112.47981,307.709977 110.555865,309.677641 C110.53466,309.699357 110.513241,309.720866 110.491608,309.74217 L98.2341829,321.829322 L111.653027,344.168946 C111.907184,344.182735 112.160092,344.21504 112.409881,344.265621 C115.285493,344.860878 117.258151,347.619829 116.972559,350.646961 C116.686966,353.674094 114.236088,355.984025 111.303779,355.989737 L111.303761,355.989737 Z" id="Path" fill="#FFB8B8"></path>
                <polygon id="Path" fill="#FFB8B8" points="138.000986 459.989737 143.42174 459.989737 146 434.989737 138 434.990326"></polygon>
                <path d="M136,456.990225 L148.215033,456.989737 L148.215524,456.989737 C152.514641,456.989616 156,460.458134 156,464.736897 L156,464.988984 L136.000361,464.989737 L136,456.990225 Z" id="Path" fill="#2F2E41"></path>
                <polygon id="Path" fill="#FFB8B8" points="73 451.646776 78.301908 454.989737 93 434.92365 85.1756453 429.989737"></polygon>
                <path d="M71.4667431,446.989737 L82.8682245,453.553178 L82.8686841,453.55345 C86.8814335,455.863524 88.1975429,460.881383 85.8082985,464.761158 L85.8081208,464.761431 L85.6675316,464.989737 L67,454.243375 L71.4667431,446.989737 Z" id="Path" fill="#2F2E41"></path>
                <path d="M145.101985,452.989737 L137.702991,452.989737 C136.462005,452.991728 135.420483,452.051337 135.291353,450.812264 L127.83209,380.421297 C127.793377,380.057066 127.51648,379.763986 127.15622,379.705928 C126.79596,379.647869 126.4416,379.839217 126.291273,380.172982 L112.834637,410.086433 L89.0103677,449.086556 C88.3729489,450.120052 87.076338,450.526945 85.9660816,450.041891 L76.4484756,445.838063 C75.8118853,445.556689 75.3262147,445.014547 75.1147943,444.349308 C74.9033739,443.684069 74.9865422,442.959728 75.3431795,442.360224 L97.2442397,405.545517 L103.96111,374.527192 C101.848567,361.075554 110.904974,341.076737 110.996816,340.87592 L111.041694,340.778186 L135.987912,330.989737 L136.113016,331.143491 C145.951093,363.554621 151.94599,398.434508 147.51956,450.758902 C147.406456,452.016694 146.359954,452.98236 145.101985,452.989737 Z" id="Path" fill="#2F2E41"></path>
                <path d="M110.941708,344.989737 L110.825887,344.745543 C110.770532,344.628713 105.240715,332.930613 100.977953,320.427832 C99.3216017,315.539544 99.7840368,310.178688 102.25285,305.648385 C104.753747,301.071208 109.053128,297.755174 114.105806,296.506416 L114.105806,296.506416 C123.072682,294.350705 132.261337,299.106073 135.705983,307.68507 C139.087279,316.16603 138.009649,325.218419 136.995509,332.337372 L136.975314,332.480004 L136.845972,332.542099 L110.941708,344.989737 Z" id="Path" fill="#F6FFA6"></path>
                <path d="M131,269.989737 L111,269.989737 L111,260.961477 C115.389771,259.155419 119.685383,257.619476 122.282047,260.961477 C127.096817,260.96151 131,265.003576 131,269.989737 L131,269.989737 Z" id="Path" fill="#2F2E41"></path>
                <path d="M111.500148,258.989737 C99.3897328,258.989737 96,274.129387 96,282.670439 C96,287.433686 98.1598969,289.137327 101.553921,289.713786 L102.752569,283.33806 L105.559936,289.988136 C106.513326,289.992878 107.514896,289.974481 108.553237,289.955263 L109.505092,288.000494 L111.627685,289.92019 C120.128992,289.932822 127,291.168776 127,282.670439 C127,274.129387 124.027276,258.989737 111.500148,258.989737 Z" id="Path" fill="#2F2E41"></path>
                <path d="M166.265145,276.004152 C166.345706,276.147443 166.420122,276.294838 166.488394,276.446336 C167.17787,277.959617 167.170136,279.686799 166.467136,281.194194 C165.764135,282.70159 164.432642,283.846018 162.806989,284.340117 C162.619963,284.396286 162.430034,284.442885 162.237985,284.479723 L151.239089,312.121881 C150.492418,313.977069 148.581558,315.136678 146.538075,314.9747 L146.482786,314.964541 L122.64348,307.991961 C119.936174,307.197121 118.403512,304.421606 119.218983,301.7905 C120.034455,299.159395 122.889701,297.667615 125.598589,298.45735 C125.628329,298.46606 125.657988,298.475024 125.687566,298.484241 L142.555167,303.745706 L155.613992,281.252693 C155.498571,281.019214 155.400192,280.778138 155.319582,280.53125 C154.40312,277.683048 155.857493,274.623585 158.683537,273.454732 C161.509582,272.285879 164.787436,273.388091 166.265194,276.004141 L166.265145,276.004152 Z" id="Path" fill="#FFB8B8"></path>
                <path d="M374.366851,205.358738 C365.657756,193.890146 349.71806,191.122297 341.797269,196.94654 C333.876478,202.770783 332.056989,218.597168 340.766084,230.065755 C348.827429,240.681359 363.432586,243.576494 371.477052,239.599358 C371.451062,239.723534 371.449455,239.851457 371.472316,239.976227 L371.925849,242.182599 C371.996146,242.524575 372.241373,242.806352 372.573955,242.927301 C372.906536,243.048251 373.279047,242.991125 373.558454,242.776326 L377.399032,239.823863 C377.678463,239.609073 377.824951,239.267224 377.78618,238.920402 C377.747409,238.573579 377.528907,238.271239 377.208709,238.121355 L375.142782,237.154522 C375.07008,237.122381 374.993776,237.098802 374.915453,237.084273 C381.116195,230.633599 382.445725,215.997412 374.366851,205.358738 Z" id="Path" fill="#F6FFA6"></path>
                <path d="M353.511676,201.436705 C361.668356,202.799191 367.381058,210.641268 366.508205,219.277613 C366.421899,220.230222 367.837281,220.223995 367.923019,219.277613 C368.76286,209.979913 362.642435,201.574308 353.887787,200.002055 C352.997223,199.842865 352.614508,201.276321 353.511676,201.436705 Z" id="Path" fill="#FFFFFF"></path>
                <path d="M81.6403323,220.934058 C89.3947505,208.409995 86.0611548,192.397173 77.4801054,187.169866 C68.899056,181.942558 52.9930892,186.235218 45.2386771,198.759281 C38.0610022,210.351848 40.7701885,225.160128 47.6212431,231.203889 C47.4920383,231.226587 47.368403,231.273589 47.2570013,231.342362 L45.3055458,232.604685 C45.0030837,232.800339 44.8243183,233.137382 44.8330901,233.495449 C44.8418618,233.853516 45.03692,234.181548 45.3486056,234.3624 L49.6328811,236.848283 C49.9445701,237.029161 50.3284562,237.037061 50.6474412,236.869164 C50.9664261,236.701266 51.1750225,236.381512 51.1987338,236.024097 L51.3515352,233.718112 C51.3550961,233.63768 51.3490715,233.557113 51.3335866,233.478083 C59.8701051,236.853169 74.4470662,232.551849 81.6403323,220.934058 Z" id="Path" fill="#CCCCCC"></path>
                <path d="M77.1119837,201.793941 C79.0311386,210.468412 73.9162443,219.147851 65.4754802,221.539867 C64.5483456,221.813683 65.1089145,223.227203 66.0299795,222.955143 C75.0779876,220.280067 80.5615287,210.979716 78.6047202,201.627775 C78.4049485,200.676698 76.9107409,200.83582 77.1119837,201.793941 Z" id="Path" fill="#FFFFFF"></path>
                <path d="M425.472758,33.1295086 C424.812691,18.1783345 412.79668,6.55702254 402.55545,7.0021051 C392.31422,7.44718766 381.368372,20.0664219 382.028445,35.0175776 C382.639413,48.8567212 393.436454,59.815226 402.688116,61.0375406 C402.592203,61.1297787 402.514958,61.2393692 402.460547,61.3604039 L401.540548,63.5291736 C401.397955,63.8653212 401.440949,64.250755 401.654177,64.5478307 C401.867405,64.8449064 402.220462,65.0112634 402.587266,64.9874931 L407.629156,64.6607144 C407.995976,64.6369574 408.324244,64.4264504 408.496727,64.1043709 C408.669211,63.7822913 408.661314,63.3945669 408.475856,63.0796641 L407.279146,61.0480874 C407.235916,60.9782229 407.184524,60.9136674 407.126035,60.8557615 C416.26496,58.8734597 426.08507,46.9987396 425.472758,33.1295086 Z" id="Path" fill="#CDE9D5" transform="translate(403.750000, 35.989737) rotate(-30.000000) translate(-403.750000, -35.989737) "></path>
                <path d="M409.234277,13.7732091 C415.967456,20.0044631 416.553462,30.3255728 410.567453,37.2539759 C409.916403,38.0243693 411.230263,38.8957877 411.877045,38.1304273 C418.229035,30.6096114 417.603514,19.5485579 410.442613,12.765451 C409.713695,12.076077 408.499992,13.0787241 409.234277,13.7732091 Z" id="Path" fill="#FFFFFF" transform="translate(412.631579, 25.480225) rotate(-30.000000) translate(-412.631579, -25.480225) "></path>
                <path d="M372.266559,172.493215 C364.605653,172.019056 357.640408,167.965501 353.5359,161.592554 C352.968842,160.70192 352.228588,159.723173 352.621133,158.626903 C352.902755,157.761269 353.755709,157.201569 354.677448,157.277571 C355.834838,157.415971 356.581716,158.528371 356.724316,159.594251 C356.886051,160.803336 356.017859,161.752506 354.945989,162.201766 C352.326633,163.299502 349.68396,161.603018 347.550338,160.249083 C342.688716,157.164017 337.341395,154.374004 331.450438,154.022423 C325.999974,153.697158 320.155186,155.79682 317.123538,160.440638 C316.593149,161.253081 317.910044,162.003826 318.437808,161.195398 C321.444449,156.589885 327.522589,154.935786 332.807453,155.64762 C335.956844,156.135906 338.997912,157.150297 341.798886,158.64684 C343.251476,159.387484 344.660297,160.208511 346.040647,161.071581 C347.354137,161.972049 348.746387,162.756195 350.201008,163.414786 C352.626958,164.393868 355.838408,164.317379 357.532975,162.063199 C359.113861,159.960191 357.892111,156.459042 355.247988,155.867811 C354.069776,155.639622 352.853696,156.008224 352.011127,156.848926 C351.168559,157.689629 350.81222,158.889962 351.062654,160.043874 C351.326474,161.282288 352.275631,162.494206 353.010325,163.506447 C357.481466,169.686078 364.563089,173.540957 372.266659,173.988625 C373.245727,174.036207 373.243167,172.540646 372.266659,172.493215 L372.266559,172.493215 Z" id="Path" fill="#CCCCCC"></path>
                <path d="M188.266559,107.493215 C180.605653,107.019056 173.640408,102.965501 169.5359,96.5925537 C168.968842,95.7019199 168.228588,94.7231727 168.621133,93.6269028 C168.902755,92.7612685 169.755709,92.2015693 170.677448,92.2775712 C171.834838,92.4159714 172.581716,93.528371 172.724316,94.5942507 C172.886051,95.8033361 172.017859,96.7525063 170.945989,97.2017663 C168.326633,98.2995015 165.68396,96.6030184 163.550338,95.2490832 C158.688716,92.1640173 153.341395,89.3740045 147.450438,89.0224225 C141.999974,88.6971581 136.155186,90.7968196 133.123538,95.4406376 C132.593149,96.2530806 133.910044,97.0038259 134.437808,96.195398 C137.444449,91.5898851 143.522589,89.9357856 148.807453,90.6476201 C151.956844,91.135906 154.997912,92.1502971 157.798886,93.6468399 C159.251476,94.3874839 160.660297,95.208511 162.040647,96.0715813 C163.354137,96.9720494 164.746387,97.7561945 166.201008,98.414786 C168.626958,99.3938677 171.838408,99.3173787 173.532975,97.0631988 C175.113861,94.9601913 173.892111,91.459042 171.247988,90.8678109 C170.069776,90.6396216 168.853696,91.0082242 168.011127,91.8489264 C167.168559,92.6896286 166.81222,93.8899624 167.062654,95.0438741 C167.326474,96.2822882 168.275631,97.4942061 169.010325,98.5064471 C173.481466,104.686078 180.563089,108.540957 188.266659,108.988625 C189.245727,109.036207 189.243167,107.540646 188.266659,107.493215 L188.266559,107.493215 Z" id="Path" fill="#F6FFA6" transform="translate(161.000000, 98.989737) rotate(-72.000000) translate(-161.000000, -98.989737) "></path>
            </g>
        </g>
    </g>
</svg>