<?xml version="1.0" encoding="UTF-8"?>
<svg width="284px" height="229px" viewBox="0 0 284 229" version="1.1" xmlns="http://www.w3.org/2000/svg" xmlns:xlink="http://www.w3.org/1999/xlink">
    <title>undraw_gift_box_re_vau4</title>
    <g id="Page-2" stroke="none" stroke-width="1" fill="none" fill-rule="evenodd">
        <g id="Artboard" transform="translate(-74.000000, -258.000000)" fill-rule="nonzero">
            <g id="undraw_gift_box_re_vau4" transform="translate(74.000000, 258.000000)">
                <circle id="Oval" fill="#E6E6E6" cx="80" cy="120" r="32"></circle>
                <path d="M71.4607618,166.664182 L79.3831881,171.573219 L79.3831881,138.390221 L70.5030905,132.887777 C69.7689384,132.432861 69.2324755,131.718767 69,130.887 L69,130.887 C69.8483553,130.724954 70.7266269,130.887489 71.4607883,131.342399 L79.3832146,136.251436 L79.3832146,123.384037 C79.3832208,120.894785 79.6885217,118.414929 80.2922809,116 C80.8960487,118.414928 81.2013487,120.894785 81.201344,123.384037 L81.201344,144.386019 L92.8891605,137.143834 C93.8224193,136.565545 94.9022296,136.267657 96,136.285643 C95.5274772,137.276624 94.7800891,138.110932 93.8468318,138.689221 L81.2012976,146.524811 L81.2012976,225 L79.3831781,225 L79.3831781,173.712028 L70.5030806,168.209603 C69.768931,167.754688 69.2324695,167.040597 69,166.208832 L69,166.208832 C69.8483361,166.046781 70.7265976,166.209298 71.4607618,166.664182 Z" id="Path" fill="#CCCCCC"></path>
                <circle id="Oval" fill="#E6E6E6" cx="32" cy="123" r="32"></circle>
                <path d="M40.5392572,169.931293 L32.6168007,174.866211 L32.6168007,141.508272 L41.4969102,135.976826 C42.2310655,135.519511 42.7675307,134.801651 43,133.965497 L43,133.965497 C42.1516498,133.802601 41.273378,133.965993 40.5392141,134.423298 L32.6167577,139.358208 L32.6167577,126.422965 C32.6167546,123.92059 32.3114531,121.42766 31.7076897,119 C31.1039237,121.42766 30.7986244,123.92059 30.7986285,126.422965 L30.7986285,147.535673 L19.1108514,140.255314 C18.1775885,139.673977 17.0977742,139.374519 16,139.392602 C16.4725254,140.388808 17.2199172,141.227515 18.1531785,141.808852 L30.7986815,149.685767 L30.7986815,226 L32.6168007,226 L32.6168007,177.016298 L41.4969069,171.484848 C42.2310615,171.027539 42.7675271,170.309683 43,169.473533 L43,169.473533 C42.1516664,169.310641 41.2734156,169.474019 40.5392572,169.931293 Z" id="Path" fill="#CCCCCC"></path>
                <circle id="Oval" fill="#E6E6E6" cx="55.5" cy="55.5" r="55.5"></circle>
                <path d="M70.7163947,136.523225 L56.925509,145.003661 L56.925509,87.6794723 L72.3834507,78.1739373 C73.6614338,77.3880689 74.5952895,76.1544578 75,74.717559 L75,74.7175324 L75,74.7175324 C73.5232162,74.4376056 71.9943847,74.7183868 70.7164047,75.5042396 L56.9255191,83.9846696 L56.9255191,61.7560479 C56.9255088,57.4558242 56.3940591,53.1718315 55.3430706,49 C54.2920739,53.1718298 53.7606274,57.4558239 53.7606321,61.7560479 L53.7606321,98.0373044 L33.4151743,85.5262964 C31.7906042,84.5273049 29.9109355,84.0126963 28,84.0437504 C28.822538,85.7556899 30.1235533,87.1969702 31.7481216,88.1959642 L53.7606221,101.732094 L53.7606221,226 L56.925509,226 L56.925509,148.698457 L72.3834574,139.192919 C73.6614426,138.407052 74.5953,137.173441 75,135.736541 L75,135.736521 L75,135.736521 C73.5232202,135.456589 71.9943808,135.737369 70.7163947,136.523225 Z" id="Path" fill="#CCCCCC"></path>
                <rect id="Rectangle" fill="#3F3D56" x="22" y="225" width="262" height="1"></rect>
                <polygon id="Rectangle" fill="#FF6584" transform="translate(213.895365, 110.381495) rotate(-30.000000) translate(-213.895365, -110.381495) " points="206.388451 102.874577 221.402278 102.874577 221.402278 117.888414 206.388451 117.888414"></polygon>
                <path d="M216.686568,123 L209,109.686467 L222.313432,102 L230,115.313693 L216.686568,123 Z M209.888539,109.924635 L216.924738,122.111451 L229.111468,115.075517 L222.075269,102.888542 L209.888539,109.924635 Z" id="Shape" fill="#2F2E41"></path>
                <circle id="Oval" fill="#D0CDE1" cx="204.5" cy="153.5" r="6.5"></circle>
                <path d="M209.5,160 C205.910149,160 203,157.089851 203,153.5 C203,149.910149 205.910149,147 209.5,147 C213.089851,147 216,149.910149 216,153.5 C216,157.089851 213.089851,160 209.5,160 L209.5,160 Z M209.5,147.65 C206.269134,147.65 203.65,150.269134 203.65,153.5 C203.65,156.730866 206.269134,159.35 209.5,159.35 C212.730866,159.35 215.35,156.730866 215.35,153.5 C215.35,150.269134 212.730866,147.65 209.5,147.65 L209.5,147.65 Z" id="Shape" fill="#2F2E41"></path>
                <path d="M244.166667,227 L182.833333,227 C181.269274,226.998215 180.001804,225.744229 180,224.196809 L180,167.803191 C180.001804,166.255771 181.269274,165.001785 182.833333,165 L244.166667,165 C245.730726,165.001785 246.998196,166.255771 247,167.803191 L247,224.196809 C246.998196,225.744229 245.730726,226.998215 244.166667,227 Z" id="Path" fill="#F6FFA6"></path>
                <path d="M218.232558,229 L209.767442,229 C208.239756,228.998208 207.00176,227.737638 207,226.182094 L207,165.817906 C207.00176,164.262362 208.239756,163.001792 209.767442,163 L218.232558,163 C219.760244,163.001794 220.998238,164.262363 221,165.817906 L221,226.182094 C220.998238,227.737637 219.760244,228.998206 218.232558,229 L218.232558,229 Z" id="Path" fill="#3A4046"></path>
                <path d="M259.987605,158.959894 C259.636991,164.758883 251.865178,169 251.865178,169 C251.865178,169 244.661783,163.839096 245.012396,158.040106 C245.36301,152.241117 253.134826,148 253.134826,148 C253.134826,148 260.338205,153.160904 259.987605,158.959894 Z" id="Path" fill="#3A4046"></path>
                <path d="M261.063751,176.988848 C255.264759,176.656213 251,168.897715 251,168.897715 C251,168.897715 256.137273,161.678519 261.936249,162.011152 C267.735225,162.343784 272,170.102288 272,170.102288 C272,170.102288 266.862734,177.321481 261.063751,176.988848 Z" id="Path" fill="#3A4046"></path>
                <polygon id="Path" fill="#000000" opacity="0.1" points="247 171.671645 247 193 225 165 241.758355 165"></polygon>
                <path d="M265.593868,209 C264.712058,209.001852 263.880523,208.588003 263.348081,207.882282 L218.571036,148.54812 C218.120388,147.950988 217.924466,147.198581 218.026371,146.456419 C218.128275,145.714258 218.519658,145.043136 219.11442,144.590693 L225.710357,139.573319 C226.3051,139.120829 227.054546,138.924128 227.793766,139.026504 C228.532987,139.12888 229.201402,139.521944 229.651916,140.119195 L274.428964,199.453044 C274.879612,200.050176 275.075534,200.802583 274.973629,201.544745 C274.871725,202.286906 274.480342,202.958028 273.88558,203.410471 L267.289643,208.427831 C266.801974,208.799715 266.206258,209.000713 265.593868,209 L265.593868,209 Z" id="Path" fill="#F6FFA6"></path>
                <polygon id="Rectangle" fill="#3A4046" transform="translate(245.991998, 172.640890) rotate(-37.150040) translate(-245.991998, -172.640890) " points="238.862202 165.511094 253.121794 165.511094 253.121794 179.770686 238.862202 179.770686"></polygon>
                <polygon id="Rectangle" fill="#D0CDE1" transform="translate(194.210190, 128.534726) rotate(-75.000000) translate(-194.210190, -128.534726) " points="186.703271 121.027812 201.717109 121.027812 201.717109 136.04164 186.703271 136.04164"></polygon>
                <path d="M192.984837,140 L178,135.984905 L182.015163,121 L197,125.015095 L192.984837,140 Z M178.803738,135.520873 L192.520795,139.196279 L196.196262,125.479127 L182.479202,121.803725 L178.803738,135.520873 Z" id="Shape" fill="#2F2E41"></path>
                <path d="M129.799627,174.92714 C130.63188,174.153507 131.068243,173.061907 130.9913,171.946066 C130.914356,170.830225 130.332011,169.804766 129.400959,169.145616 L123.117867,120 L115,122.342114 L123.763978,170.169166 C122.703173,171.795995 123.063993,173.935604 124.603851,175.149493 C126.14371,176.363382 128.375878,176.267857 129.799627,174.92714 Z" id="Path" fill="#FFB8B8"></path>
                <polygon id="Path" fill="#FFB8B8" points="137 222 141.742652 222 144 204 137 204"></polygon>
                <path d="M136,220 L150,220 L150,226 L140.914267,226 C138.200192,226 136,223.559451 136,220.548882 L136,220 L136,220 Z" id="Path" fill="#2F2E41" transform="translate(143.000000, 223.000000) rotate(-180.000000) translate(-143.000000, -223.000000) "></path>
                <polygon id="Path" fill="#FFB8B8" points="105 214.416827 109.466572 216 118 200.3368 111.408141 198"></polygon>
                <path d="M103.156254,215.616901 L117.619247,215.616901 L117.619247,221.204873 L108.23304,221.204873 C105.429208,221.204873 103.156254,218.931919 103.156254,216.128087 L103.156254,215.616901 L103.156254,215.616901 Z" id="Path" fill="#2F2E41" transform="translate(110.387750, 218.410887) rotate(-159.596430) translate(-110.387750, -218.410887) "></path>
                <circle id="Oval" fill="#FFB8B8" cx="128.5" cy="98.5" r="8.5"></circle>
                <path d="M115.171344,121.024998 C114.897982,113.006456 123.349034,107.443733 130.459426,111.198133 C131.365354,111.676479 140.719418,119.601356 141.071939,124.522822 C141.424459,129.444288 142.129492,137.529551 142.129492,137.529551 L152,211 L130.84893,209.945401 L133.403298,188.512945 L119.655093,210.308004 L103,205.023935 L123.446056,146.317881 C123.446056,146.317881 115.585612,133.176791 115.171344,121.024998 Z" id="Path" fill="#CDE9D5"></path>
                <path d="M115.002234,123.785228 L116.390942,141.326729 C116.421021,141.706639 116.747057,142 117.139206,142 L123.249525,142 C123.500303,142 123.734508,141.87829 123.873728,141.675619 C124.012948,141.472948 124.038783,141.216102 123.942583,140.991075 L116.443556,123.449578 C116.302101,123.118679 115.934188,122.936667 115.575582,123.020178 C115.216977,123.103689 114.973948,123.427975 115.002234,123.785228 Z" id="Path" fill="#CDE9D5"></path>
                <path d="M145.147931,171.603461 C145.850073,170.743642 146.138991,169.61394 145.936944,168.518335 C145.734897,167.42273 145.062639,166.473766 144.101062,165.92679 L132.449743,118 L125,121.236559 L138.858394,167.577666 C138.037449,169.30773 138.627713,171.384391 140.232343,172.411475 C141.836972,173.438559 143.948766,173.091419 145.147931,171.603444 L145.147931,171.603461 Z" id="Path" fill="#FFB8B8"></path>
                <path d="M126.096495,114.201832 C126.096495,114.201832 123.629381,119.109766 126.096495,127.873932 C128.563608,136.638098 130.325848,144 130.325848,144 C130.325848,144 135.964961,140.494334 138.432075,141.546033 C140.899188,142.597732 134.529435,118.183099 134.529435,118.183099 C134.529435,118.183099 130.678275,109.995035 126.096495,114.201832 Z" id="Path" fill="#CDE9D5"></path>
                <path d="M130.436164,99.8671494 C130.552532,98.0806194 132.807749,98.0194019 134.599057,98.0024864 C136.390365,97.9855708 138.531974,98.0494791 139.545558,96.5733024 C140.215395,95.5977468 140.087446,94.2434145 139.534066,93.1974831 C138.980687,92.1515517 138.070437,91.3471105 137.174948,90.5732222 C134.863012,88.5752431 132.480274,86.5931131 129.7046,85.3142723 C126.928927,84.0354315 123.676218,83.5186988 120.797565,84.5452799 C117.261369,85.8063421 112.481074,92.2978391 112.068282,96.0274211 C111.655489,99.7570032 113.146882,103.559025 115.660889,106.346016 C118.174896,109.133008 123.928987,108.00853 127.550134,109 C125.348679,105.886084 126.799756,100.228016 130.326447,98.7738939 L130.436164,99.8671494 Z" id="Path" fill="#2F2E41"></path>
            </g>
        </g>
    </g>
</svg>