<?xml version="1.0" encoding="UTF-8"?>
<svg width="291px" height="293px" viewBox="0 0 291 293" version="1.1" xmlns="http://www.w3.org/2000/svg" xmlns:xlink="http://www.w3.org/1999/xlink">
    <title>undraw_winners_re_wr1l</title>
    <g id="Page-2" stroke="none" stroke-width="1" fill="none" fill-rule="evenodd">
        <g id="Artboard" transform="translate(-397.000000, -192.000000)" fill-rule="nonzero">
            <g id="undraw_winners_re_wr1l" transform="translate(397.000000, 192.000000)">
                <path d="M73.9073784,280.816858 C73.2420351,280.847279 72.6284875,280.460905 72.3715441,279.849683 C72.1146007,279.238462 72.2690278,278.532673 72.7581065,278.08295 C72.7980927,277.924865 72.8267778,277.811346 72.8667639,277.65326 C72.2309006,276.046536 70.6785482,274.984247 68.9426631,274.967961 C67.206778,274.951676 65.634558,275.984652 64.9683404,277.579161 C63.0889513,281.954818 60.6565717,286.484654 61.8662419,291.304149 C53.8760315,274.459943 56.5933043,253.507318 68.401739,239.102391 C71.6657351,237.313941 74.3112646,234.136452 75,230.446955 C73.3846222,230.991386 71.3705503,229.684422 72.5851316,227.991911 C73.1115875,227.345045 73.6431608,226.703269 74.1695685,226.056364 C68.033301,219.556057 60.7220435,229.772224 67.4762992,238.545649 C65.2667925,241.301118 63.352937,244.278792 61.7659364,247.430122 C62.1324272,244.083859 61.6950151,240.698857 60.4896796,237.553551 C59.2680806,234.622251 56.9783758,232.153505 54.9620129,229.61939 C52.5104104,226.531677 47.4646623,227.956185 47.1347622,231.87454 C49.3972917,232.614233 49.6912258,235.865061 47.103163,236.309986 C47.7810362,243.599372 52.5687109,250.29825 59.1627718,253.495116 C56.7276568,260.291292 55.7767878,267.525675 56.3735362,274.716124 C55.2096014,266.312657 46.140796,264.273351 39.8021225,260.933359 C38.9777855,260.407525 37.91893,260.415966 37.1031715,260.954874 C36.287413,261.493782 35.8689378,262.461298 36.0365065,263.421008 C36.9113758,263.774852 37.7487448,264.214263 38.5362802,264.73277 C39.2924223,265.238449 39.6472147,266.162437 39.4224975,267.040751 C39.1977803,267.919065 38.4421018,268.561952 37.5349277,268.646585 C40.73002,276.512253 48.9906362,281.794096 57.4747774,281.764359 C58.2901016,285.288487 59.4714208,288.718792 60.9996995,292 L73.5918384,292 C73.6370077,291.86083 73.6776083,291.717155 73.7182353,291.577984 C72.5526753,291.650867 71.3825285,291.581523 70.2339137,291.371499 C73.3176319,287.739857 75.7024723,285.887043 73.9077603,280.817089 L73.9073784,280.816858 Z" id="Path" fill="#F2F2F2"></path>
                <path d="M184.092621,280.816858 C184.757964,280.847279 185.371512,280.460905 185.628455,279.849683 C185.885398,279.238462 185.730971,278.532673 185.241893,278.08295 C185.201907,277.924865 185.173221,277.811346 185.133235,277.65326 C185.769098,276.046536 187.32145,274.984247 189.057335,274.967961 C190.793219,274.951676 192.365439,275.984652 193.031656,277.579161 C194.911045,281.954818 197.343423,286.484654 196.133753,291.304149 C204.123961,274.459943 201.406685,253.507318 189.598259,239.102391 C186.334264,237.313941 183.688731,234.136452 183,230.446955 C184.615377,230.991386 186.629448,229.684422 185.414868,227.991911 C184.888407,227.345045 184.356839,226.703269 183.830431,226.056364 C189.966697,219.556057 197.277952,229.772224 190.523694,238.545649 C192.733204,241.301116 194.647062,244.27879 196.234063,247.430122 C195.86757,244.083859 196.304983,240.698856 197.51032,237.553551 C198.731918,234.622251 201.021622,232.153505 203.037984,229.61939 C205.48959,226.531677 210.535332,227.956185 210.865237,231.87454 C208.602708,232.614233 208.308774,235.865061 210.896836,236.309986 C210.218967,243.599372 205.431294,250.29825 198.837231,253.495116 C201.272347,260.291292 202.223217,267.525675 201.62647,274.716124 C202.790405,266.312657 211.859207,264.273351 218.197874,260.933359 C219.022211,260.407522 220.081068,260.415961 220.896828,260.95487 C221.712588,261.493778 222.131063,262.461297 221.963493,263.421008 C221.088624,263.774852 220.251255,264.214263 219.46372,264.73277 C218.707578,265.238449 218.352786,266.162437 218.577503,267.040751 C218.80222,267.919065 219.557899,268.561952 220.465072,268.646585 C217.269972,276.51227 209.009355,281.794096 200.525216,281.764359 C199.709897,285.288488 198.528578,288.718794 197.000296,292 L184.408161,292 C184.362996,291.86083 184.322396,291.717155 184.281764,291.577984 C185.447322,291.650867 186.617467,291.581523 187.76608,291.371499 C184.682367,287.739857 182.297528,285.887043 184.092235,280.817089 L184.092621,280.816858 Z" id="Path" fill="#F2F2F2"></path>
                <polygon id="Path" fill="#FFB6B6" points="189 282.775138 183.476341 284 176 263.808524 184.152717 262"></polygon>
                <path d="M190,288.267759 L173.216683,292 L173.168383,291.792554 C172.34765,288.266484 174.606685,284.757693 178.214307,283.955094 L178.214708,283.955004 L180.751102,281 L187.000299,282.001286 L188.465368,281.675481 L190,288.267759 Z" id="Path" fill="#F6FFA6"></path>
                <polygon id="Path" fill="#FFB6B6" points="275.031839 185 278 189.585411 261.381446 203 257 196.231835"></polygon>
                <path d="M279.813493,182 L289,195.889641 L288.817065,196.0012 C285.707498,197.89719 281.58597,197.014028 279.610972,194.028516 L279.610748,194.028183 L275.928047,192.713544 L274.801922,186.757327 L274,185.544856 L279.813493,182 Z" id="Path" fill="#F6FFA6"></path>
                <path d="M104.328869,135 L103,127.316381 L123.203196,118.215712 L127.566262,110.509849 C127.17525,108.633291 128.267013,106.76494 130.096601,106.179641 C131.926189,105.594343 133.903578,106.48085 134.679521,108.234266 C135.455464,109.987682 134.779728,112.042548 133.113392,112.996751 L125.9361,124.065971 L104.328869,135 Z" id="Path" fill="#A0616A"></path>
                <polygon id="Path" fill="#F6FFA6" points="99 128.739643 107.697597 124 110 133.22261 103.958638 138"></polygon>
                <polygon id="Path" fill="#A0616A" points="78.0012871 282 83.4214309 281.999569 86 261 78 261.000431"></polygon>
                <path d="M85.7513005,282.81646 L85.7513005,279 L84.3112711,279.090418 L78.4494007,279.447318 L77.0927271,279.532968 L76.055559,292.314746 L76,293 L79.8893824,293 L80.0144097,292.319505 L80.5792958,289.226385 L82.0378348,292.319514 L82.357323,293 L92.6688746,293 C93.9459207,292.991691 94.9784602,291.928388 94.983991,290.615907 C95.4192409,288.526859 86.8440276,284.01089 85.7513005,282.81646 Z" id="Path" fill="#CDE9D5"></path>
                <polygon id="Path" fill="#A0616A" points="13.2872782 198 12 203.415638 32.1003358 211 34 203.00746"></polygon>
                <path d="M11.0101645,204.744796 L14.5255878,205.607103 L14.7691642,204.192048 L15.7709605,198.434329 L16,197.101086 L4.46182779,193.20864 L3.84323996,193 L2.9604186,196.766779 L3.55885156,197.041616 L6.27978454,198.28756 L3.09956952,199.00124 L2.4002398,199.156905 L0.059699946,209.14338 C-0.222512341,210.382047 0.522550499,211.622284 1.73024966,211.924189 C3.55573652,212.817738 9.66191971,205.533202 11.0101645,204.744796 Z" id="Path" fill="#CDE9D5"></path>
                <path d="M86,145.264082 L78.9722092,142 L64.9574082,158.851263 L56.4207966,160.996331 C54.7217756,160.135918 52.6431457,160.688256 51.6032342,162.276463 C50.5633227,163.864671 50.8974907,165.976567 52.3777228,167.171125 C53.8579549,168.365684 56.006891,168.257672 57.3582312,166.920789 L69.8585541,162.973877 L86,145.264082 Z" id="Path" fill="#A0616A"></path>
                <path d="M186.5,82 C182.357864,82 179,78.6421356 179,74.5 C179,70.3578644 182.357864,67 186.5,67 C190.642136,67 194,70.3578644 194,74.5 C193.995375,78.6402185 190.640218,81.9953752 186.5,82 Z M186.5,67.8607011 C183.814652,67.8607011 181.393721,69.4783159 180.366083,71.959254 C179.338446,74.4401921 179.906477,77.2958751 181.805305,79.1947021 C183.704134,81.0935292 186.559817,81.6615588 189.040754,80.6339194 C191.521692,79.6062801 193.139303,77.1853479 193.139303,74.5 C193.135146,70.8349382 190.165062,67.8648561 186.5,67.8607011 L186.5,67.8607011 Z" id="Shape" fill="#E6E6E6"></path>
                <path d="M186.183568,78 C186.167958,78 186.152326,77.9994983 186.136708,77.9987392 C185.857464,77.9853073 185.598043,77.8511394 185.426478,77.6314204 L184.202076,76.0645599 C184.045915,75.8648261 183.975883,75.6115143 184.007392,75.3603734 C184.0389,75.1092326 184.169367,74.8808443 184.37008,74.7254724 L184.414144,74.6913473 C184.614826,74.5358139 184.869389,74.4660615 185.121766,74.4974527 C185.374143,74.5288439 185.603634,74.658804 185.759695,74.85871 C185.884847,75.0186493 186.073843,75.1163162 186.277271,75.126176 C186.4807,75.1360358 186.678335,75.0571082 186.818505,74.9100286 L189.30451,72.2975867 C189.668896,71.9155848 190.275143,71.8991885 190.659832,72.2609312 L190.700595,72.2996066 C190.885213,72.4736282 190.992792,72.7135422 190.999651,72.9665383 C191.00651,73.2195344 190.912087,73.4648745 190.737166,73.6485538 L186.879205,77.7019569 C186.698329,77.8922424 186.446743,78 186.183568,78 Z" id="Path" fill="#E6E6E6"></path>
                <path d="M148.5,174 C144.357864,174 141,170.642136 141,166.5 C141,162.357864 144.357864,159 148.5,159 C152.642136,159 156,162.357864 156,166.5 C155.995375,170.640218 152.640218,173.995375 148.5,174 Z M148.5,159.860701 C145.814652,159.860701 143.393721,161.478316 142.366083,163.959254 C141.338446,166.440192 141.906477,169.295875 143.805305,171.194702 C145.704134,173.093529 148.559817,173.661559 151.040754,172.633919 C153.521692,171.60628 155.139303,169.185348 155.139303,166.5 C155.135146,162.834938 152.165062,159.864856 148.5,159.860701 L148.5,159.860701 Z" id="Shape" fill="#E6E6E6"></path>
                <path d="M148.183568,169 C148.167958,169 148.152326,168.999498 148.136708,168.998739 C147.857464,168.985307 147.598043,168.851139 147.426478,168.63142 L146.202076,167.06456 C146.045915,166.864826 145.975883,166.611514 146.007392,166.360373 C146.0389,166.109233 146.169367,165.880844 146.37008,165.725472 L146.414144,165.691347 C146.614826,165.535814 146.869389,165.466061 147.121766,165.497453 C147.374143,165.528844 147.603634,165.658804 147.759695,165.85871 C147.884847,166.018649 148.073843,166.116316 148.277271,166.126176 C148.4807,166.136036 148.678335,166.057108 148.818505,165.910029 L151.30451,163.297587 C151.668896,162.915585 152.275143,162.899188 152.659832,163.260931 L152.700595,163.299607 C152.885213,163.473628 152.992792,163.713542 152.999651,163.966538 C153.00651,164.219534 152.912087,164.464875 152.737166,164.648554 L148.879205,168.701957 C148.698329,168.892242 148.446743,169 148.183568,169 L148.183568,169 Z" id="Path" fill="#E6E6E6"></path>
                <path d="M65.5,72 C61.3578644,72 58,68.6421356 58,64.5 C58,60.3578644 61.3578644,57 65.5,57 C69.6421356,57 73,60.3578644 73,64.5 C72.9953752,68.6402185 69.6402185,71.9953752 65.5,72 Z M65.5,57.8607011 C62.8146521,57.8607011 60.393721,59.4783159 59.3660832,61.959254 C58.3384455,64.4401921 58.9064769,67.2958751 60.8053052,69.1947021 C62.7041335,71.0935292 65.5598169,71.6615588 68.0407543,70.6339194 C70.5216918,69.6062801 72.1393032,67.1853479 72.1393032,64.5 C72.1351458,60.8349382 69.1650618,57.8648561 65.5,57.8607011 L65.5,57.8607011 Z" id="Shape" fill="#E6E6E6"></path>
                <path d="M65.1835679,67 C65.1679582,67 65.1523486,66.9994983 65.1367077,66.9987392 C64.8574636,66.9853073 64.5980431,66.8511394 64.4264782,66.6314204 L63.2020762,65.0645599 C63.0459154,64.8648261 62.975883,64.6115143 63.0073915,64.3603734 C63.0389001,64.1092326 63.1693675,63.8808443 63.3700804,63.7254724 L63.4141442,63.6913473 C63.6148263,63.5358139 63.8693889,63.4660615 64.1217657,63.4974527 C64.3741426,63.5288439 64.6036337,63.658804 64.7596949,63.85871 C64.8848468,64.0186493 65.0738431,64.1163162 65.2772714,64.126176 C65.4806996,64.1360358 65.6783347,64.0571082 65.8185054,63.9100286 L68.3045095,61.2975867 C68.6688964,60.9155848 69.2751431,60.8991885 69.6598318,61.2609312 L69.7005953,61.2996066 C69.8852132,61.4736282 69.9927919,61.7135422 69.9996508,61.9665383 C70.0065098,62.2195344 69.9120868,62.4648745 69.7371664,62.6485538 L65.8792046,66.7019569 C65.6983289,66.8922424 65.4467426,67 65.1835679,67 Z" id="Path" fill="#E6E6E6"></path>
                <path d="M126.870742,202 C109.292107,202 89.0898019,182.747625 71.215773,191.894938 C17.0979854,219.590511 24.5476013,173.24627 9,156.010425 L9.51043363,155 C26.6654265,170.18129 48.0839911,182.533135 71.4507786,190.71962 C92.5670291,198.118382 113.841616,201.546483 132.966807,200.64182 L133,201.856346 C130.980243,201.952503 128.937158,202 126.870742,202 Z" id="Path" fill="#F2F2F2"></path>
                <ellipse id="Oval" fill="#E6E6E6" cx="102.5" cy="65" rx="3.5" ry="5"></ellipse>
                <path d="M144.315272,146.743774 C142.691705,147.808799 141.030008,145.27394 142.684777,144.256198 C144.308268,143.191239 145.969961,145.726106 144.315272,146.743774 Z" id="Path" fill="#E6E6E6"></path>
                <circle id="Oval" fill="#FF6584" cx="135" cy="53" r="5"></circle>
                <path d="M151.972074,79.524517 L179,0 L149.321634,78.5725623 C148.918506,79.0847625 148.891829,79.8012354 149.255737,80.3424207 C149.619645,80.883606 150.289999,81.1243793 150.911672,80.9371879 C151.533344,80.7499966 151.962602,80.1781201 151.97204,79.524517 L151.972074,79.524517 Z" id="Path" fill="#F0F0F0" opacity="0.3"></path>
                <circle id="Oval" fill="#F2F2F2" cx="124.5" cy="170.5" r="4.5"></circle>
                <path d="M79.6963252,173 C79.6963252,173 68.0911699,180.524467 71.1598252,185.524422 C71.26567,185.696879 57.2975232,204.066044 57.2975232,204.066044 L30.9290062,202.399278 L30,211.187037 L53.4751054,217.956823 C53.4751054,217.956823 59.2180448,222.15798 63.6546095,217.529199 C68.0911742,212.900417 82.868881,198.72584 82.868881,198.72584 L83.5816827,227.343892 L76.1633255,267 L87.2397788,266.300717 L98.0206244,226.51573 L102,181.449492 L79.6963252,173 Z" id="Path" fill="#3A4046"></path>
                <path d="M88.0586234,127.918959 L83.2083944,131.609467 L77.6800836,143.456071 L82.9960234,150.704926 C82.9960234,150.704926 87.4676411,158.485848 80.3101529,166.021171 C73.1526648,173.556494 67.6564522,181.604604 73.3853322,181.317242 C79.1142122,181.029879 102.316908,192.87887 102.469583,183.171311 C102.622258,173.463752 102.931239,166.021171 102.931239,166.021171 L109.014465,150.529755 C109.014465,150.529755 112.638713,141.288306 110.094157,138.521965 C107.5496,135.755625 104.142608,132.220699 104.142608,132.220699 L97.9469064,126 L92.3525188,126 L88.0586234,127.918959 Z" id="Path" fill="#F6FFA6"></path>
                <path d="M97.065077,105.220575 C107.939853,111.355837 99.0122018,127.543712 87.9346972,121.77935 C77.0602669,115.644288 85.9879181,99.4564136 97.065077,105.220575 Z" id="Path" fill="#A0616A"></path>
                <path d="M102,108.469016 C101.247714,109.480462 99.6760042,109.006202 96.598089,109.727934 C96.6048307,108.649455 96.4843011,107.574152 96.2391702,106.525842 C96.0101666,107.823807 95.5083012,109.053975 94.7690127,110.129478 C92.0963906,110.435882 95.3726635,118.829065 94.0042419,125 C92.2411056,111.981307 88.5326842,115.392099 90.4061514,117.974324 C91.6055149,119.627423 90.8059378,124.586722 87.2078473,122.107072 C81.2711518,125.023722 72.8154853,110.535375 82.1869504,103.740552 C82.0195004,100.067764 85.9727903,99.4875689 88.407198,100.616771 C94.315157,96.0672574 101.064951,101.896752 102,108.469016 Z" id="Path" fill="#2F2E41"></path>
                <path d="M74.5815371,98.3579527 C72.1806305,113.454669 59.3118748,95.5815136 53.2610703,110.438195 C51.3586145,115.81841 54.6227368,119.667243 56.6874341,124.133071 C57.1586619,127.803168 52.4901362,129.665185 52.0011281,133.043491 C51.8650257,140.788622 64.0830889,140.314668 67.498746,135.428189 C71.0083385,130.312883 66.8173815,123.44986 68.9269064,117.959266 C71.8918323,110.336344 83.9495605,110.279711 85,101.411101 C82.9656362,98.4483372 77.4952859,95.0550333 74.5815371,98.3579527 Z" id="Path" fill="#2F2E41"></path>
                <path d="M84.6424525,100.542311 C84.5688854,100.574653 84.4953184,100.606971 84.4295041,100.643355 L84.4256277,100.643355 C84.3636898,100.675698 84.3017238,100.708015 84.2397859,100.7444 C84.2320331,100.748446 84.2281808,100.752493 84.2204281,100.756548 C84.1391122,100.675702 84.0578165,100.594856 83.9726243,100.51401 C83.9505933,100.645677 83.9558712,100.780744 83.9881017,100.9101 L83.9997389,100.958625 C84.0771864,101.043488 84.1584781,101.124329 84.2436703,101.209213 C84.3211178,101.148579 84.3946808,101.083919 84.4721002,101.02328 C84.5185847,100.982874 84.5650452,100.942434 84.615382,100.902033 C84.6231107,100.796941 84.6347358,100.675694 84.6463409,100.542306 L84.6424525,100.542311 Z M86.973344,96.0478379 C85.2464704,95.6355663 84.6889129,97.9919403 84.522425,99.1276812 C83.8951808,95.0050446 81.2855226,96.3024728 82.1876811,99.1155334 C82.475237,99.948394 82.9277631,100.708617 83.5157405,101.346613 C83.5970603,101.443611 83.6861048,101.54061 83.7790257,101.637633 C83.6744797,102.20347 84.2010742,102.057972 84.9134905,101.536588 C85.4395491,101.146042 85.9260568,100.700479 86.3654537,100.206822 C87.786434,98.6507539 88.8938162,96.5692178 86.973344,96.0478379 L86.973344,96.0478379 Z M87.0275572,98.3678229 C86.4947847,99.0849664 85.8970417,99.7468411 85.2426181,100.344268 C85.0373944,100.538264 84.8283117,100.724187 84.61537,100.902037 C84.6114936,100.938401 84.6114936,100.970735 84.6076212,100.999035 C84.5926764,101.0383 84.5745391,101.076158 84.553408,101.112194 C84.3365832,101.520419 84.0926518,101.298127 83.9997269,100.958629 C83.9919781,100.946481 83.980373,100.934333 83.9726243,100.92224 C83.6632072,100.588583 83.3940458,100.216674 83.1711354,99.8147949 C81.572026,96.9208551 84.146861,94.952499 84.0190847,100.356382 C83.9955379,100.40596 83.9798475,100.459194 83.9726243,100.514015 C83.9505933,100.645681 83.9558712,100.780749 83.9881017,100.910105 L83.9997389,100.958629 C84.0771864,101.043492 84.1584781,101.124333 84.2436703,101.209217 C84.3211178,101.148583 84.3946808,101.083923 84.4721002,101.023284 C84.5185847,100.982878 84.5650452,100.942439 84.615382,100.902037 C84.6231107,100.796946 84.6347358,100.675698 84.6463409,100.542311 L84.6463409,100.538264 C84.7470146,99.4550689 85.021941,97.50692 85.5291617,96.977443 C86.6442445,96.0841976 88.088455,97.0501958 87.0275572,98.3678229 L87.0275572,98.3678229 Z M84.6424525,100.542311 C84.5688854,100.574653 84.4953184,100.606971 84.4295041,100.643355 L84.4256277,100.643355 C84.3636898,100.675698 84.3017238,100.708015 84.2397859,100.7444 C84.2320331,100.748446 84.2281808,100.752493 84.2204281,100.756548 C84.1391122,100.675702 84.0578165,100.594856 83.9726243,100.51401 C83.9505933,100.645677 83.9558712,100.780744 83.9881017,100.9101 L83.9997389,100.958625 C84.0771864,101.043488 84.1584781,101.124329 84.2436703,101.209213 C84.3211178,101.148579 84.3946808,101.083919 84.4721002,101.02328 C84.5185847,100.982874 84.5650452,100.942434 84.615382,100.902033 C84.6231107,100.796941 84.6347358,100.675694 84.6463409,100.542306 L84.6424525,100.542311 Z" id="Shape" fill="#2F2E41"></path>
                <path d="M185.030334,182.945533 L180.983526,193.44078 L162,230.679784 L178.680703,274 L187.289578,271.74001 L180.193938,230.679792 L200.551027,206.08179 L224.726927,222.388157 C224.726927,222.388157 235.448779,230.712312 239.527739,222.821068 C243.606699,214.929824 270,198.145142 270,198.145142 L263.47023,191.218566 L233.076805,205.363357 L212.099265,176 L185.030334,182.945533 Z" id="Path" fill="#3A4046"></path>
                <path d="M205.65625,132.674571 L199.084825,125.562243 L187.812231,124 L174,133.740741 L174.139136,144.52247 L180.967065,169.928594 C180.967065,169.928594 178.366286,188.181691 185.630638,187.998632 C192.89499,187.815574 196.854565,184.167188 199.813249,184.909878 C202.771934,185.652568 215.349075,188.813306 216.146135,185.502538 C216.943196,182.19177 221.180038,184.562328 220.99406,181.430358 C220.808081,178.298387 209.524304,155.722444 209.524304,155.722444 L212.329862,133.144304 L205.65625,132.674571 Z" id="Path" fill="#CDE9D5"></path>
                <path d="M247.979403,100.686148 C248.100966,101.877063 247.680154,103.059789 246.830199,103.916079 C245.980244,104.772369 244.788454,105.214263 243.575517,105.122858 L228.143213,134 L224,127.742044 L239.773844,100.488291 C240.071511,98.4488387 241.872487,96.9507598 243.965946,97.0012385 C246.059405,97.0517171 247.783635,98.6347977 247.979408,100.686148 L247.979403,100.686148 Z" id="Path" fill="#FFB6B6"></path>
                <path d="M200.017955,138.438753 C200.017955,138.438753 199.413731,143.600663 205.215493,144.878584 C211.017255,146.156506 227.091024,136.957069 229.726103,135.551993 C230.55124,135.112013 231.670914,132.955392 232.819752,130.200356 C233.335513,128.963501 233.857153,127.606036 234.360663,126.22914 C234.652035,125.432348 236.047241,125.214875 236.321821,124.424682 C236.594889,123.638826 235.74744,122.280111 235.994713,121.539458 C237.168417,118.023914 238,115.23488 238,115.23488 L234.154672,108 C228.776697,110.8478 226.018351,117.120608 223.989661,124.347406 L200.017955,138.438753 Z" id="Path" fill="#CDE9D5"></path>
                <path d="M131.052506,106.700091 C131.236802,107.880028 131.941508,108.918847 132.977004,109.537028 C134.0125,110.155208 135.27242,110.28925 136.417749,109.903086 L158.592469,134 L161,126.938993 L138.907133,104.4937 C138.104235,102.597272 135.990156,101.592877 133.98623,102.155787 C131.982303,102.718697 130.72194,104.670984 131.052506,106.700091 L131.052506,106.700091 Z" id="Path" fill="#FFB6B6"></path>
                <path d="M187.677216,131.731541 C187.677216,131.731541 189.55661,136.535618 184.24554,139.203774 C178.934471,141.87193 161.029105,137.036757 158.119573,136.342997 C157.208492,136.125759 155.581562,134.334129 153.776435,131.975411 C152.966034,130.916481 152.119716,129.743258 151.286136,128.546879 C150.80375,127.85455 149.395094,127.992514 148.930666,127.302342 C148.468789,126.615962 148.950993,125.10133 148.525476,124.451929 C146.505733,121.369482 145,118.899291 145,118.899291 L146.920088,111 C152.853229,112.396861 157.101664,117.73187 160.88084,124.163798 L187.677216,131.731541 Z" id="Path" fill="#CDE9D5"></path>
                <circle id="Oval" fill="#FFB6B6" cx="193" cy="112" r="11"></circle>
                <path d="M205.843283,105.690331 C204.708057,103.961265 202.577737,102.808898 200.512548,103.132713 C200.12073,100.487778 198.266444,98.277288 195.702395,97.398541 C193.138347,96.5197939 190.290654,97.1188281 188.315271,98.9524795 C187.667076,98.5031725 186.827372,98.4204378 186.101592,98.7343692 C185.390792,99.0525555 184.772431,99.5412165 184.303128,100.155606 C181.888634,103.120001 181.325413,107.151372 182.837316,110.647463 C182.584923,109.744129 183.504455,108.894294 184.433544,108.691584 C185.362556,108.488873 186.337107,108.680646 187.279255,108.548647 C188.486775,108.379488 189.572237,107.68984 190.781668,107.53463 C191.807252,107.46896 192.836059,107.599112 193.811461,107.917922 C194.786667,108.236691 195.813962,108.372509 196.840039,108.318328 C197.857986,108.199333 199.169171,111.997194 199.151576,114.67216 C199.148232,115.179087 199.254286,115.829938 199.757487,115.937485 C200.377172,116.069961 200.736259,115.227907 201.326086,114.998485 C201.891097,114.839059 202.482853,115.148862 202.664503,115.699189 C202.815326,116.245327 202.688806,116.829556 202.324843,117.267639 C201.96229,117.695674 201.531894,118.063247 201.050282,118.356161 L201.293204,118.555068 C201.768782,119.04981 202.533778,119.143374 203.117861,118.778237 C203.674777,118.406891 204.1258,117.901296 204.427932,117.309652 C205.566338,115.576473 206.380172,113.656534 206.83087,111.640805 C207.21116,109.616367 206.978432,107.419396 205.843283,105.690331 Z" id="Path" fill="#2F2E41"></path>
                <path d="M286.205857,148.749637 C272.204485,159.300847 244.345472,155.967557 235.700054,174.041202 C209.524009,228.763343 187.129992,187.078262 164.211058,182.570312 L164,181.45258 C186.943407,183.345955 211.55327,180.408215 235.168836,172.956379 C256.510362,166.222855 275.550962,156.205927 290.231191,144 L291,144.955319 C289.450053,146.244861 287.852005,147.509634 286.205857,148.749637 Z" id="Path" fill="#F2F2F2"></path>
            </g>
        </g>
    </g>
</svg>