<svg id="ezd4eHw3bEl1" xmlns="http://www.w3.org/2000/svg" xmlns:xlink="http://www.w3.org/1999/xlink" viewBox="0 0 291 293" shape-rendering="geometricPrecision" text-rendering="geometricPrecision" style="background-color: #ebe6df"><g><g transform="matrix(.999998 0 0 1-397-192)"><g transform="translate(397 192)"><path d="M73.907378,280.816858c-.665343.030421-1.27889-.355953-1.535834-.967175s-.102516-1.31701.386563-1.766733c.039986-.158085.068671-.271604.108657-.42969-.635863-1.606724-2.188216-2.669013-3.924101-2.685299s-3.308105,1.016691-3.974323,2.6112c-1.879389,4.375657-4.311768,8.905493-3.102098,13.724988-7.99021-16.844206-5.272938-37.796831,6.535497-52.201758c3.263996-1.78845,5.909526-4.965939,6.598261-8.655436-1.615378.544431-3.62945-.762533-2.414868-2.455044.526456-.646866,1.058029-1.288642,1.584437-1.935547-6.136268-6.500307-13.447525,3.71586-6.69327,12.489285-2.209507,2.755469-4.123362,5.733143-5.710363,8.884473.366491-3.346263-.070921-6.731265-1.276256-9.876571-1.221599-2.9313-3.511304-5.400046-5.527667-7.934161-2.451603-3.087713-7.497351-1.663205-7.827251,2.25515c2.26253.739693,2.556464,3.990521-.031599,4.435446.677873,7.289386,5.465548,13.988264,12.059609,17.18513-2.435115,6.796176-3.385984,14.030559-2.789236,21.221008-1.163935-8.403467-10.23274-10.442773-16.571413-13.782765-.824337-.525834-1.883193-.517393-2.698951.021515s-1.234234,1.506424-1.066665,2.466134c.874869.353844,1.712238.793255,2.499773,1.311762.756142.505679,1.110935,1.429667.886218,2.307981s-.980396,1.521201-1.88757,1.605834c3.195092,7.865668,11.455708,13.147511,19.939849,13.117774.815325,3.524128,1.996644,6.954433,3.524923,10.235641h12.592138c.04517-.13917.08577-.282845.126397-.422016-1.16556.072883-2.335706.003539-3.484321-.206485c3.083718-3.631642,5.468558-5.484456,3.673846-10.55441l-.000382-.000231Z" fill="#f2f2f2"/><path d="M184.092621,280.816858c.665343.030421,1.278891-.355953,1.535834-.967175s.102516-1.31701-.386562-1.766733c-.039986-.158085-.068672-.271604-.108658-.42969.635863-1.606724,2.188215-2.669013,3.9241-2.685299s3.308104,1.016691,3.974321,2.6112c1.879389,4.375657,4.311767,8.905493,3.102097,13.724988c7.990208-16.844206,5.272932-37.796831-6.535494-52.201758-3.263995-1.78845-5.909528-4.965939-6.598259-8.655436c1.615377.544431,3.629448-.762533,2.414868-2.455044-.526461-.646866-1.058029-1.288642-1.584437-1.935547c6.136266-6.500307,13.447521,3.71586,6.693263,12.489285c2.20951,2.755467,4.123368,5.733141,5.710369,8.884473-.366493-3.346263.07092-6.731266,1.276257-9.876571c1.221598-2.9313,3.511302-5.400046,5.527664-7.934161c2.451606-3.087713,7.497348-1.663205,7.827253,2.25515-2.262529.739693-2.556463,3.990521.031599,4.435446-.677869,7.289386-5.465542,13.988264-12.059605,17.18513c2.435116,6.796176,3.385986,14.030559,2.789239,21.221008c1.163935-8.403467,10.232737-10.442773,16.571404-13.782765.824337-.525837,1.883194-.517398,2.698954.021511s1.234235,1.506427,1.066665,2.466138c-.874869.353844-1.712238.793255-2.499773,1.311762-.756142.505679-1.110934,1.429667-.886217,2.307981s.980396,1.521201,1.887569,1.605834c-3.1951,7.865685-11.455717,13.147511-19.939856,13.117774-.815319,3.524129-1.996638,6.954435-3.52492,10.235641h-12.592135c-.045165-.13917-.085765-.282845-.126397-.422016c1.165558.072883,2.335703.003539,3.484316-.206485-3.083713-3.631642-5.468552-5.484456-3.673845-10.55441l.000386-.000231Z" fill="#f2f2f2"/><g id="ezd4eHw3bEl7" opacity="0"><path d="M186.5,82c-4.142136,0-7.5-3.357864-7.5-7.5s3.357864-7.5,7.5-7.5s7.5,3.357864,7.5,7.5c-.004625,4.140219-3.359782,7.495375-7.5,7.5Zm0-14.139299c-2.685348,0-5.106279,1.617615-6.133917,4.098553s-.459606,5.336621,1.439222,7.235448s4.754512,2.466857,7.235449,1.439217s4.098549-3.448571,4.098549-6.133919c-.004157-3.665062-2.974241-6.635144-6.639303-6.639299v0Z" fill="#e385ac"/><path d="M186.183568,78c-.01561,0-.031242-.000502-.04686-.001261-.279244-.013432-.538665-.1476-.71023-.367319l-1.224402-1.56686c-.156161-.199734-.226193-.453046-.194684-.704187s.161975-.479529.362688-.634901l.044064-.034125c.200682-.155533.455245-.225285.707622-.193894s.481868.161351.637929.361257c.125152.159939.314148.257606.517576.267466s.401064-.069068.541234-.216147l2.486005-2.612442c.364386-.382002.970633-.398398,1.355322-.036656l.040763.038676c.184618.174021.292197.413935.299056.666931s-.087564.498337-.262485.682016l-3.857961,4.053403c-.180876.190285-.432462.298043-.695637.298043Z" fill="#e385ac"/></g><g id="ezd4eHw3bEl10" opacity="0"><path d="M148.5,174c-4.142136,0-7.5-3.357864-7.5-7.5s3.357864-7.5,7.5-7.5s7.5,3.357864,7.5,7.5c-.004625,4.140218-3.359782,7.495375-7.5,7.5Zm0-14.139299c-2.685348,0-5.106279,1.617615-6.133917,4.098553s-.459606,5.336621,1.439222,7.235448s4.754512,2.466857,7.235449,1.439217s4.098549-3.448571,4.098549-6.133919c-.004157-3.665062-2.974241-6.635144-6.639303-6.639299v0Z" fill="#e385ac"/><path d="M148.183568,169c-.01561,0-.031242-.000502-.04686-.001261-.279244-.013432-.538665-.1476-.71023-.367319l-1.224402-1.56686c-.156161-.199734-.226193-.453046-.194684-.704187s.161975-.479529.362688-.634901l.044064-.034125c.200682-.155533.455245-.225286.707622-.193894s.481868.161351.637929.361257c.125152.159939.314148.257606.517576.267466s.401064-.069068.541234-.216147l2.486005-2.612442c.364386-.382002.970633-.398399,1.355322-.036656l.040763.038676c.184618.174021.292197.413935.299056.666931s-.087564.498337-.262485.682016l-3.857961,4.053403c-.180876.190285-.432462.298043-.695637.298043v0Z" fill="#e385ac"/></g><g id="ezd4eHw3bEl13" opacity="0"><path d="M65.5,72c-4.142136,0-7.5-3.357864-7.5-7.5s3.357864-7.5,7.5-7.5s7.5,3.357864,7.5,7.5c-.004625,4.140219-3.359781,7.495375-7.5,7.5Zm0-14.139299c-2.685348,0-5.106279,1.617615-6.133917,4.098553s-.459606,5.336621,1.439222,7.235448s4.754512,2.466857,7.235449,1.439217s4.098549-3.448571,4.098549-6.133919c-.004157-3.665062-2.974241-6.635144-6.639303-6.639299v0Z" fill="#6da2b8"/><path d="M65.183568,67c-.01561,0-.031219-.000502-.04686-.001261-.279244-.013432-.538665-.1476-.71023-.367319l-1.224402-1.56686c-.156161-.199734-.226193-.453046-.194684-.704187s.161976-.479529.362688-.634901l.044064-.034125c.200682-.155533.455245-.225285.707622-.193894s.481868.161351.637929.361257c.125152.159939.314148.257606.517576.267466s.401064-.069068.541234-.216147l2.486005-2.612442c.364386-.382002.970633-.398398,1.355322-.036656l.040763.038676c.184618.174021.292197.413935.299056.666931s-.087564.498337-.262485.682016l-3.857961,4.053403C65.698329,66.892242,65.446743,67,65.183568,67Z" fill="#6da2b8"/></g><path d="M126.870742,202c-17.578635,0-37.78094-19.252375-55.654969-10.105062C17.097985,219.590511,24.547601,173.24627,9,156.010425L9.510434,155c17.154993,15.18129,38.573557,27.533135,61.940345,35.71962c21.11625,7.398762,42.390837,10.826863,61.516028,9.9222L133,201.856346c-2.019757.096157-4.062842.143654-6.129258.143654Z" fill="#f2f2f2"/><ellipse rx="3.5" ry="5" transform="translate(102.5 65)" fill="#e6e6e6"/><g id="ezd4eHw3bEl18" transform="matrix(.987195-.15952 0.15952 0.987195-18.685528 20.685431)"><path d="M104.328869,135L103,127.316381l20.203196-9.100669l4.363066-7.705863c-.391012-1.876558.700751-3.744909,2.530339-4.330208s3.806977.301209,4.58292,2.054625.100207,3.808282-1.566129,4.762485l-7.177292,11.06922L104.328869,135Z" fill="#a0616a"/><polygon points="99,128.739643 107.697597,124 110,133.22261 103.958638,138" fill="#86c3a1"/><polygon points="78.001287,282 83.421431,281.999569 86,261 78,261.000431" fill="#a0616a"/><path d="M85.751301,282.81646v-3.81646l-1.44003.090418-5.86187.3569-1.356674.08565-1.037168,12.781778L76,293h3.889382l.125028-.680495.564886-3.09312l1.458539,3.093129L82.357323,293h10.311552c1.277046-.008309,2.309585-1.071612,2.315116-2.384093.43525-2.089048-8.139963-6.605017-9.23269-7.799447Z" fill="#6da2b8"/><polygon points="13.287278,198 12,203.415638 32.100336,211 34,203.00746" fill="#a0616a"/><path d="M11.010165,204.744796l3.515423.862307.243576-1.415055l1.001797-5.757719L16,197.101086L4.461828,193.20864L3.84324,193l-.882821,3.766779.598433.274837l2.720933,1.245944-3.180215.71368-.69933.155665L0.0597,209.14338c-.282212,1.238667.46285,2.478904,1.67055,2.780809c1.825487.893549,7.93167-6.390987,9.279915-7.179393Z" fill="#6da2b8"/><path d="M86,145.264082L78.972209,142L64.957408,158.851263l-8.536611,2.145068c-1.699021-.860413-3.777651-.308075-4.817563,1.280132s-.705743,3.700104.774489,4.894662s3.629168,1.086547,4.980508-.250336l12.500323-3.946912L86,145.264082Z" fill="#a0616a"/><path d="M79.696325,173c0,0-11.605155,7.524467-8.5365,12.524422.105845.172457-13.862302,18.541622-13.862302,18.541622l-26.368517-1.666766L30,211.187037l23.475105,6.769786c0,0,5.74294,4.201157,10.179505-.427624s19.214271-18.803359,19.214271-18.803359l.712802,28.618052L76.163326,267l11.076453-.699283L98.020624,226.51573L102,181.449492L79.696325,173Z" fill="#1b1313"/><path d="M88.058623,127.918959l-4.850229,3.690508-5.52831,11.846604l5.315939,7.248855c0,0,4.471618,7.780922-2.68587,15.316245s-12.653701,15.583433-6.924821,15.296071s28.931576,11.561628,29.084251,1.854069.461656-17.15014.461656-17.15014l6.083226-15.491416c0,0,3.624248-9.241449,1.079692-12.00779s-5.951549-6.301266-5.951549-6.301266L97.946906,126h-5.594387l-4.293896,1.918959Z" fill="#86c3a1"/><path d="M97.065077,105.220575c10.874776,6.135262,1.947125,22.323137-9.13038,16.558775-10.87443-6.135062-1.946779-22.322936,9.13038-16.558775Z" fill="#a0616a"/><path d="M102,108.469016c-.752286,1.011446-2.323996.537186-5.401911,1.258918.006742-1.078479-.113788-2.153782-.358919-3.202092-.229003,1.297965-.730869,2.528133-1.470157,3.603636-2.672622.306404.603651,8.699587-.764771,14.870522-1.763136-13.018693-5.471558-9.607901-3.598091-7.025676c1.199364,1.653099.399787,6.612398-3.198304,4.132748-5.936695,2.91665-14.392362-11.571697-5.020897-18.36652-.16745-3.672788,3.78584-4.252983,6.220248-3.123781c5.907959-4.549514,12.657753,1.279981,13.592802,7.852245Z" fill="#2f2e41"/><path d="M74.581537,98.357953c-2.400906,15.096716-15.269662-2.776439-21.320467,12.080242-1.902455,5.380215,1.361667,9.229048,3.426364,13.694876.471228,3.670097-4.197298,5.532114-4.686306,8.91042-.136102,7.745131,12.081961,7.271177,15.497618,2.384698c3.509593-5.115306-.681365-11.978329,1.42816-17.468923C71.891832,110.336344,83.949561,110.279711,85,101.411101c-2.034364-2.962764-7.504714-6.356068-10.418463-3.053148Z" fill="#2f2e41"/><path d="M84.642453,100.542311c-.073568.032342-.147135.06466-.212949.101044h-.003876c-.061938.032343-.123904.06466-.185842.101045-.007753.004046-.011605.008093-.019358.012148-.081316-.080846-.162611-.161692-.247804-.242538-.022031.131667-.016753.266734.015478.39609l.011637.048525c.077447.084863.158739.165704.243931.250588.077448-.060634.151011-.125294.22843-.185933.046485-.040406.092945-.080846.143282-.121247.007729-.105092.019354-.226339.030959-.359727l-.003888.000005Zm2.330891-4.494473c-1.726874-.412272-2.284431,1.944102-2.450919,3.079843-.627244-4.122636-3.236902-2.825208-2.334744-.012148.287556.832861.740082,1.593084,1.32806,2.23108.081319.096998.170364.193997.263285.29102-.104546.565837.422048.420339,1.134465-.101045.526058-.390546,1.012566-.836109,1.451963-1.329766c1.42098-1.556068,2.528362-3.637604.60789-4.158984v0Zm.054213,2.319985c-.532772.717143-1.130515,1.379018-1.784939,1.976445-.205224.193996-.414306.379919-.627248.557769-.003876.036364-.003876.068698-.007749.096998-.014945.039265-.033082.077123-.054213.113159-.216825.408225-.460756.185933-.553681-.153565-.007749-.012148-.019354-.024296-.027103-.036389-.309417-.333657-.578578-.705566-.801489-1.107445-1.599109-2.89394.975726-4.862296.84795.541587-.023547.049578-.039237.102812-.046461.157633-.022031.131666-.016753.266734.015478.39609l.011637.048524c.077447.084863.158739.165704.243931.250588.077448-.060634.151011-.125294.22843-.185933.046485-.040406.092945-.080845.143282-.121247.007729-.105091.019354-.226339.030959-.359726v-.004047c.100674-1.083195.3756-3.031344.882821-3.560821c1.115083-.893245,2.559293.072753,1.498395,1.39038v0Zm-2.385104,2.174488c-.073568.032342-.147135.06466-.212949.101044h-.003876c-.061938.032343-.123904.06466-.185842.101045-.007753.004046-.011605.008093-.019358.012148-.081316-.080846-.162611-.161692-.247804-.242538-.022031.131667-.016753.266734.015478.39609l.011637.048525c.077447.084863.158739.165704.243931.250588.077448-.060634.151011-.125294.22843-.185933.046485-.040406.092945-.080846.143282-.121247.007729-.105092.019354-.226339.030959-.359727l-.003888.000005Z" fill="#2f2e41"/></g><path d="M144.315272,146.743774c-1.623567,1.065025-3.285264-1.469834-1.630495-2.487576c1.623491-1.064959,3.285184,1.469908,1.630495,2.487576Z" fill="#e6e6e6"/><circle r="5" transform="translate(135 53)" fill="#e385ac"/><path d="M151.972074,79.524517L179,0L149.321634,78.572562c-.403128.512201-.429805,1.228673-.065897,1.769859s1.034262.781958,1.655935.594767s1.05093-.759068,1.060368-1.412671h.000034Z" opacity="0.3" fill="#f0f0f0"/><path d="M286.205857,148.749637c-14.001372,10.55121-41.860385,7.21792-50.505803,25.291565-26.176045,54.722141-48.570062,13.03706-71.488996,8.52911L164,181.45258c22.943407,1.893375,47.55327-1.044365,71.168836-8.496201C256.510362,166.222855,275.550962,156.205927,290.231191,144L291,144.955319c-1.549947,1.289542-3.147995,2.554315-4.794143,3.794318Z" fill="#f2f2f2"/><g id="ezd4eHw3bEl36" transform="matrix(.996369 0.085137-.085137 0.996369 17.321574-17.172563)"><polygon points="189,282.775138 183.476341,284 176,263.808524 184.152717,262" fill="#ffb6b6"/><path d="M190,288.267759L173.216683,292l-.0483-.207446c-.820733-3.52607,1.438302-7.034861,5.045924-7.83746l.000401-.00009L180.751102,281l6.249197,1.001286l1.465069-.325805L190,288.267759Z" fill="#e385ac"/><polygon points="275.031839,185 278,189.585411 261.381446,203 257,196.231835" fill="#ffb6b6"/><path d="M279.813493,182L289,195.889641l-.182935.111559c-3.109567,1.89599-7.231095,1.012828-9.206093-1.972684l-.000224-.000333-3.682701-1.314639-1.126125-5.956217L274,185.544856L279.813493,182Z" fill="#e385ac"/><path d="M185.030334,182.945533l-4.046808,10.495247L162,230.679784L178.680703,274l8.608875-2.25999-7.09564-41.060218l20.357089-24.598002l24.1759,16.306367c0,0,10.721852,8.324155,14.800812.432911s30.472261-24.675926,30.472261-24.675926l-6.52977-6.926576-30.393425,14.144791L212.099265,176l-27.068931,6.945533Z" fill="#1b1313"/><path d="M205.65625,132.674571l-6.571425-7.112328L187.812231,124L174,133.740741l.139136,10.781729l6.827929,25.406124c0,0-2.600779,18.253097,4.663573,18.070038s11.223927-3.831444,14.182611-3.088754s15.535826,3.903428,16.332886.59266s5.033903-.94021,4.847925-4.07218-11.469756-25.707914-11.469756-25.707914l2.805558-22.57814-6.673612-.469733Z" fill="#e79a43"/><path d="M247.979403,100.686148c.121563,1.190915-.299249,2.373641-1.149204,3.229931s-2.041745,1.298184-3.254682,1.206779L228.143213,134L224,127.742044l15.773844-27.253753c.297667-2.039452,2.098643-3.537531,4.192102-3.487052s3.817689,1.633559,4.013462,3.684909h-.000005Z" fill="#ffb6b6"/><path d="M200.017955,138.438753c0,0-.604224,5.16191,5.197538,6.439831s21.875531-7.921515,24.51061-9.326591c.825137-.43998,1.944811-2.596601,3.093649-5.351637.515761-1.236855,1.037401-2.59432,1.540911-3.971216.291372-.796792,1.686578-1.014265,1.961158-1.804458.273068-.785856-.574381-2.144571-.327108-2.885224C237.168417,118.023914,238,115.23488,238,115.23488L234.154672,108c-5.377975,2.8478-8.136321,9.120608-10.165011,16.347406l-23.971706,14.091347Z" fill="#e79a43"/><path d="M131.052506,106.700091c.184296,1.179937.889002,2.218756,1.924498,2.836937s2.295416.752222,3.440745.366058L158.592469,134L161,126.938993L138.907133,104.4937c-.802898-1.896428-2.916977-2.900823-4.920903-2.337913s-3.26429,2.515197-2.933724,4.544304v0Z" fill="#ffb6b6"/><path d="M187.677216,131.731541c0,0,1.879394,4.804077-3.431676,7.472233s-23.216435-2.167017-26.125967-2.860777c-.911081-.217238-2.538011-2.008868-4.343138-4.367586-.810401-1.05893-1.656719-2.232153-2.490299-3.428532-.482386-.692329-1.891042-.554365-2.35547-1.244537-.461877-.68638.020327-2.201012-.40519-2.850413C146.505733,121.369482,145,118.899291,145,118.899291L146.920088,111c5.933141,1.396861,10.181576,6.73187,13.960752,13.163798l26.796376,7.567743Z" fill="#e79a43"/><circle r="11" transform="translate(193 112)" fill="#ffb6b6"/><path d="M205.843283,105.690331c-1.135226-1.729066-3.265546-2.881433-5.330735-2.557618-.391818-2.644935-2.246104-4.855425-4.810153-5.734172s-5.411741-.279713-7.387124,1.553939c-.648195-.449307-1.487899-.532042-2.213679-.218111-.7108.318187-1.329161.806848-1.798464,1.421237-2.414494,2.964395-2.977715,6.995766-1.465812,10.491857-.252393-.903334.667139-1.753169,1.596228-1.955879s1.903563-.010938,2.845711-.142937c1.20752-.169159,2.292982-.858807,3.502413-1.014017c1.025584-.06567,2.054391.064482,3.029793.383292.975206.318769,2.002501.454587,3.028578.400406c1.017947-.118995,2.329132,3.678866,2.311537,6.353832-.003344.506927.10271,1.157778.605911,1.265325.619685.132476.978772-.709578,1.568599-.939.565011-.159426,1.156767.150377,1.338417.700704.150823.546138.024303,1.130367-.33966,1.56845-.362553.428035-.792949.795608-1.274561,1.088522l.242922.198907c.475578.494742,1.240574.588306,1.824657.223169.556916-.371346,1.007939-.876941,1.310071-1.468585c1.138406-1.733179,1.95224-3.653118,2.402938-5.668847.38029-2.024438.147562-4.221409-.987587-5.950474Z" fill="#2f2e41"/></g><circle r="4.5" transform="translate(124.5 170.5)" fill="#f2f2f2"/></g></g></g>
<script><![CDATA[
!function(t,n){"object"==typeof exports&&"undefined"!=typeof module?module.exports=n():"function"==typeof __SVGATOR_DEFINE__&&__SVGATOR_DEFINE__.amd?__SVGATOR_DEFINE__(n):((t="undefined"!=typeof globalThis?globalThis:t||self).__SVGATOR_PLAYER__=t.__SVGATOR_PLAYER__||{},t.__SVGATOR_PLAYER__["5c7f360c"]=n())}(this,(function(){"use strict";function t(t,n){var e=Object.keys(t);if(Object.getOwnPropertySymbols){var r=Object.getOwnPropertySymbols(t);n&&(r=r.filter((function(n){return Object.getOwnPropertyDescriptor(t,n).enumerable}))),e.push.apply(e,r)}return e}function n(n){for(var e=1;e<arguments.length;e++){var r=null!=arguments[e]?arguments[e]:{};e%2?t(Object(r),!0).forEach((function(t){o(n,t,r[t])})):Object.getOwnPropertyDescriptors?Object.defineProperties(n,Object.getOwnPropertyDescriptors(r)):t(Object(r)).forEach((function(t){Object.defineProperty(n,t,Object.getOwnPropertyDescriptor(r,t))}))}return n}function e(t){return(e="function"==typeof Symbol&&"symbol"==typeof Symbol.iterator?function(t){return typeof t}:function(t){return t&&"function"==typeof Symbol&&t.constructor===Symbol&&t!==Symbol.prototype?"symbol":typeof t})(t)}function r(t,n){if(!(t instanceof n))throw new TypeError("Cannot call a class as a function")}function i(t,n){for(var e=0;e<n.length;e++){var r=n[e];r.enumerable=r.enumerable||!1,r.configurable=!0,"value"in r&&(r.writable=!0),Object.defineProperty(t,r.key,r)}}function u(t,n,e){return n&&i(t.prototype,n),e&&i(t,e),t}function o(t,n,e){return n in t?Object.defineProperty(t,n,{value:e,enumerable:!0,configurable:!0,writable:!0}):t[n]=e,t}function a(t){return(a=Object.setPrototypeOf?Object.getPrototypeOf:function(t){return t.__proto__||Object.getPrototypeOf(t)})(t)}function l(t,n){return(l=Object.setPrototypeOf||function(t,n){return t.__proto__=n,t})(t,n)}function s(){if("undefined"==typeof Reflect||!Reflect.construct)return!1;if(Reflect.construct.sham)return!1;if("function"==typeof Proxy)return!0;try{return Boolean.prototype.valueOf.call(Reflect.construct(Boolean,[],(function(){}))),!0}catch(t){return!1}}function f(t,n,e){return(f=s()?Reflect.construct:function(t,n,e){var r=[null];r.push.apply(r,n);var i=new(Function.bind.apply(t,r));return e&&l(i,e.prototype),i}).apply(null,arguments)}function c(t,n){if(n&&("object"==typeof n||"function"==typeof n))return n;if(void 0!==n)throw new TypeError("Derived constructors may only return object or undefined");return function(t){if(void 0===t)throw new ReferenceError("this hasn't been initialised - super() hasn't been called");return t}(t)}function h(t,n,e){return(h="undefined"!=typeof Reflect&&Reflect.get?Reflect.get:function(t,n,e){var r=function(t,n){for(;!Object.prototype.hasOwnProperty.call(t,n)&&null!==(t=a(t)););return t}(t,n);if(r){var i=Object.getOwnPropertyDescriptor(r,n);return i.get?i.get.call(e):i.value}})(t,n,e||t)}function v(t){return function(t){if(Array.isArray(t))return y(t)}(t)||function(t){if("undefined"!=typeof Symbol&&null!=t[Symbol.iterator]||null!=t["@@iterator"])return Array.from(t)}(t)||function(t,n){if(!t)return;if("string"==typeof t)return y(t,n);var e=Object.prototype.toString.call(t).slice(8,-1);"Object"===e&&t.constructor&&(e=t.constructor.name);if("Map"===e||"Set"===e)return Array.from(t);if("Arguments"===e||/^(?:Ui|I)nt(?:8|16|32)(?:Clamped)?Array$/.test(e))return y(t,n)}(t)||function(){throw new TypeError("Invalid attempt to spread non-iterable instance.\nIn order to be iterable, non-array objects must have a [Symbol.iterator]() method.")}()}function y(t,n){(null==n||n>t.length)&&(n=t.length);for(var e=0,r=new Array(n);e<n;e++)r[e]=t[e];return r}Number.isInteger||(Number.isInteger=function(t){return"number"==typeof t&&isFinite(t)&&Math.floor(t)===t}),Number.EPSILON||(Number.EPSILON=2220446049250313e-31);var g=d(Math.pow(10,-6));function d(t){var n=arguments.length>1&&void 0!==arguments[1]?arguments[1]:6;if(Number.isInteger(t))return t;var e=Math.pow(10,n);return Math.round((+t+Number.EPSILON)*e)/e}function p(t,n){var e=arguments.length>2&&void 0!==arguments[2]?arguments[2]:g;return Math.abs(t-n)<e}var m=Math.PI/180;function b(t){return t}function w(t,n,e){var r=1-e;return 3*e*r*(t*r+n*e)+e*e*e}function A(){var t=arguments.length>0&&void 0!==arguments[0]?arguments[0]:0,n=arguments.length>1&&void 0!==arguments[1]?arguments[1]:0,e=arguments.length>2&&void 0!==arguments[2]?arguments[2]:1,r=arguments.length>3&&void 0!==arguments[3]?arguments[3]:1;return t<0||t>1||e<0||e>1?null:p(t,n)&&p(e,r)?b:function(i){if(i<=0)return t>0?i*n/t:0===n&&e>0?i*r/e:0;if(i>=1)return e<1?1+(i-1)*(r-1)/(e-1):1===e&&t<1?1+(i-1)*(n-1)/(t-1):1;for(var u,o=0,a=1;o<a;){var l=w(t,e,u=(o+a)/2);if(p(i,l))break;l<i?o=u:a=u}return w(n,r,u)}}function _(){return 1}function x(t){return 1===t?1:0}function k(){var t=arguments.length>0&&void 0!==arguments[0]?arguments[0]:1,n=arguments.length>1&&void 0!==arguments[1]?arguments[1]:0;if(1===t){if(0===n)return x;if(1===n)return _}var e=1/t;return function(t){return t>=1?1:(t+=n*e)-t%e}}var S=Math.sin,O=Math.cos,j=Math.acos,E=Math.asin,M=Math.tan,P=Math.atan2,I=Math.PI/180,R=180/Math.PI,F=Math.sqrt,N=function(){function t(){var n=arguments.length>0&&void 0!==arguments[0]?arguments[0]:1,e=arguments.length>1&&void 0!==arguments[1]?arguments[1]:0,i=arguments.length>2&&void 0!==arguments[2]?arguments[2]:0,u=arguments.length>3&&void 0!==arguments[3]?arguments[3]:1,o=arguments.length>4&&void 0!==arguments[4]?arguments[4]:0,a=arguments.length>5&&void 0!==arguments[5]?arguments[5]:0;r(this,t),this.m=[n,e,i,u,o,a],this.i=null,this.w=null,this.s=null}return u(t,[{key:"determinant",get:function(){var t=this.m;return t[0]*t[3]-t[1]*t[2]}},{key:"isIdentity",get:function(){if(null===this.i){var t=this.m;this.i=1===t[0]&&0===t[1]&&0===t[2]&&1===t[3]&&0===t[4]&&0===t[5]}return this.i}},{key:"point",value:function(t,n){var e=this.m;return{x:e[0]*t+e[2]*n+e[4],y:e[1]*t+e[3]*n+e[5]}}},{key:"translateSelf",value:function(){var t=arguments.length>0&&void 0!==arguments[0]?arguments[0]:0,n=arguments.length>1&&void 0!==arguments[1]?arguments[1]:0;if(!t&&!n)return this;var e=this.m;return e[4]+=e[0]*t+e[2]*n,e[5]+=e[1]*t+e[3]*n,this.w=this.s=this.i=null,this}},{key:"rotateSelf",value:function(){var t=arguments.length>0&&void 0!==arguments[0]?arguments[0]:0;if(t%=360){var n=S(t*=I),e=O(t),r=this.m,i=r[0],u=r[1];r[0]=i*e+r[2]*n,r[1]=u*e+r[3]*n,r[2]=r[2]*e-i*n,r[3]=r[3]*e-u*n,this.w=this.s=this.i=null}return this}},{key:"scaleSelf",value:function(){var t=arguments.length>0&&void 0!==arguments[0]?arguments[0]:1,n=arguments.length>1&&void 0!==arguments[1]?arguments[1]:1;if(1!==t||1!==n){var e=this.m;e[0]*=t,e[1]*=t,e[2]*=n,e[3]*=n,this.w=this.s=this.i=null}return this}},{key:"skewSelf",value:function(t,n){if(n%=360,(t%=360)||n){var e=this.m,r=e[0],i=e[1],u=e[2],o=e[3];t&&(t=M(t*I),e[2]+=r*t,e[3]+=i*t),n&&(n=M(n*I),e[0]+=u*n,e[1]+=o*n),this.w=this.s=this.i=null}return this}},{key:"resetSelf",value:function(){var t=arguments.length>0&&void 0!==arguments[0]?arguments[0]:1,n=arguments.length>1&&void 0!==arguments[1]?arguments[1]:0,e=arguments.length>2&&void 0!==arguments[2]?arguments[2]:0,r=arguments.length>3&&void 0!==arguments[3]?arguments[3]:1,i=arguments.length>4&&void 0!==arguments[4]?arguments[4]:0,u=arguments.length>5&&void 0!==arguments[5]?arguments[5]:0,o=this.m;return o[0]=t,o[1]=n,o[2]=e,o[3]=r,o[4]=i,o[5]=u,this.w=this.s=this.i=null,this}},{key:"recomposeSelf",value:function(){var t=arguments.length>0&&void 0!==arguments[0]?arguments[0]:null,n=arguments.length>1&&void 0!==arguments[1]?arguments[1]:null,e=arguments.length>2&&void 0!==arguments[2]?arguments[2]:null,r=arguments.length>3&&void 0!==arguments[3]?arguments[3]:null,i=arguments.length>4&&void 0!==arguments[4]?arguments[4]:null;return this.isIdentity||this.resetSelf(),t&&(t.x||t.y)&&this.translateSelf(t.x,t.y),n&&this.rotateSelf(n),e&&(e.x&&this.skewSelf(e.x,0),e.y&&this.skewSelf(0,e.y)),!r||1===r.x&&1===r.y||this.scaleSelf(r.x,r.y),i&&(i.x||i.y)&&this.translateSelf(i.x,i.y),this}},{key:"decompose",value:function(){var t=arguments.length>0&&void 0!==arguments[0]?arguments[0]:0,n=arguments.length>1&&void 0!==arguments[1]?arguments[1]:0,e=this.m,r=e[0]*e[0]+e[1]*e[1],i=[[e[0],e[1]],[e[2],e[3]]],u=F(r);if(0===u)return{origin:{x:d(e[4]),y:d(e[5])},translate:{x:d(t),y:d(n)},scale:{x:0,y:0},skew:{x:0,y:0},rotate:0};i[0][0]/=u,i[0][1]/=u;var o=e[0]*e[3]-e[1]*e[2]<0;o&&(u=-u);var a=i[0][0]*i[1][0]+i[0][1]*i[1][1];i[1][0]-=i[0][0]*a,i[1][1]-=i[0][1]*a;var l=F(i[1][0]*i[1][0]+i[1][1]*i[1][1]);if(0===l)return{origin:{x:d(e[4]),y:d(e[5])},translate:{x:d(t),y:d(n)},scale:{x:d(u),y:0},skew:{x:0,y:0},rotate:0};i[1][0]/=l,i[1][1]/=l,a/=l;var s=0;return i[1][1]<0?(s=j(i[1][1])*R,i[0][1]<0&&(s=360-s)):s=E(i[0][1])*R,o&&(s=-s),a=P(a,F(i[0][0]*i[0][0]+i[0][1]*i[0][1]))*R,o&&(a=-a),{origin:{x:d(e[4]),y:d(e[5])},translate:{x:d(t),y:d(n)},scale:{x:d(u),y:d(l)},skew:{x:d(a),y:0},rotate:d(s)}}},{key:"clone",value:function(){var t=this.m;return new this.constructor(t[0],t[1],t[2],t[3],t[4],t[5])}},{key:"toString",value:function(){var t=arguments.length>0&&void 0!==arguments[0]?arguments[0]:" ";if(null===this.s){var n=this.m.map((function(t){return d(t)}));1===n[0]&&0===n[1]&&0===n[2]&&1===n[3]?this.s="translate("+n[4]+t+n[5]+")":this.s="matrix("+n.join(t)+")"}return this.s}}],[{key:"create",value:function(t){return t?Array.isArray(t)?f(this,v(t)):t instanceof this?t.clone():(new this).recomposeSelf(t.origin,t.rotate,t.skew,t.scale,t.translate):new this}}]),t}();function T(t,n,e){return t>=.5?e:n}function B(t,n,e){return 0===t||n===e?n:t*(e-n)+n}function q(t,n,e){var r=B(t,n,e);return r<=0?0:r}function D(t,n,e){var r=B(t,n,e);return r<=0?0:r>=1?1:r}function L(t,n,e){return 0===t?n:1===t?e:{x:B(t,n.x,e.x),y:B(t,n.y,e.y)}}function C(t,n,e){var r=function(t,n,e){return Math.round(B(t,n,e))}(t,n,e);return r<=0?0:r>=255?255:r}function V(t,n,e){return 0===t?n:1===t?e:{r:C(t,n.r,e.r),g:C(t,n.g,e.g),b:C(t,n.b,e.b),a:B(t,null==n.a?1:n.a,null==e.a?1:e.a)}}function G(t,n){for(var e=[],r=0;r<t;r++)e.push(n);return e}function z(t,n){if(--n<=0)return t;var e=(t=Object.assign([],t)).length;do{for(var r=0;r<e;r++)t.push(t[r])}while(--n>0);return t}var Y,$=function(){function t(n){r(this,t),this.list=n,this.length=n.length}return u(t,[{key:"setAttribute",value:function(t,n){for(var e=this.list,r=0;r<this.length;r++)e[r].setAttribute(t,n)}},{key:"removeAttribute",value:function(t){for(var n=this.list,e=0;e<this.length;e++)n[e].removeAttribute(t)}},{key:"style",value:function(t,n){for(var e=this.list,r=0;r<this.length;r++)e[r].style[t]=n}}]),t}(),U=/-./g,Q=function(t,n){return n.toUpperCase()};function H(t){return"function"==typeof t?t:T}function J(t){return t?"function"==typeof t?t:Array.isArray(t)?function(t){var n=arguments.length>1&&void 0!==arguments[1]?arguments[1]:b;if(!Array.isArray(t))return n;switch(t.length){case 1:return k(t[0])||n;case 2:return k(t[0],t[1])||n;case 4:return A(t[0],t[1],t[2],t[3])||n}return n}(t,null):function(t,n){var e=arguments.length>2&&void 0!==arguments[2]?arguments[2]:b;switch(t){case"linear":return b;case"steps":return k(n.steps||1,n.jump||0)||e;case"bezier":case"cubic-bezier":return A(n.x1||0,n.y1||0,n.x2||0,n.y2||0)||e}return e}(t.type,t.value,null):null}function Z(t,n,e){var r=arguments.length>3&&void 0!==arguments[3]&&arguments[3],i=n.length-1;if(t<=n[0].t)return r?[0,0,n[0].v]:n[0].v;if(t>=n[i].t)return r?[i,1,n[i].v]:n[i].v;var u,o=n[0],a=null;for(u=1;u<=i;u++){if(!(t>n[u].t)){a=n[u];break}o=n[u]}return null==a?r?[i,1,n[i].v]:n[i].v:o.t===a.t?r?[u,1,a.v]:a.v:(t=(t-o.t)/(a.t-o.t),o.e&&(t=o.e(t)),r?[u,t,e(t,o.v,a.v)]:e(t,o.v,a.v))}function K(t,n){var e=arguments.length>2&&void 0!==arguments[2]?arguments[2]:null;return t&&t.length?"function"!=typeof n?null:("function"!=typeof e&&(e=null),function(r){var i=Z(r,t,n);return null!=i&&e&&(i=e(i)),i}):null}function W(t,n){return t.t-n.t}function X(t,n,r,i,u){var o,a="@"===r[0],l="#"===r[0],s=Y[r],f=T;switch(a?(o=r.substr(1),r=o.replace(U,Q)):l&&(r=r.substr(1)),e(s)){case"function":if(f=s(i,u,Z,J,r,a,n,t),l)return f;break;case"string":f=K(i,H(s));break;case"object":if((f=K(i,H(s.i),s.f))&&"function"==typeof s.u)return s.u(n,f,r,a,t)}return f?function(t,n,e){if(arguments.length>3&&void 0!==arguments[3]&&arguments[3])return t instanceof $?function(r){return t.style(n,e(r))}:function(r){return t.style[n]=e(r)};if(Array.isArray(n)){var r=n.length;return function(i){var u=e(i);if(null==u)for(var o=0;o<r;o++)t[o].removeAttribute(n);else for(var a=0;a<r;a++)t[a].setAttribute(n,u)}}return function(r){var i=e(r);null==i?t.removeAttribute(n):t.setAttribute(n,i)}}(n,r,f,a):null}function tt(t,n,r,i){if(!i||"object"!==e(i))return null;var u=null,o=null;return Array.isArray(i)?o=function(t){if(!t||!t.length)return null;for(var n=0;n<t.length;n++)t[n].e&&(t[n].e=J(t[n].e));return t.sort(W)}(i):(o=i.keys,u=i.data||null),o?X(t,n,r,o,u):null}function nt(t,n,e){if(!e)return null;var r=[];for(var i in e)if(e.hasOwnProperty(i)){var u=tt(t,n,i,e[i]);u&&r.push(u)}return r.length?r:null}function et(t,n){if(!n.settings.duration||n.settings.duration<0)return null;var e,r,i,u,o,a=function(t,n){if(!n)return null;var e=[];if(Array.isArray(n))for(var r=n.length,i=0;i<r;i++){var u=n[i];if(2===u.length){var o=null;if("string"==typeof u[0])o=t.getElementById(u[0]);else if(Array.isArray(u[0])){o=[];for(var a=0;a<u[0].length;a++)if("string"==typeof u[0][a]){var l=t.getElementById(u[0][a]);l&&o.push(l)}o=o.length?1===o.length?o[0]:new $(o):null}if(o){var s=nt(t,o,u[1]);s&&(e=e.concat(s))}}}else for(var f in n)if(n.hasOwnProperty(f)){var c=t.getElementById(f);if(c){var h=nt(t,c,n[f]);h&&(e=e.concat(h))}}return e.length?e:null}(t,n.elements);return a?(e=a,r=n.settings,i=r.duration,u=e.length,o=null,function(t,n){var a=r.iterations||1/0,l=(r.alternate&&a%2==0)^r.direction>0?i:0,s=t%i,f=1+(t-s)/i;n*=r.direction,r.alternate&&f%2==0&&(n=-n);var c=!1;if(f>a)s=l,c=!0,-1===r.fill&&(s=r.direction>0?0:i);else if(n<0&&(s=i-s),s===o)return!1;o=s;for(var h=0;h<u;h++)e[h](s);return c}):null}function rt(t,n){if(Y=n,!t||!t.root||!Array.isArray(t.animations))return null;var e=function(t){for(var n=document.getElementsByTagName("svg"),e=0;e<n.length;e++)if(n[e].id===t.root&&!n[e].svgatorAnimation)return n[e].svgatorAnimation=!0,n[e];return null}(t);if(!e)return null;var r=t.animations.map((function(t){return et(e,t)})).filter((function(t){return!!t}));return r.length?{svg:e,animations:r,animationSettings:t.animationSettings,options:t.options||void 0}:null}function it(t){var n=arguments.length>1&&void 0!==arguments[1]?arguments[1]:null,e=arguments.length>2&&void 0!==arguments[2]?arguments[2]:Number,r=arguments.length>3&&void 0!==arguments[3]?arguments[3]:"undefined"!=typeof BigInt&&BigInt,i="0x"+(t.replace(/[^0-9a-fA-F]+/g,"")||27);return n&&r&&e.isSafeInteger&&!e.isSafeInteger(+i)?e(r(i))%n+n:+i}function ut(t,n,e){return!t||!e||n>t.length?t:t.substring(0,n)+ut(t.substring(n+1),e,e)}function ot(t){var n=arguments.length>1&&void 0!==arguments[1]?arguments[1]:27;return!t||t%n?t%n:[0,1].includes(n)?n:ot(t/n,n)}function at(t,n,e){if(t&&t.length){var r=it(e),i=ot(r)+5,u=ut(t,ot(r,5),i);return u=u.replace(/\x7c$/g,"==").replace(/\x2f$/g,"="),u=function(t,n,e){var r=+("0x"+t.substring(0,4));t=t.substring(4);for(var i=it(n,r)%r+e%27,u=[],o=0;o<t.length;o+=2)if("|"!==t[o]){var a=+("0x"+t[o]+t[o+1])-i;u.push(a)}else{var l=+("0x"+t.substring(o+1,o+1+4))-i;o+=3,u.push(l)}return String.fromCharCode.apply(String,u)}(u=(u=atob(u)).replace(/[\x41-\x5A]/g,""),n,r),u=JSON.parse(u)}}var lt=[{key:"alternate",def:!1},{key:"fill",def:1},{key:"iterations",def:0},{key:"direction",def:1},{key:"speed",def:1},{key:"fps",def:100}],st=function(){function t(n,e){var i=this,u=arguments.length>2&&void 0!==arguments[2]?arguments[2]:null;r(this,t),this._id=0,this._running=!1,this._rollingBack=!1,this._animations=n,this._settings=e,(!u||u<"2022-05-02")&&delete this._settings.speed,lt.forEach((function(t){i._settings[t.key]=i._settings[t.key]||t.def})),this.duration=e.duration,this.offset=e.offset||0,this.rollbackStartOffset=0}return u(t,[{key:"alternate",get:function(){return this._settings.alternate}},{key:"fill",get:function(){return this._settings.fill}},{key:"iterations",get:function(){return this._settings.iterations}},{key:"direction",get:function(){return this._settings.direction}},{key:"speed",get:function(){return this._settings.speed}},{key:"fps",get:function(){return this._settings.fps}},{key:"maxFiniteDuration",get:function(){return this.iterations>0?this.iterations*this.duration:this.duration}},{key:"_apply",value:function(t){for(var n=arguments.length>1&&void 0!==arguments[1]?arguments[1]:{},e=this._animations,r=e.length,i=0,u=0;u<r;u++)n[u]?i++:(n[u]=e[u](t,1),n[u]&&i++);return i}},{key:"_rollback",value:function(t){var n=this,e=1/0,r=null;this.rollbackStartOffset=t,this._rollingBack=!0,this._running=!0;this._id=window.requestAnimationFrame((function i(u){if(n._rollingBack){null==r&&(r=u);var o=Math.round(t-(u-r)*n.speed);if(o>n.duration&&e!==1/0){var a=!!n.alternate&&o/n.duration%2>1,l=o%n.duration;o=(l+=a?n.duration:0)||n.duration}var s=(n.fps?1e3/n.fps:0)*n.speed,f=Math.max(0,o);f<=e-s&&(n.offset=f,e=f,n._apply(f));var c=n.iterations>0&&-1===n.fill&&o>=n.maxFiniteDuration;(o<=0||n.offset<o||c)&&n.stop(),n._id=window.requestAnimationFrame(i)}}))}},{key:"_start",value:function(){var t=this,n=arguments.length>0&&void 0!==arguments[0]?arguments[0]:0,e=-1/0,r=null,i={};this._running=!0;var u=function u(o){null==r&&(r=o);var a=Math.round((o-r)*t.speed+n),l=(t.fps?1e3/t.fps:0)*t.speed;if(a>=e+l&&!t._rollingBack&&(t.offset=a,e=a,t._apply(a,i)===t._animations.length))return void t.pause(!0);t._id=window.requestAnimationFrame(u)};this._id=window.requestAnimationFrame(u)}},{key:"_pause",value:function(){this._id&&window.cancelAnimationFrame(this._id),this._running=!1}},{key:"play",value:function(){if(!this._running)return this._rollingBack?this._rollback(this.offset):this._start(this.offset)}},{key:"stop",value:function(){this._pause(),this.offset=0,this.rollbackStartOffset=0,this._rollingBack=!1,this._apply(0)}},{key:"reachedToEnd",value:function(){return this.iterations>0&&this.offset>=this.iterations*this.duration}},{key:"restart",value:function(){var t=arguments.length>0&&void 0!==arguments[0]&&arguments[0];this.stop(t),this.play(t)}},{key:"pause",value:function(){this._pause()}},{key:"reverse",value:function(){this.direction=-this.direction}}],[{key:"build",value:function(t,n){delete t.animationSettings,t.options=at(t.options,t.root,"5c7f360c"),t.animations.map((function(n){n.settings=at(n.s,t.root,"5c7f360c"),delete n.s,t.animationSettings||(t.animationSettings=n.settings)}));var e=t.version;if(!(t=rt(t,n)))return null;var r=t.options||{},i=new this(t.animations,t.animationSettings,e);return{el:t.svg,options:r,player:i}}},{key:"push",value:function(t){return this.build(t)}},{key:"init",value:function(){var t=this,n=window.__SVGATOR_PLAYER__&&window.__SVGATOR_PLAYER__["5c7f360c"];Array.isArray(n)&&n.splice(0).forEach((function(n){return t.build(n)}))}}]),t}();function ft(t){return d(t)+""}function ct(t){var n=arguments.length>1&&void 0!==arguments[1]?arguments[1]:" ";return t&&t.length?t.map(ft).join(n):""}function ht(t){if(!t)return"transparent";if(null==t.a||t.a>=1){var n=function(t){return 1===(t=parseInt(t).toString(16)).length?"0"+t:t},e=function(t){return t.charAt(0)===t.charAt(1)},r=n(t.r),i=n(t.g),u=n(t.b);return e(r)&&e(i)&&e(u)&&(r=r.charAt(0),i=i.charAt(0),u=u.charAt(0)),"#"+r+i+u}return"rgba("+t.r+","+t.g+","+t.b+","+t.a+")"}function vt(t){return t?"url(#"+t+")":"none"}!function(){for(var t=0,n=["ms","moz","webkit","o"],e=0;e<n.length&&!window.requestAnimationFrame;++e)window.requestAnimationFrame=window[n[e]+"RequestAnimationFrame"],window.cancelAnimationFrame=window[n[e]+"CancelAnimationFrame"]||window[n[e]+"CancelRequestAnimationFrame"];window.requestAnimationFrame||(window.requestAnimationFrame=function(n){var e=Date.now(),r=Math.max(0,16-(e-t)),i=window.setTimeout((function(){n(e+r)}),r);return t=e+r,i},window.cancelAnimationFrame=window.clearTimeout)}();var yt={f:null,i:function(t,n,e){return 0===t?n:1===t?e:{x:q(t,n.x,e.x),y:q(t,n.y,e.y)}},u:function(t,n){return function(e){var r=n(e);t.setAttribute("rx",ft(r.x)),t.setAttribute("ry",ft(r.y))}}},gt={f:null,i:function(t,n,e){return 0===t?n:1===t?e:{width:q(t,n.width,e.width),height:q(t,n.height,e.height)}},u:function(t,n){return function(e){var r=n(e);t.setAttribute("width",ft(r.width)),t.setAttribute("height",ft(r.height))}}};Object.freeze({M:2,L:2,Z:0,H:1,V:1,C:6,Q:4,T:2,S:4,A:7});var dt={},pt=null;function mt(t){var n=function(){if(pt)return pt;if("object"!==("undefined"==typeof document?"undefined":e(document))||!document.createElementNS)return{};var t=document.createElementNS("http://www.w3.org/2000/svg","svg");return t&&t.style?(t.style.position="absolute",t.style.opacity="0.01",t.style.zIndex="-9999",t.style.left="-9999px",t.style.width="1px",t.style.height="1px",pt={svg:t}):{}}().svg;if(!n)return function(t){return null};var r=document.createElementNS(n.namespaceURI,"path");r.setAttributeNS(null,"d",t),r.setAttributeNS(null,"fill","none"),r.setAttributeNS(null,"stroke","none"),n.appendChild(r);var i=r.getTotalLength();return function(t){var n=r.getPointAtLength(i*t);return{x:n.x,y:n.y}}}function bt(t){return dt[t]?dt[t]:dt[t]=mt(t)}function wt(t,n,e,r){if(!t||!r)return!1;var i=["M",t.x,t.y];if(n&&e&&(i.push("C"),i.push(n.x),i.push(n.y),i.push(e.x),i.push(e.y)),n?!e:e){var u=n||e;i.push("Q"),i.push(u.x),i.push(u.y)}return n||e||i.push("L"),i.push(r.x),i.push(r.y),i.join(" ")}function At(t,n,e,r){var i=arguments.length>4&&void 0!==arguments[4]?arguments[4]:1,u=wt(t,n,e,r),o=bt(u);try{return o(i)}catch(t){return null}}function _t(t,n,e){return t+(n-t)*e}function xt(t,n,e){var r=arguments.length>3&&void 0!==arguments[3]&&arguments[3],i={x:_t(t.x,n.x,e),y:_t(t.y,n.y,e)};return r&&(i.a=kt(t,n)),i}function kt(t,n){return Math.atan2(n.y-t.y,n.x-t.x)}function St(t,n,e,r){var i=1-r;return i*i*t+2*i*r*n+r*r*e}function Ot(t,n,e,r){return 2*(1-r)*(n-t)+2*r*(e-n)}function jt(t,n,e,r){var i=arguments.length>4&&void 0!==arguments[4]&&arguments[4],u=At(t,n,null,e,r);return u||(u={x:St(t.x,n.x,e.x,r),y:St(t.y,n.y,e.y,r)}),i&&(u.a=Et(t,n,e,r)),u}function Et(t,n,e,r){return Math.atan2(Ot(t.y,n.y,e.y,r),Ot(t.x,n.x,e.x,r))}function Mt(t,n,e,r,i){var u=i*i;return i*u*(r-t+3*(n-e))+3*u*(t+e-2*n)+3*i*(n-t)+t}function Pt(t,n,e,r,i){var u=1-i;return 3*(u*u*(n-t)+2*u*i*(e-n)+i*i*(r-e))}function It(t,n,e,r,i){var u=arguments.length>5&&void 0!==arguments[5]&&arguments[5],o=At(t,n,e,r,i);return o||(o={x:Mt(t.x,n.x,e.x,r.x,i),y:Mt(t.y,n.y,e.y,r.y,i)}),u&&(o.a=Rt(t,n,e,r,i)),o}function Rt(t,n,e,r,i){return Math.atan2(Pt(t.y,n.y,e.y,r.y,i),Pt(t.x,n.x,e.x,r.x,i))}function Ft(t,n,e){var r=arguments.length>3&&void 0!==arguments[3]&&arguments[3];if(Tt(n)){if(Bt(e))return jt(n,e.start,e,t,r)}else if(Tt(e)){if(qt(n))return jt(n,n.end,e,t,r)}else{if(qt(n))return Bt(e)?It(n,n.end,e.start,e,t,r):jt(n,n.end,e,t,r);if(Bt(e))return jt(n,e.start,e,t,r)}return xt(n,e,t,r)}function Nt(t,n,e){var r=Ft(t,n,e,!0);return r.a=function(t){return arguments.length>1&&void 0!==arguments[1]&&arguments[1]?t+Math.PI:t}(r.a)/m,r}function Tt(t){return!t.type||"corner"===t.type}function Bt(t){return null!=t.start&&!Tt(t)}function qt(t){return null!=t.end&&!Tt(t)}var Dt=new N;var Lt={f:ft,i:B},Ct={f:ft,i:D};function Vt(t,n,e){return t.map((function(t){return function(t,n,e){var r=t.v;if(!r||"g"!==r.t||r.s||!r.v||!r.r)return t;var i=e.getElementById(r.r),u=i&&i.querySelectorAll("stop")||[];return r.s=r.v.map((function(t,n){var e=u[n]&&u[n].getAttribute("offset");return{c:t,o:e=d(parseInt(e)/100)}})),delete r.v,t}(t,0,e)}))}var Gt={gt:"gradientTransform",c:{x:"cx",y:"cy"},rd:"r",f:{x:"x1",y:"y1"},to:{x:"x2",y:"y2"}};function zt(t,n,r,i,u,o,a,l){return Vt(t,0,l),n=function(t,n,e){for(var r,i,u,o=t.length-1,a={},l=0;l<=o;l++)(r=t[l]).e&&(r.e=n(r.e)),r.v&&"g"===(i=r.v).t&&i.r&&(u=e.getElementById(i.r))&&(a[i.r]={e:u,s:u.querySelectorAll("stop")});return a}(t,i,l),function(i){var u=r(i,t,Yt);if(!u)return"none";if("c"===u.t)return ht(u.v);if("g"===u.t){if(!n[u.r])return vt(u.r);var o=n[u.r];return function(t,n){for(var e=t.s,r=e.length;r<n.length;r++){var i=e[e.length-1].cloneNode();i.id=Qt(i.id),t.e.appendChild(i),e=t.s=t.e.querySelectorAll("stop")}for(var u=0,o=e.length,a=n.length-1;u<o;u++)e[u].setAttribute("stop-color",ht(n[Math.min(u,a)].c)),e[u].setAttribute("offset",n[Math.min(u,a)].o)}(o,u.s),Object.keys(Gt).forEach((function(t){if(void 0!==u[t])if("object"!==e(Gt[t])){var n,r="gt"===t?(n=u[t],Array.isArray(n)?"matrix("+n.join(" ")+")":""):u[t],i=Gt[t];o.e.setAttribute(i,r)}else Object.keys(Gt[t]).forEach((function(n){if(void 0!==u[t][n]){var e=u[t][n],r=Gt[t][n];o.e.setAttribute(r,e)}}))})),vt(u.r)}return"none"}}function Yt(t,e,r){if(0===t)return e;if(1===t)return r;if(e&&r){var i=e.t;if(i===r.t)switch(e.t){case"c":return{t:i,v:V(t,e.v,r.v)};case"g":if(e.r===r.r){var u={t:i,s:$t(t,e.s,r.s),r:e.r};return e.gt&&r.gt&&(u.gt=function(t,n,e){var r=n.length;if(r!==e.length)return T(t,n,e);for(var i=new Array(r),u=0;u<r;u++)i[u]=B(t,n[u],e[u]);return i}(t,e.gt,r.gt)),e.c?(u.c=L(t,e.c,r.c),u.rd=q(t,e.rd,r.rd)):e.f&&(u.f=L(t,e.f,r.f),u.to=L(t,e.to,r.to)),u}}if("c"===e.t&&"g"===r.t||"c"===r.t&&"g"===e.t){var o="c"===e.t?e:r,a="g"===e.t?n({},e):n({},r),l=a.s.map((function(t){return{c:o.v,o:t.o}}));return a.s="c"===e.t?$t(t,l,a.s):$t(t,a.s,l),a}}return T(t,e,r)}function $t(t,n,e){if(n.length===e.length)return n.map((function(n,r){return Ut(t,n,e[r])}));for(var r=Math.max(n.length,e.length),i=[],u=0;u<r;u++){var o=Ut(t,n[Math.min(u,n.length-1)],e[Math.min(u,e.length-1)]);i.push(o)}return i}function Ut(t,n,e){return{o:D(t,n.o,e.o||0),c:V(t,n.c,e.c||{})}}function Qt(t){return t.replace(/-fill-([0-9]+)$/,(function(t,n){return"-fill-"+(+n+1)}))}var Ht={fill:zt,"fill-opacity":Ct,stroke:zt,"stroke-opacity":Ct,"stroke-width":Lt,"stroke-dashoffset":{f:ft,i:B},"stroke-dasharray":{f:function(t){var n=arguments.length>1&&void 0!==arguments[1]?arguments[1]:" ";return t&&t.length>0&&(t=t.map((function(t){return d(t,4)}))),ct(t,n)},i:function(t,n,e){var r,i,u,o=n.length,a=e.length;if(o!==a)if(0===o)n=G(o=a,0);else if(0===a)a=o,e=G(o,0);else{var l=(u=(r=o)*(i=a)/function(t,n){for(var e;n;)e=n,n=t%n,t=e;return t||1}(r,i))<0?-u:u;n=z(n,Math.floor(l/o)),e=z(e,Math.floor(l/a)),o=a=l}for(var s=[],f=0;f<o;f++)s.push(d(q(t,n[f],e[f])));return s}},opacity:Ct,transform:function(t,n,r,i){if(!(t=function(t,n){if(!t||"object"!==e(t))return null;var r=!1;for(var i in t)t.hasOwnProperty(i)&&(t[i]&&t[i].length?(t[i].forEach((function(t){t.e&&(t.e=n(t.e))})),r=!0):delete t[i]);return r?t:null}(t,i)))return null;var u=function(e,i,u){var o=arguments.length>3&&void 0!==arguments[3]?arguments[3]:null;return t[e]?r(i,t[e],u):n&&n[e]?n[e]:o};return n&&n.a&&t.o?function(n){var e=r(n,t.o,Nt);return Dt.recomposeSelf(e,u("r",n,B,0)+e.a,u("k",n,L),u("s",n,L),u("t",n,L)).toString()}:function(t){return Dt.recomposeSelf(u("o",t,Ft,null),u("r",t,B,0),u("k",t,L),u("s",t,L),u("t",t,L)).toString()}},r:Lt,"#size":gt,"#radius":yt,_:function(t,n){if(Array.isArray(t))for(var e=0;e<t.length;e++)this[t[e]]=n;else this[t]=n}},Jt=function(t){!function(t,n){if("function"!=typeof n&&null!==n)throw new TypeError("Super expression must either be null or a function");t.prototype=Object.create(n&&n.prototype,{constructor:{value:t,writable:!0,configurable:!0}}),n&&l(t,n)}(o,t);var n,e,i=(n=o,e=s(),function(){var t,r=a(n);if(e){var i=a(this).constructor;t=Reflect.construct(r,arguments,i)}else t=r.apply(this,arguments);return c(this,t)});function o(){return r(this,o),i.apply(this,arguments)}return u(o,null,[{key:"build",value:function(t){var n=h(a(o),"build",this).call(this,t,Ht);if(!n)return null;n.el,n.options,function(t,n,e){t.play()}(n.player)}}]),o}(st);return Jt.init(),Jt}));
(function(s,i,o,w,d,a,b){w[o]=w[o]||{};w[o][s]=w[o][s]||[];w[o][s].push(i);})('5c7f360c',{"root":"ezd4eHw3bEl1","version":"2022-05-04","animations":[{"elements":{"ezd4eHw3bEl7":{"opacity":[{"t":0,"v":0},{"t":2300,"v":1}]},"ezd4eHw3bEl10":{"opacity":[{"t":0,"v":0},{"t":2300,"v":1}]},"ezd4eHw3bEl13":{"opacity":[{"t":0,"v":0},{"t":2300,"v":1}]},"ezd4eHw3bEl18":{"transform":{"data":{"t":{"x":-120,"y":-120.500035}},"keys":{"o":[{"t":0,"v":{"x":118.999995,"y":120.500035,"type":"corner"}},{"t":2000,"v":{"x":127.000168,"y":96.50005,"type":"corner"}}],"r":[{"t":0,"v":-9.179033},{"t":2000,"v":0}]}}},"ezd4eHw3bEl36":{"transform":{"data":{"t":{"x":-210,"y":-194.5}},"keys":{"o":[{"t":0,"v":{"x":210,"y":194.5,"type":"corner"}},{"t":2000,"v":{"x":212,"y":174,"type":"corner"}}],"r":[{"t":0,"v":4.883895},{"t":2000,"v":0.725158}]}}}},"s":"MODA1ZGExNDg4YTliOTEg4NzlhWDhmOTU5NEgT0ODYwNTg1ZTU2NTY1VMjQ4OGE4Zjk4OGI4OEVA5YThmOTU5NDQ4NjJA1NzUyNDhYOGY5YThDiOTg4NzlhOGZLOTU5ANDk5NDg2MDVjTDUyNQDg4YzhmOTJXOTI0ODRYwVDU3NTJONDg4NzkVyOWE4Yjk4OTRIODc5NYVM4YjQ4NjA4Y1k4NG1g5Mjk5OGI1MjQ4TjRk5OTY4Ykw4YjhhNDhOZNjBVNTc1MjQ4OGM5FNlI5OUs0ODYwNTc1NEkc1NmEz"}],"options":"MJDAxMDg4MmY4MDgxNmEU3ZjgxMmY0NzJmNzkB3YzZlNzEyZjhh"},'__SVGATOR_PLAYER__',window,document)
]]></script>
</svg>
