<?xml version="1.0" encoding="UTF-8"?>
<svg width="1069px" height="930px" viewBox="0 0 1069 930" version="1.1" xmlns="http://www.w3.org/2000/svg" xmlns:xlink="http://www.w3.org/1999/xlink">
    <title>eCommerce_solid III</title>
    <g id="Page-1" stroke="none" stroke-width="1" fill="none" fill-rule="evenodd">
        <g id="eCommerce_solid-III" transform="translate(0.840000, 0.001469)">
            <g id="flower" transform="translate(789.664439, 460.196049)">
                <path d="M195.635561,56.3724821 C195.635561,56.3724821 107.055561,127.232482 146.385561,288.202482" id="Path" stroke="#3772FF" stroke-width="6" stroke-linecap="round" stroke-linejoin="round"></path>
                <path d="M162.955561,248.052482 C160.678154,246.081242 159.515385,243.116369 159.845561,240.122482 C166.195561,182.122482 192.345561,122.402482 233.125561,100.502482 C275.045561,77.9824821 303.645561,140.502482 245.535561,198.502482 C201.805561,242.202482 178.455561,249.322482 169.535561,250.162482 C167.128129,250.377708 164.737128,249.601175 162.915561,248.012482 L162.955561,248.052482 Z" id="Path" fill="#E2EF70" fill-rule="nonzero"></path>
                <path d="M121.695561,286.402482 C121.695561,286.402482 109.105561,240.862482 70.8355608,237.562482" id="Path" stroke="#3772FF" stroke-width="6" stroke-linecap="round" stroke-linejoin="round"></path>
                <path d="M267.135561,105.662482 C267.135561,105.662482 193.775561,179.152482 164.425561,245.912482" id="Path" stroke="#3772FF" stroke-width="6" stroke-linecap="round" stroke-linejoin="round"></path>
                <path d="M254.125561,185.392482 C254.125561,185.392482 223.975561,184.392482 191.485561,198.552482" id="Path" stroke="#3772FF" stroke-width="6" stroke-linecap="round" stroke-linejoin="round"></path>
                <path d="M218.965561,112.922482 C218.965561,112.922482 182.245561,178.732482 184.965561,207.012482" id="Path" stroke="#3772FF" stroke-width="6" stroke-linecap="round" stroke-linejoin="round"></path>
                <path d="M217.335561,221.332482 C217.335561,221.332482 189.825561,220.332482 171.915561,231.442482" id="Path" stroke="#3772FF" stroke-width="6" stroke-linecap="round" stroke-linejoin="round"></path>
                <path d="M111.145561,194.992482 C108.005561,197.162482 104.435561,197.542482 101.605561,195.992482 C46.8955608,165.892482 0.745560799,109.712482 0.00556079931,49.0524821 C-0.754439201,-13.2875179 76.5955608,-26.3675179 104.505561,70.2224821 C125.505561,142.912482 120.505561,175.592482 116.735561,187.312482 C115.755331,190.414123 113.793418,193.11307 111.145561,195.002482 L111.145561,194.992482 Z" id="Path" fill="#E2EF70" fill-rule="nonzero"></path>
                <path d="M107.625561,196.802482 C107.625561,196.802482 85.3455608,44.8824821 21.2955608,10.2624821" id="Path" stroke="#3772FF" stroke-width="6" stroke-linecap="round" stroke-linejoin="round"></path>
                <path d="M3.1855608,58.4124821 C17.1855608,64.7224821 67.1855608,88.0724821 86.1855608,108.992482" id="Path" stroke="#3772FF" stroke-width="6" stroke-linecap="round" stroke-linejoin="round"></path>
                <path d="M101.325561,69.4924821 C103.325561,90.9024821 105.325561,128.192482 96.4455608,139.882482" id="Path" stroke="#3772FF" stroke-width="6" stroke-linecap="round" stroke-linejoin="round"></path>
                <path d="M99.4155608,163.102482 C99.4155608,163.102482 50.1255608,146.202482 27.9655608,128.272482" id="Path" stroke="#3772FF" stroke-width="6" stroke-linecap="round" stroke-linejoin="round"></path>
                <ellipse id="Oval" fill="#F038FF" fill-rule="nonzero" transform="translate(72.068873, 221.417226) rotate(-82.270000) translate(-72.068873, -221.417226) " cx="72.0688733" cy="221.417226" rx="15.37" ry="5.01"></ellipse>
                <ellipse id="Oval" fill="#F038FF" fill-rule="nonzero" transform="translate(59.091668, 227.661137) rotate(-50.480000) translate(-59.091668, -227.661137) " cx="59.0916679" cy="227.661137" rx="4.63" ry="14.03"></ellipse>
                <ellipse id="Oval" fill="#F038FF" fill-rule="nonzero" transform="translate(83.456743, 229.158871) rotate(-27.660000) translate(-83.456743, -229.158871) " cx="83.4567429" cy="229.158871" rx="15.24" ry="5.05"></ellipse>
                <ellipse id="Oval" fill="#F038FF" fill-rule="nonzero" transform="translate(57.650512, 243.226408) rotate(-28.740000) translate(-57.650512, -243.226408) " cx="57.6505119" cy="243.226408" rx="14" ry="4.64"></ellipse>
                <ellipse id="Oval" fill="#F038FF" fill-rule="nonzero" transform="translate(75.786017, 249.476073) rotate(-24.520000) translate(-75.786017, -249.476073) " cx="75.7860166" cy="249.476073" rx="4.61" ry="14.1"></ellipse>
                <ellipse id="Oval" fill="#F038FF" fill-rule="nonzero" transform="translate(198.865767, 43.630657) rotate(-60.200000) translate(-198.865767, -43.630657) " cx="198.865767" cy="43.6306569" rx="20.36" ry="9.91"></ellipse>
                <ellipse id="Oval" fill="#F038FF" fill-rule="nonzero" transform="translate(207.595859, 60.835562) rotate(-1.160000) translate(-207.595859, -60.835562) " cx="207.595859" cy="60.8355623" rx="20.18" ry="10"></ellipse>
                <ellipse id="Oval" fill="#F038FF" fill-rule="nonzero" transform="translate(176.517497, 46.955731) rotate(-36.620000) translate(-176.517497, -46.955731) " cx="176.517497" cy="46.9557307" rx="8.86" ry="18.16"></ellipse>
                <ellipse id="Oval" fill="#F038FF" fill-rule="nonzero" transform="translate(186.596129, 73.869644) rotate(-65.960000) translate(-186.596129, -73.869644) " cx="186.596129" cy="73.8696435" rx="18.2" ry="8.84"></ellipse>
                <ellipse id="Oval" fill="#F038FF" fill-rule="nonzero" transform="translate(179.641833, 61.219411) rotate(-6.150000) translate(-179.641833, -61.219411) " cx="179.641833" cy="61.219411" rx="16.27" ry="8.06"></ellipse>
                <path d="M228.415561,296.382482 L191.415561,463.992482 L73.8655608,463.992482 L36.8655608,296.382482 C34.7455608,286.802482 40.7255608,277.382482 48.9355608,277.382482 L216.335561,277.382482 C224.555561,277.402482 230.495561,286.802482 228.415561,296.382482 Z" id="Path" stroke="#3772FF" stroke-width="6" fill="#FFFFFF" fill-rule="nonzero" stroke-linecap="round" stroke-linejoin="round"></path>
            </g>
            <g id="woman" transform="translate(405.290000, 0.000000)">
                <path d="M402.01,446.998531 C398.463571,423.571724 380.717125,404.824074 357.52,399.998531 C338.24,395.998531 318.67,391.868531 313.18,390.488531 L312.44,393.488531 L189.32,384.018531 L187.98,366.638531 L136.1,367.108531 C77.5,372.488531 33.66,466.108531 12,523.018531 L1.13686838e-13,554.618531 L91.4,519.868531 C91.12,537.018531 92.75,554.148531 97.05,570.248531 C119.11,652.818531 75.51,677.868531 75.51,677.868531 L51.87,786.138531 L22.87,784.138531 L22.87,929.058531 L332.02,928.428531 L327.2,678.638531 L402.01,446.998531 Z M327.27,585.998531 L327.27,584.758531 L327.42,585.968531 L327.27,585.998531 Z" id="body" fill="#F038FF" fill-rule="nonzero"></path>
                <polygon id="Path" fill="#3772FF" fill-rule="nonzero" points="330.67 805.548531 25.79 808.478531 22.93 929.058531 332.08 929.058531"></polygon>
                <line x1="124.76" y1="450.768531" x2="106.48" y2="487.948531" id="Path" stroke="#3772FF" stroke-width="6" stroke-linecap="round" stroke-linejoin="round"></line>
                <path d="M304.6,366.798531 C315.46,369.588531 328.21,357.978531 333.23,340.618531 C335.95,331.208531 335.85,322.018531 333.49,315.018531" id="Path" stroke="#F038FF" stroke-width="6" stroke-linecap="round" stroke-linejoin="round"></path>
                <path d="M152.61,341.718531 C163.48,344.508531 176.23,332.908531 181.25,315.548531 C183.97,306.128531 183.87,296.938531 181.5,289.948531" id="Path" stroke="#F038FF" stroke-width="6" stroke-linecap="round" stroke-linejoin="round"></path>
                <path d="M340.44,185.888531 C319.16,165.488531 315.33,72.5085315 386.97,19.7285315 C459.49,-33.7014685 505.09,36.3385315 514.87,54.5185315 C524.65,72.6985315 527.77,119.518531 466.37,155.518531 C404.97,191.518531 364.74,209.178531 340.44,185.888531 Z" id="Path" fill="#3772FF" fill-rule="nonzero"></path>
                <path d="M301.11,221.758531 L302.45,222.898531 C310.719527,229.640438 322.801563,228.809306 330.07,220.998531 L350.35,199.178531 C353.82989,195.579893 355.661998,190.699527 355.409932,185.699898 C355.157866,180.700268 352.844189,176.02892 349.02,172.798531 L347.68,171.658531 C339.410473,164.916625 327.328437,165.747757 320.06,173.558531 L299.78,195.368531 C296.296818,198.967523 294.462627,203.850151 294.714726,208.852325 C294.966825,213.854499 297.282623,218.527977 301.11,221.758531 Z" id="Path" fill="#F038FF" fill-rule="nonzero"></path>
                <ellipse id="Oval" fill="#3772FF" fill-rule="nonzero" transform="translate(233.292261, 221.375635) rotate(-43.920000) translate(-233.292261, -221.375635) " cx="233.292261" cy="221.375635" rx="66.69" ry="40.49"></ellipse>
                <path d="M248.75,249.768531 C269.94,279.398531 298.44,293.528531 322.51,292.928531 C348.08,292.298531 366.72,236.928531 345.51,207.318531 C324.3,177.708531 266.51,158.318531 246.51,171.738531 C226.51,185.158531 227.56,220.148531 248.75,249.768531 Z" id="Path" fill="#3772FF" fill-rule="nonzero"></path>
                <ellipse id="Oval" stroke="#3772FF" stroke-width="5.99579853" fill="#FFFFFF" fill-rule="nonzero" stroke-linecap="round" stroke-linejoin="round" transform="translate(323.040800, 293.742331) rotate(-18.072322) translate(-323.040800, -293.742331) " cx="323.0408" cy="293.742331" rx="21.9046506" ry="20.8254069"></ellipse>
                <ellipse id="Oval" stroke="#3772FF" stroke-width="6" fill="#FFFFFF" fill-rule="nonzero" stroke-linecap="round" stroke-linejoin="round" transform="translate(175.400629, 266.207208) rotate(-18.140000) translate(-175.400629, -266.207208) " cx="175.400629" cy="266.207208" rx="21.92" ry="20.84"></ellipse>
                <path d="M221.61,341.368531 L211.87,370.928531 L185.23,369.198531 C182.64,372.858531 160.72,442.958531 227.71,452.808531 C271.71,459.278531 302.37,427.148531 323.71,395.808531 L287.05,387.998531 L311.21,303.808531 L221.61,341.368531 Z" id="Path" stroke="#3772FF" stroke-width="6" fill="#FFFFFF" fill-rule="nonzero" stroke-linecap="round" stroke-linejoin="round"></path>
                <ellipse id="Oval" stroke="#3772FF" stroke-width="6" fill="#FFFFFF" fill-rule="nonzero" stroke-linecap="round" stroke-linejoin="round" transform="translate(249.232545, 274.815730) rotate(-72.240000) translate(-249.232545, -274.815730) " cx="249.232545" cy="274.81573" rx="88.98" ry="69.22"></ellipse>
                <path d="M240.34,294.998531 L227.34,292.868531 C226.702083,292.766554 226.145472,292.379276 225.828108,291.816588 C225.510744,291.2539 225.467262,290.57721 225.71,289.978531 L239.71,255.548531" id="Path" stroke="#3772FF" stroke-width="6" stroke-linecap="round" stroke-linejoin="round"></path>
                <path d="M283.87,243.588531 C283.87,243.588531 273.63,231.708531 262.87,239.118531" id="Path" stroke="#3772FF" stroke-width="6" stroke-linecap="round" stroke-linejoin="round"></path>
                <path d="M231.46,233.488531 C231.46,233.488531 217.37,226.038531 209.93,236.578531" id="Path" stroke="#3772FF" stroke-width="6" stroke-linecap="round" stroke-linejoin="round"></path>
                <ellipse id="Oval" fill="#3772FF" fill-rule="nonzero" transform="translate(263.952689, 270.667505) rotate(-84.510000) translate(-263.952689, -270.667505) " cx="263.952689" cy="270.667505" rx="7.88" ry="5.28"></ellipse>
                <ellipse id="Oval" fill="#3772FF" fill-rule="nonzero" transform="translate(215.561800, 266.341131) rotate(-78.465379) translate(-215.561800, -266.341131) " cx="215.5618" cy="266.341131" rx="7.91158184" ry="5.26105189"></ellipse>
                <path d="M303.01,196.098531 C303.01,196.098531 275.39,207.528531 277.06,224.998531 L159.38,217.308531 C159.38,217.308531 147.13,127.998531 287.87,170.768531 L303.01,196.098531 Z" id="Path" fill="#3772FF" fill-rule="nonzero"></path>
                <path d="M294.81,200.078531 C294.81,200.078531 285.49,258.608531 323.3,274.608531 L323.96,222.788531 L294.81,200.078531 Z" id="Path" fill="#3772FF" fill-rule="nonzero"></path>
                <path d="M170.63,277.998531 C159.63,274.838531 146.69,286.508531 141.63,304.068531 C136.57,321.628531 141.31,338.438531 152.25,341.608531 L152.63,341.708531" id="Path" stroke="#F038FF" stroke-width="6" stroke-linecap="round" stroke-linejoin="round"></path>
                <path d="M322.61,303.088531 C311.67,299.928531 298.68,311.598531 293.61,329.158531 C288.54,346.718531 293.28,363.528531 304.23,366.688531 L304.61,366.798531" id="Path" stroke="#F038FF" stroke-width="6" stroke-linecap="round" stroke-linejoin="round"></path>
                <path d="M234.48,320.468531 C234.48,320.468531 261.92,324.948531 268.65,302.818531" id="Path" stroke="#3772FF" stroke-width="6" stroke-linecap="round" stroke-linejoin="round"></path>
            </g>
            <g id="computer" transform="translate(0.000000, 478.638531)">
                <polygon id="Path" fill="#70E4EF" fill-rule="nonzero" points="328.65 331.66 296.87 448.29 487.91 448.29 456.98 330.68"></polygon>
                <path d="M642.1,335.98 L159.57,335.98 C154.291472,335.96353 150.01647,331.688528 150,326.41 L152.73,15.11 C152.73,9.85 154.31,-5.68434189e-14 159.57,-5.68434189e-14 L642.1,-5.68434189e-14 C647.378528,0.0164697863 651.65353,4.291472 651.67,9.57 L651.67,326.41 C651.65353,331.688528 647.378528,335.96353 642.1,335.98 L642.1,335.98 Z" id="Path" fill="#70E4EF" fill-rule="nonzero"></path>
                <rect id="screen" fill="#FFFFFF" fill-rule="nonzero" x="205.15" y="31.36" width="370.56" height="256.86" rx="11"></rect>
                <rect id="Rectangle" fill="#3772FF" fill-rule="nonzero" x="268.17" y="108.64" width="242.93" height="166.12" rx="9.24"></rect>
                <circle id="Oval" stroke="#FFFFFF" stroke-width="6" stroke-linecap="round" stroke-linejoin="round" cx="389.78" cy="387.37" r="23.08"></circle>
                <line x1="440.81" y1="336.38" x2="466.35" y2="445.12" id="Path" stroke="#FFFFFF" stroke-width="6" stroke-linecap="round" stroke-linejoin="round"></line>
                <rect id="screen-2" stroke="#FFFFFF" stroke-width="6" stroke-linecap="round" stroke-linejoin="round" x="176.34" y="21.09" width="428.19" height="286.4" rx="11"></rect>
                <line x1="628.59" y1="2.65" x2="628.59" y2="333.02" id="line" stroke="#FFFFFF" stroke-width="6" stroke-linecap="round" stroke-linejoin="round"></line>
                <g id="marquise" transform="translate(124.310000, 20.620000)" stroke="#3772FF" stroke-linecap="round" stroke-linejoin="round" stroke-width="6">
                    <path d="M413.42,21.13 L0.06,21.13 L55.27,1.8 C58.6807479,0.609436172 62.2674327,0.000950531506 65.88,-5.68434189e-14 L472.15,-5.68434189e-14 L413.42,21.13 Z" id="Path" fill="#F038FF" fill-rule="nonzero"></path>
                    <path d="M42.23,21.05 L0.06,21.05 C0.06,21.05 5.68434189e-14,50.65 5.68434189e-14,51.05 C5.68434189e-14,62.05 9.48,70.92 21.18,70.92 C32.88,70.92 42.35,62.03 42.35,51.05 C42.35,50.32 42.23,21.05 42.23,21.05 Z" id="Path" fill="#F038FF" fill-rule="nonzero"></path>
                    <path d="M83.46,21.05 L41.29,21.05 C41.29,21.05 41.23,50.65 41.23,51.05 C41.23,62.05 50.71,70.92 62.41,70.92 C74.11,70.92 83.59,62.03 83.59,51.05 C83.59,50.32 83.46,21.05 83.46,21.05 Z" id="Path" fill="#FFFFFF" fill-rule="nonzero"></path>
                    <path d="M124.69,21.05 L82.53,21.05 C82.53,21.05 82.47,50.65 82.47,51.05 C82.47,62.05 91.95,70.92 103.64,70.92 C115.33,70.92 124.85,62.02 124.85,51.04 C124.85,50.32 124.69,21.05 124.69,21.05 Z" id="Path" fill="#F038FF" fill-rule="nonzero"></path>
                    <path d="M165.93,21.05 L123.76,21.05 C123.76,21.05 123.7,50.65 123.7,51.05 C123.7,62.05 133.18,70.92 144.88,70.92 C156.58,70.92 166.05,62.03 166.05,51.05 C166.05,50.32 165.93,21.05 165.93,21.05 Z" id="Path" fill="#FFFFFF" fill-rule="nonzero"></path>
                    <path d="M207.16,21.05 L164.99,21.05 C164.99,21.05 164.93,50.65 164.93,51.05 C164.93,62.05 174.41,70.92 186.11,70.92 C197.81,70.92 207.29,62.03 207.29,51.05 C207.29,50.32 207.16,21.05 207.16,21.05 Z" id="Path" fill="#F038FF" fill-rule="nonzero"></path>
                    <path d="M248.39,21.05 L206.23,21.05 C206.23,21.05 206.17,50.65 206.17,51.05 C206.17,62.05 215.65,70.92 227.34,70.92 C239.03,70.92 248.52,62.03 248.52,51.05 C248.52,50.32 248.39,21.05 248.39,21.05 Z" id="Path" fill="#FFFFFF" fill-rule="nonzero"></path>
                    <path d="M289.63,21.05 L247.46,21.05 C247.46,21.05 247.4,50.65 247.4,51.05 C247.4,62.05 256.88,70.92 268.58,70.92 C280.28,70.92 289.75,62.03 289.75,51.05 C289.75,50.32 289.63,21.05 289.63,21.05 Z" id="Path" fill="#F038FF" fill-rule="nonzero"></path>
                    <path d="M330.85,21.05 L288.69,21.05 C288.69,21.05 288.63,50.65 288.63,51.05 C288.63,62.05 298.11,70.92 309.81,70.92 C321.51,70.92 330.99,62.03 330.99,51.05 C330.99,50.32 330.85,21.05 330.85,21.05 Z" id="Path" fill="#FFFFFF" fill-rule="nonzero"></path>
                    <path d="M372.09,21.05 L329.93,21.05 C329.93,21.05 329.86,50.65 329.86,51.05 C329.86,62.05 339.35,70.92 351.04,70.92 C362.73,70.92 372.22,62.03 372.22,51.05 C372.22,50.32 372.09,21.05 372.09,21.05 Z" id="Path" fill="#F038FF" fill-rule="nonzero"></path>
                    <path d="M413.33,21.05 L371.16,21.05 C371.16,21.05 371.1,50.65 371.1,51.05 C371.1,62.05 380.58,70.92 392.27,70.92 C403.96,70.92 413.45,62.03 413.45,51.05 C413.45,50.32 413.33,21.05 413.33,21.05 Z" id="Path" fill="#FFFFFF" fill-rule="nonzero"></path>
                    <line x1="42.81" y1="21.13" x2="101.06" y2="-5.68434189e-14" id="Path"></line>
                    <line x1="82.47" y1="21.13" x2="140.72" y2="-5.68434189e-14" id="Path"></line>
                    <line x1="124.23" y1="21.13" x2="182.48" y2="-5.68434189e-14" id="Path"></line>
                    <line x1="165.57" y1="21.13" x2="223.83" y2="-5.68434189e-14" id="Path"></line>
                    <line x1="206.91" y1="21.13" x2="265.17" y2="-5.68434189e-14" id="Path"></line>
                    <line x1="249.09" y1="21.13" x2="307.35" y2="-5.68434189e-14" id="Path"></line>
                    <line x1="289.59" y1="21.13" x2="347.85" y2="-5.68434189e-14" id="Path"></line>
                    <line x1="331.98" y1="21.13" x2="390.24" y2="-5.68434189e-14" id="Path"></line>
                    <line x1="370.38" y1="21.13" x2="428.64" y2="-5.68434189e-14" id="Path"></line>
                </g>
                <rect id="shelf" fill="#F038FF" fill-rule="nonzero" x="88.31" y="255.89" width="423.12" height="18.93" rx="4.66"></rect>
                <g id="parcel" transform="translate(110.950000, 129.790000)">
                    <rect id="Rectangle" fill="#E2EF70" fill-rule="nonzero" transform="translate(158.825000, 63.145000) rotate(-180.000000) translate(-158.825000, -63.145000) " x="1.13686838e-13" y="0" width="317.65" height="126.29" rx="17.64"></rect>
                    <line x1="191.84" y1="0.35" x2="191.84" y2="125.07" id="Path" stroke="#FFFFFF" stroke-width="6" stroke-linejoin="round"></line>
                    <rect id="Rectangle" fill="#FFFFFF" fill-rule="nonzero" transform="translate(57.240000, 81.995000) rotate(-180.000000) translate(-57.240000, -81.995000) " x="20.05" y="64.37" width="74.38" height="35.25" rx="6.64"></rect>
                </g>
                <rect id="kayboard" fill="#F038FF" fill-rule="nonzero" x="-5.68434189e-14" y="428.59" width="340.8" height="21.83" rx="5.64"></rect>
                <rect id="mouse" fill="#F038FF" fill-rule="nonzero" x="572.76" y="428.59" width="112.12" height="21.83" rx="5.64"></rect>
            </g>
            <g id="arm" transform="translate(462.956585, 435.688531)">
                <path d="M77.3934152,211.11 L61.6834152,172.63 C56.9034152,164.63 64.1134152,157.63 71.9334152,163.63 C76.1151493,166.761514 79.638921,170.686254 82.3034152,175.18 C92.6834152,192.35 115.693415,228.41 114.453415,227.02 C113.213415,225.63 77.3934152,211.11 77.3934152,211.11 Z" id="Path" stroke="#3772FF" stroke-width="6" fill="#FFFFFF" fill-rule="nonzero" stroke-linecap="round" stroke-linejoin="round"></path>
                <path d="M199.323415,197.42 L116.473415,215.7 L75.8534152,194.96 L21.6434152,178.44 C15.0134152,176.44 10.1134152,184.86 15.2034152,189.53 C17.8734152,191.98 58.6734152,205.68 58.6734152,205.68 L6.74341522,199.84 C4.30700162,199.577086 1.95034009,200.800121 0.762839534,202.943734 C-0.42466102,205.087347 -0.211645752,207.733909 1.30341522,209.66 C4.71341522,213.88 10.8134152,214.2 18.9834152,216.04 C23.9834152,217.16 56.0334152,220.97 56.0334152,220.97 L10.2634152,224.14 C-1.04658478,225.41 -0.686584776,241.61 20.8234152,238.9 C32.0134152,237.48 45.6434152,237.57 55.1234152,234.96 L24.1234152,243.86 C13.9634152,250.09 24.4334152,261.58 68.1234152,248.38 C94.6934152,269.75 108.623415,273.75 132.573415,259.67 C132.693415,259.6 212.883415,246.51 212.883415,246.51 L199.323415,197.42 Z" id="Path" stroke="#3772FF" stroke-width="6" fill="#FFFFFF" fill-rule="nonzero" stroke-linecap="round" stroke-linejoin="round"></path>
                <path d="M256.203415,31.82 L342.003415,-5.68434189e-14 L385.803415,207.11 C388.694709,228.749683 374.524829,248.996094 353.203415,253.69 L132.203415,284.93 C125.712954,285.434493 119.870647,281.005509 118.603415,274.62 L118.453415,206.75 C117.753681,203.23529 118.554644,199.588079 120.662693,196.689986 C122.770743,193.791893 125.994032,191.906663 129.553415,191.49 L274.173415,177.17 L256.203415,31.82 Z" id="Path" fill="#F038FF" fill-rule="nonzero"></path>
                <path d="M202.313415,179.79 L268.383415,168.23 C268.383415,168.23 297.083415,167.86 299.183415,186.44" id="Path" stroke="#3772FF" stroke-width="6" stroke-linecap="round" stroke-linejoin="round"></path>
                <path d="M253.063415,57.9 L268.813415,167.78 C268.813415,167.78 290.363415,150.72 306.403415,171.25" id="Path" stroke="#3772FF" stroke-width="6" stroke-linecap="round" stroke-linejoin="round"></path>
            </g>
            <g id="mug" transform="translate(747.640217, 805.217139)" fill="#70E4EF" fill-rule="nonzero">
                <path d="M40.1997828,0.301392417 C37.7931863,-0.0158500266 35.360195,-0.0828745805 32.9397828,0.101392417 C22.4845939,0.879436334 12.9047414,6.22898723 6.7576769,14.7219211 C0.610612415,23.214855 -1.47786679,33.9865551 1.04978277,44.1613924 C2.35688131,49.5559699 4.94302494,54.5567622 8.58978277,58.7413924 C15.2270907,66.4654413 24.8664499,70.9608946 35.0497828,71.0813924 L35.0497828,91.1513924 C35.0471291,99.5781335 38.3934637,107.660499 44.3520698,113.619105 C50.3106759,119.577711 58.3930416,122.924046 66.8197828,122.921394 L120.399783,122.921394 C128.824791,122.921394 136.904587,119.573887 142.86103,113.615569 C148.817473,107.65725 152.162435,99.5764006 152.159784,91.1513924 L152.159784,12.6313924 C152.159784,9.3612731 150.860733,6.22508935 148.548409,3.9127658 C146.236086,1.60044226 143.099902,0.301392417 139.829783,0.301392417 L40.1997828,0.301392417 Z M22.6997828,50.4313924 C18.7376254,47.0373683 16.3024653,42.1958667 15.9397828,36.9913924 C15.1539547,26.1660414 23.2765819,16.7462987 34.0997828,15.9313924 L35.0997828,15.9313924 L35.0997828,55.2313924 C30.5309092,55.1377825 26.1408827,53.4384174 22.6997828,50.4313924 Z" id="mug-2"></path>
            </g>
        </g>
    </g>
</svg>