<?xml version="1.0" encoding="UTF-8"?>
<svg width="1074px" height="604px" viewBox="0 0 1074 604" version="1.1" xmlns="http://www.w3.org/2000/svg" xmlns:xlink="http://www.w3.org/1999/xlink">
    <title>message sent_outline III</title>
    <g id="Page-1" stroke="none" stroke-width="1" fill="none" fill-rule="evenodd">
        <g id="message-sent_outline-III" transform="translate(3.001392, 3.999233)">
            <g id="clouds" stroke="#3772FF" stroke-linecap="round" stroke-linejoin="round" stroke-width="6">
                <path d="M12.0486081,117.100767 C24.7886081,108.730767 42.8086081,103.640767 68.2286081,106.900767 C68.2286081,106.900767 93.3386081,25.4807667 170.688608,56.6407667 C170.688608,56.6407667 202.828608,-27.7092333 288.218608,9.46076665 L294.278608,12.5207667 C319.108608,29.2007667 329.568608,56.6407667 329.568608,56.6407667 C406.918608,25.4807667 431.998608,106.900767 431.998608,106.900767 C510.348608,96.8507667 518.388608,166.150767 518.388608,166.150767 L26.8386081,166.150767 C0.328608097,166.150767 -10.1113919,131.640767 12.0486081,117.100767 Z" id="Path" fill="#3772FF"></path>
                <path d="M767.258608,536.000767 C836.668608,532.590767 844.038608,596.120767 844.038608,596.120767 L352.448608,596.120767 C325.948608,596.120767 315.508608,561.610767 337.658608,547.060767 C350.408608,538.700767 368.428608,533.610767 393.838608,536.860767 C393.838608,536.860767 418.958608,455.440767 496.308608,486.610767 C496.308608,486.610767 505.708608,461.950767 527.838608,445.170767" id="Path" fill="#E2EF70"></path>
                <path d="M560.858608,291.690767 C573.598608,283.320767 591.618608,278.230767 617.038608,281.490767 C617.038608,281.490767 642.148608,200.070767 719.498608,231.240767 C719.498608,231.240767 751.648608,146.880767 837.028608,184.050767 L843.088608,187.110767 C867.918608,203.790767 878.378608,231.240767 878.378608,231.240767 C955.728608,200.070767 980.838608,281.490767 980.838608,281.490767 C1059.19861,271.490767 1067.22861,340.750767 1067.22861,340.750767 L773.628608,340.750767" id="Path" fill="#3772FF"></path>
            </g>
            <g id="message" transform="translate(181.878608, 101.220764)">
                <path d="M486.05,194.690003 C491.396448,194.693572 496.73838,195.000733 502.05,195.610003 L502.05,17.7800028 C502.05,13.0627205 500.175383,8.53879181 496.838824,5.20410739 C493.502264,1.86942298 488.977282,-1.42108547e-14 484.26,-1.42108547e-14 L17.79,-1.42108547e-14 C7.96875822,-1.42108547e-14 0.00552065305,7.95876259 -2.84217094e-14,17.7800028 L-2.84217094e-14,295.130003 C0.00552065305,304.951243 7.96875822,312.910003 17.79,312.910003 L347.66,312.910003 C358.437057,244.830805 417.123067,194.698136 486.05,194.690003 Z" id="message-2" fill="#F038FF" fill-rule="nonzero"></path>
                <g id="lines" transform="translate(5.390000, 9.060003)" stroke="#3772FF" stroke-linecap="round" stroke-linejoin="round" stroke-width="6">
                    <path d="M7.37,2.84217094e-14 L236.47,177.62 C241.844772,181.880481 249.445228,181.880481 254.82,177.62 L483.93,2.84217094e-14" id="Path"></path>
                    <line x1="2.84217094e-14" y1="245.75" x2="143.87" y2="105.83" id="Path"></line>
                    <line x1="348.69" y1="105.83" x2="436.93" y2="191.65" id="Path"></line>
                </g>
            </g>
            <g id="icon" transform="translate(527.838608, 295.910767)">
                <circle id="Oval" stroke="#70E4EF" stroke-width="6" fill="#70E4EF" stroke-linecap="round" stroke-linejoin="round" cx="140.09" cy="140.09" r="140.09"></circle>
                <path d="M250.44,6.43 C244.610132,2.81282911 236.952031,4.60315071 233.33,10.43 L202.72,59.59 C159.042293,24.4590664 95.56353,29.4060459 57.8556953,70.8794566 C20.1478607,112.352867 21.2472277,176.014609 60.3645507,216.161335 C99.4818738,256.308061 163.093594,259.060331 205.532276,222.442263 C247.970958,185.824196 254.56479,122.495314 220.58,77.92 L254.42,23.54 C256.161576,20.7434063 256.720669,17.3694389 255.974244,14.1605644 C255.22782,10.9516899 253.237044,8.17085394 250.44,6.43 Z M234.440141,142.09 C234.482645,188.045656 202.648133,227.884857 157.815351,237.981679 C112.982568,248.0785 67.143235,225.73228 47.4815451,184.195042 C27.8198553,142.657804 39.5948504,93.0397875 75.8235809,64.7660672 C112.052311,36.4923468 163.04444,37.1254807 198.56,66.29 L143.16,155.34 L111.08,112.66 C106.959956,107.159244 99.1607561,106.039956 93.66,110.16 C88.1592439,114.280044 87.0399558,122.079244 91.16,127.58 L134.16,184.76 C136.505997,187.881441 140.18525,189.71551 144.09,189.71 L144.63,189.71 C148.72345,189.534974 152.466195,187.349211 154.63,183.87 L216.16,85.09 C228.079955,101.70292 234.474825,121.643161 234.440141,142.09 L234.440141,142.09 Z" id="succes_icon" fill="#E2EF70" fill-rule="nonzero"></path>
            </g>
        </g>
    </g>
</svg>