<?xml version="1.0" encoding="UTF-8"?>
<svg width="1599px" height="760px" viewBox="0 0 1599 760" version="1.1" xmlns="http://www.w3.org/2000/svg" xmlns:xlink="http://www.w3.org/1999/xlink">
    <title>team_solid III</title>
    <g id="Page-1" stroke="none" stroke-width="1" fill="none" fill-rule="evenodd">
        <g id="team_solid-III" transform="translate(3.000000, 0.992724)">
            <rect id="shape" fill="#E2EF70" fill-rule="nonzero" x="70.32" y="497.447276" width="1455.07" height="257.25"></rect>
            <g id="screen" transform="translate(606.660000, 88.217276)">
                <path d="M334.07,-1.42108547e-14 L9.84,-1.42108547e-14 C4.429493,0.0108384079 0.0384005285,4.37961842 0,9.79 L0,209.34 C0.0164981296,214.766012 4.41397382,219.159019 9.84,219.17 L136.51,219.17 L117.39,292.44 L236.77,292.44 L218.34,219.17 L334.07,219.17 C339.496026,219.159019 343.893502,214.766012 343.91,209.34 L343.91,9.79 C343.871599,4.37961842 339.480507,0.0108384079 334.07,-1.42108547e-14 L334.07,-1.42108547e-14 Z" id="shape-2" fill="#F038FF" fill-rule="nonzero"></path>
                <rect id="screen-2" fill="#FFFFFF" fill-rule="nonzero" x="16.46" y="13.17" width="297.99" height="186.83" rx="11"></rect>
                <g id="lines" transform="translate(136.820000, 3.060000)" stroke="#3772FF" stroke-linecap="round" stroke-linejoin="round" stroke-width="6">
                    <ellipse id="Oval" cx="38.63" cy="249.64" rx="14.43" ry="15.06"></ellipse>
                    <line x1="70.52" y1="216.37" x2="86.48" y2="287.31" id="Path"></line>
                    <line x1="0" y1="215.94" x2="80.79" y2="215.94" id="Path"></line>
                    <path d="M180.24,-1.42108547e-14 C185.939859,0.0986217594 190.491324,4.77961804 190.43,10.48 L190.43,205.53" id="line"></path>
                </g>
                <g id="code_lines" transform="translate(57.870000, 53.970000)" fill-rule="nonzero">
                    <rect id="Rectangle" fill="#FEBA91" x="70.47" y="0" width="9.71" height="13.88" rx="3.31"></rect>
                    <rect id="Rectangle" fill="#70E4EF" x="0" y="0" width="66.74" height="13.88" rx="4.54"></rect>
                    <rect id="Rectangle" fill="#70E4EF" x="0" y="64.46" width="72.78" height="13.88" rx="4.54"></rect>
                    <rect id="Rectangle" fill="#FEBA91" x="18.4" y="43" width="112.88" height="13.88" rx="4.54"></rect>
                    <rect id="Rectangle" fill="#FEBA91" x="137.59" y="43" width="60.97" height="13.88" rx="4.54"></rect>
                    <rect id="Rectangle" fill="#70E4EF" x="209.49" y="21.54" width="9.71" height="13.88" rx="3.31"></rect>
                    <rect id="Rectangle" fill="#70E4EF" x="0" y="21.5" width="116.72" height="13.88" rx="4.54"></rect>
                    <rect id="Rectangle" fill="#70E4EF" x="84.45" y="0" width="66.74" height="13.88" rx="4.54"></rect>
                    <rect id="Rectangle" fill="#F038FF" x="121.94" y="21.46" width="82.33" height="13.96" rx="4.57"></rect>
                </g>
            </g>
            <g id="woman_with_glasses" transform="translate(396.147840, 89.247688)">
                <path d="M219.68216,287.659588 L235.02216,262.029588 C235.02216,262.029588 220.39216,197.139588 211.21216,164.899588 C202.99216,136.009588 183.81216,128.899588 169.48216,133.009588 L67.4821599,150.279588 C66.7321599,150.199588 65.9821599,150.139588 65.2521599,150.119588 C47.3921599,149.719588 17.8121599,214.399588 10.9021599,252.069588 C20.1921599,249.069588 41.0921599,245.929588 67.6621599,249.519588 C68.4421599,247.959588 71.2921599,243.209588 75.0421599,236.519588 C75.4821599,237.279588 75.9121599,238.019588 76.3421599,238.739588 C82.6421599,249.239588 99.7821599,284.869588 111.28216,288.479588 L219.75216,291.859588 L218.43216,287.659588 C218.848419,287.685656 219.265901,287.685656 219.68216,287.659588 L219.68216,287.659588 Z" id="shape-3" fill="#3772FF" fill-rule="nonzero"></path>
                <g id="head" transform="translate(63.816861, 0.000000)">
                    <path d="M49.2952989,100.289588 L46.2952989,102.229588 C46.2952989,102.229588 28.5152989,111.899588 22.9252989,93.9395884 C18.6952989,80.3095884 31.7652989,76.0195884 38.3252989,74.7495884" id="Path" stroke="#3772FF" stroke-width="6" fill="#FFFFFF" fill-rule="nonzero" stroke-linecap="round" stroke-linejoin="round"></path>
                    <path d="M90.6452989,124.579588 L83.8352989,139.699588 L93.9652989,137.479588 C95.0652989,139.479588 108.195299,167.789588 76.3952989,175.059588 C55.5252989,179.819588 31.3952989,162.879588 20.4652989,147.449588 L38.1052989,144.249588 L52.4952989,109.579588 L90.6452989,124.579588 Z" id="Path" stroke="#3772FF" stroke-width="6" fill="#FFFFFF" fill-rule="nonzero" stroke-linecap="round" stroke-linejoin="round"></path>
                    <path d="M113.035299,66.3795884 C115.455299,74.6195884 122.385299,113.729588 97.3052989,123.379588 C72.2252989,133.029588 48.6952989,113.609588 39.7752989,89.5295884 C30.8552989,65.4495884 36.4452989,41.8995884 52.1852989,35.3895884 C67.9252989,28.8795884 95.4152989,6.75958842 113.035299,66.3795884 Z" id="Path" stroke="#3772FF" stroke-width="6" fill="#FFFFFF" fill-rule="nonzero" stroke-linecap="round" stroke-linejoin="round"></path>
                    <path d="M87.3652989,98.1295884 C91.1485109,98.8219523 95.0542462,98.2674993 98.4952989,96.5495884 C98.9523798,96.3230971 99.4903775,96.3296673 99.941791,96.5672534 C100.393205,96.8048394 100.703213,97.2445885 100.775299,97.7495884 C101.305299,100.839588 101.155299,106.219588 94.3952989,107.849588 C87.3352989,109.549588 85.8352989,103.349588 85.5352989,99.8495884 C85.4971513,99.3628201 85.6819606,98.8850395 86.0377404,98.5506454 C86.3935202,98.2162513 86.8818261,98.061377 87.3652989,98.1295884 Z" id="Path" fill="#3772FF" fill-rule="nonzero"></path>
                    <polyline id="Path" stroke="#3772FF" stroke-width="6" stroke-linecap="round" stroke-linejoin="round" points="91.7152989 86.9995884 99.4852989 84.9695884 88.7352989 55.1795884"></polyline>
                    <path d="M65.8452989,64.7595884 C65.8452989,64.7595884 69.7352989,57.3595884 75.7452989,60.0895884" id="Path" stroke="#3772FF" stroke-width="6" stroke-linecap="round" stroke-linejoin="round"></path>
                    <path d="M89.8652989,47.2395884 C89.8652989,47.2395884 94.7152989,40.4595884 100.295299,44.0195884" id="Path" stroke="#3772FF" stroke-width="6" stroke-linecap="round" stroke-linejoin="round"></path>
                    <ellipse id="Oval" fill="#3772FF" fill-rule="nonzero" transform="translate(81.881514, 74.101050) rotate(-11.630000) translate(-81.881514, -74.101050) " cx="81.8815144" cy="74.1010497" rx="2.66" ry="4.22"></ellipse>
                    <ellipse id="Oval" fill="#3772FF" fill-rule="nonzero" transform="translate(107.448445, 69.001077) rotate(-11.630000) translate(-107.448445, -69.001077) " cx="107.448445" cy="69.0010768" rx="2.66" ry="4.22"></ellipse>
                    <ellipse id="Oval" stroke="#F038FF" stroke-width="4.5" stroke-linecap="round" stroke-linejoin="round" transform="translate(72.074664, 73.580094) rotate(-9.630000) translate(-72.074664, -73.580094) " cx="72.0746635" cy="73.5800943" rx="16.89" ry="22.84"></ellipse>
                    <ellipse id="Oval" stroke="#F038FF" stroke-width="4.5" stroke-linecap="round" stroke-linejoin="round" transform="translate(115.869061, 65.163334) rotate(-9.630000) translate(-115.869061, -65.163334) " cx="115.869061" cy="65.1633344" rx="16.89" ry="22.84"></ellipse>
                    <line x1="98.2852989" y1="62.3695884" x2="87.9152989" y2="64.3395884" id="Path" stroke="#F038FF" stroke-width="4.5" stroke-linecap="round" stroke-linejoin="round"></line>
                    <line x1="54.7552989" y1="68.5095884" x2="31.2852989" y2="76.4195884" id="Path" stroke="#F038FF" stroke-width="4.5" stroke-linecap="round" stroke-linejoin="round"></line>
                    <path d="M120.345299,21.4595884 C101.205299,-17.7504116 68.3952989,4.55958842 46.4252989,26.8795884 C29.3352989,26.5895884 7.62529887,43.8795884 2.99529887,57.7895884 C-2.57470113,74.4995884 -0.634701135,98.5195884 10.9952989,113.909588 C33.3652989,138.509588 52.4852989,133.239588 66.1952989,121.409588 C58.2452989,117.209588 51.3252989,110.409588 46.1052989,102.329588 C44.1052989,103.329588 28.1752989,110.789588 22.9352989,93.9395884 C20.6852989,86.6895884 23.3252989,82.0795884 27.2752989,79.1695884 C28.8352989,79.6495884 30.8952989,79.4095884 33.5752989,78.1695884 C46.7152989,72.1695884 51.5052989,57.2395884 53.2452989,47.8395884 L115.645299,31.6395884 C117.747286,31.0933105 119.493665,29.6334772 120.404027,27.6616731 C121.314388,25.6898689 121.292836,23.4138 120.345299,21.4595884 Z" id="hair" fill="#3772FF" fill-rule="nonzero"></path>
                </g>
                <g id="hand_II" transform="translate(10.963948, 247.968929)" fill="#FFFFFF" fill-rule="nonzero" stroke="#3772FF" stroke-linecap="round" stroke-linejoin="round" stroke-width="6">
                    <path d="M140.528212,13.7906591 C113.878212,12.4806591 52.5782121,3.95065907 52.5782121,3.95065907 L53.5782121,1.21065907 C31.3382121,-1.39934093 13.3882121,0.650659075 3.38821211,3.21065907 C0.298212106,11.9706591 -0.931787894,19.4906591 0.768212106,24.4906591 C2.99821211,31.1006591 10.5682121,36.6806591 17.4682121,37.6806591 C74.8782121,46.0106591 143.188212,39.7706591 143.188212,39.7706591 L162.548212,24.9306591 C162.548212,24.9306591 141.718212,13.7906591 140.528212,13.7906591 Z" id="Path"></path>
                    <path d="M134.708212,13.7906591 C143.702003,13.4876335 152.704836,13.992997 161.608212,15.3006591 C169.868212,16.5706591 183.918212,18.7006591 185.328212,20.5906591 C188.648212,25.0406591 175.998212,27.2706591 170.018212,23.5906591" id="Path"></path>
                    <path d="M164.888212,28.9606591 C176.608212,32.0806591 182.728212,32.5106591 180.218212,27.9606591 C178.768212,25.3606591 159.218212,16.4106591 155.398212,15.4106591 C151.578212,14.4106591 130.678212,13.0606591 130.678212,13.0606591" id="Path"></path>
                    <path d="M150.288212,21.9306591 C155.072638,23.3949775 159.773047,25.120909 164.368212,27.1006591 C170.498212,29.8606591 174.178212,32.9206591 173.748212,34.1006591 C173.318212,35.2806591 168.748212,37.6906591 164.748212,36.2706591 C159.128212,33.1706591 146.508212,29.9906591 146.508212,29.9906591 C147.828212,29.6906591 156.618212,33.3206591 161.438212,34.8606591 C166.258212,36.4006591 170.128212,41.0106591 158.438212,40.3506591 L140.798212,39.7906591" id="Path"></path>
                </g>
                <g id="hand" transform="translate(207.026003, 148.707003)" fill="#FFFFFF" fill-rule="nonzero" stroke="#3772FF" stroke-linecap="round" stroke-linejoin="round" stroke-width="6">
                    <path d="M102.486157,36.2525852 C102.486157,36.2525852 121.166157,35.7025852 133.396157,28.5525852 C140.686157,24.2925852 150.136157,18.4425852 150.596157,15.9225852 C151.456157,11.1825852 139.926157,16.0225852 138.096157,16.6425852" id="Path"></path>
                    <path d="M115.716157,23.0525852 C115.716157,23.0525852 125.716157,17.8325852 130.136157,12.5625852 C134.556157,7.29258517 137.566157,3.16258517 136.746157,2.11258517 C135.926157,1.06258517 130.236157,1.22258517 127.216157,4.24258517 C123.406157,9.68258517 111.726157,15.4825852 111.726157,15.4825852 C113.016157,15.2925852 120.586157,10.0925852 124.296157,6.63258517 C128.006157,3.17258517 129.666157,-3.21741483 119.486157,1.93258517 C119.486157,1.93258517 108.646157,7.76258517 104.626157,9.32258517 C104.626157,9.32258517 87.6261566,11.4625852 82.1061566,17.1825852 L82.1061566,17.1825852 C78.4061566,21.0425852 49.5361566,50.4725852 27.8861566,69.0125852 C15.3661566,77.1125852 -18.9138434,136.832585 13.6661566,137.092585 C20.4061566,137.342585 29.0861566,132.912585 32.5361566,127.982585 L97.4661566,37.4125852 C107.856157,35.7425852 115.266157,33.0825852 120.246157,30.4125852 C126.696157,26.9025852 146.346157,10.6225852 146.716157,8.48258517 C147.716157,2.77258517 137.986157,2.94258517 130.806157,12.0525852" id="Path"></path>
                </g>
                <g id="ponytail" transform="translate(45.459156, 90.821669)">
                    <ellipse id="Oval" fill="#3772FF" fill-rule="nonzero" transform="translate(35.913907, 37.342215) rotate(-60.710000) translate(-35.913907, -37.342215) " cx="35.913907" cy="37.3422151" rx="28.77" ry="25.04"></ellipse>
                    <ellipse id="Oval" fill="#3772FF" fill-rule="nonzero" transform="translate(66.801003, 60.775920) rotate(-80.256359) translate(-66.801003, -60.775920) " cx="66.8010034" cy="60.7759197" rx="20.8933903" ry="18.1812676"></ellipse>
                    <ellipse id="Oval" fill="#3772FF" fill-rule="nonzero" transform="translate(84.292434, 91.227396) rotate(-55.340000) translate(-84.292434, -91.227396) " cx="84.2924344" cy="91.2273956" rx="18.57" ry="16.16"></ellipse>
                    <ellipse id="Oval" fill="#3772FF" fill-rule="nonzero" transform="translate(100.014965, 115.731896) rotate(-39.990000) translate(-100.014965, -115.731896) " cx="100.014965" cy="115.731896" rx="15.35" ry="13.36"></ellipse>
                    <path d="M102.963003,149.45792 C109.623003,152.97792 110.703003,157.70792 110.183003,161.45792 C110.072004,162.253221 110.465043,163.034156 111.169917,163.418835 C111.874791,163.803514 112.744206,163.711552 113.353003,163.18792 C120.973003,156.31792 132.643003,142.96792 123.043003,132.24792 C118.513003,127.18792 110.353003,126.57792 104.203003,131.39792 C98.0530034,136.21792 96.9630034,146.27792 102.963003,149.45792 Z" id="Path" fill="#3772FF" fill-rule="nonzero"></path>
                    <line x1="48.8730034" y1="61.0379197" x2="59.7030034" y2="44.6979197" id="Path" stroke="#F038FF" stroke-width="8" stroke-linecap="round" stroke-linejoin="round"></line>
                    <line x1="70.6830034" y1="83.7679197" x2="84.1930034" y2="74.1079197" id="Path" stroke="#F038FF" stroke-width="8" stroke-linecap="round" stroke-linejoin="round"></line>
                    <line x1="91.4330034" y1="105.33792" x2="96.0530034" y2="103.03792" id="Path" stroke="#F038FF" stroke-width="8" stroke-linecap="round" stroke-linejoin="round"></line>
                    <line x1="105.253003" y1="130.13792" x2="109.873003" y2="127.83792" id="Path" stroke="#F038FF" stroke-width="8" stroke-linecap="round" stroke-linejoin="round"></line>
                </g>
                <g id="legs" transform="translate(0.000000, 290.619588)" fill-rule="nonzero">
                    <path d="M128.01216,264.44 L107.21216,332.05 C107.21216,332.05 143.80216,341.05 139.96216,372.12 L49.8521599,371.66 L75.6321599,256.25 L128.01216,264.44 Z" id="Path" fill="#F038FF"></path>
                    <path d="M250.40216,261.89 L228.90216,331.71 C228.90216,331.71 266.76216,341.23 262.78216,373.47 L169.35216,372.99 L196.06216,253.4 L250.40216,261.89 Z" id="Path" fill="#F038FF"></path>
                    <path d="M221.85216,3.64 L159.10216,3.64 L156.80216,0 L132.35216,3.64 L121.35216,3.64 L121.02216,5.33 L13.1421599,21.41 C12.3621599,24.15 -14.5878401,71.48 11.0121599,105.26 C21.2521599,118.78 57.7521599,122.26 97.8521599,121.57 L60.4821599,309.14 L156.22216,309.14 L182.91216,193.27 L166.99216,309.82 L262.73216,309.82 L270.85216,42.43 C270.85216,42.43 270.85216,0.14 221.85216,3.64 Z" id="Path" fill="#70E4EF"></path>
                </g>
            </g>
            <g id="ponytail_woman" transform="translate(162.137804, 0.000000)">
                <g id="shoes" transform="translate(62.182196, 584.707276)" fill="#3772FF" fill-rule="nonzero">
                    <path d="M19.78,12.3 L0,121.9 L0.44,170.37 L23.36,170.37 L24.68,122.45 C24.68,122.45 33.97,169.32 65.99,171.45 C98.01,173.58 125.68,164.78 125.46,163.53 C125.36,162.9 126.46,153.47 127.46,144.33 C128.4,136.33 120.78,128.57 112.58,129.04 C100.27,129.76 84.12,128.78 74.32,120.62 C56.82,106.03 81.97,9.62 81.97,9.62 L19.78,12.3 Z" id="boot"></path>
                    <path d="M137.32,16.62 L138.68,170.37 L161.59,170.37 L162.95,122.45 C162.95,122.45 172.25,169.32 204.27,171.45 C236.29,173.58 263.95,164.78 263.74,163.53 C263.63,162.9 264.74,153.47 265.74,144.33 C266.68,136.33 259.05,128.57 250.85,129.04 C238.54,129.76 222.4,128.78 212.6,120.62 C195.1,106.03 197.32,0 197.32,0 L137.32,16.62 Z" id="boot-2"></path>
                </g>
                <path d="M176.782196,383.727276 L184.012196,382.987276 C205.012196,391.507276 229.012196,385.727276 250.612196,372.677276 C247.882196,370.407276 242.952196,364.457276 242.952196,361.227276 C242.952196,340.387276 247.412196,321.507276 263.442196,297.227276 L231.372196,317.767276 C231.372196,317.767276 217.912196,296.767276 205.742196,274.507276 C204.502196,259.407276 201.412196,246.067276 195.352196,237.307276 C176.732196,215.197276 134.792196,217.877276 134.792196,217.877276 L65.4721961,212.677276 L65.0321961,212.437276 C52.1621961,212.437276 34.6321961,226.147276 32.7121961,241.007276 C29.1321961,268.657276 37.8421961,305.447276 41.5521961,337.337276 C40.9021961,340.617276 40.3821961,343.217276 40.0121961,344.937276 C40.0121961,344.937276 -32.8878039,446.327276 18.1121961,497.367276 C18.3821961,497.767276 98.2321961,496.837276 98.2321961,496.837276 L66.2321961,676.377276 L264.582196,680.007276 C264.582196,680.007276 286.212196,500.717276 281.722196,480.837276 C272.622196,440.517276 176.782196,383.727276 176.782196,383.727276 Z" id="shape-4" fill="#F038FF" fill-rule="nonzero"></path>
                <g id="head-2" transform="translate(3.066543, 0.000000)">
                    <g id="earrings_back" transform="translate(94.877420, 177.097276)" stroke="#F038FF" stroke-linecap="round" stroke-linejoin="round" stroke-width="6">
                        <path d="M14.7682328,34.69 C8.37823281,35.48 1.97823281,27.94 0.398232809,17.69 C-0.488733696,12.7661266 0.11362682,7.68958534 2.12823281,3.11" id="Path"></path>
                        <path d="M103.078233,31.58 C96.6882328,32.37 90.2882328,24.83 88.7082328,14.58 C87.8212663,9.65612657 88.4236268,4.57958534 90.4382328,0" id="Path"></path>
                    </g>
                    <g id="ponytail-2" fill-rule="nonzero">
                        <path d="M102.795653,107.007276 C115.075653,95.3972762 117.645653,42.0672762 76.7456533,11.5072762 C35.3456533,-19.4027238 8.91565328,20.5972762 3.22565328,31.0072762 C-2.46434672,41.4172762 -4.42434672,68.2672762 30.6556533,89.1572762 C65.7356533,110.047276 88.7956533,120.297276 102.795653,107.007276 Z" id="Path" fill="#3772FF"></path>
                        <path d="M125.205653,127.757276 L124.425653,128.407276 C119.658708,132.246082 112.729446,131.720807 108.595653,127.207276 L97.0456533,114.617276 C95.0626708,112.538956 94.0306135,109.731204 94.1955184,106.863376 C94.3604233,103.995547 95.7075148,101.3246 97.9156533,99.4872762 L98.6856533,98.8372762 C103.457413,95.0022854 110.386096,95.5271857 114.525653,100.037276 L126.065653,112.627276 C128.04982,114.704265 129.083614,117.511204 128.920607,120.378995 C128.7576,123.246787 127.412395,125.918502 125.205653,127.757276 L125.205653,127.757276 Z" id="Path" fill="#F038FF"></path>
                    </g>
                    <ellipse id="ear" stroke="#3772FF" stroke-width="6" fill="#FFFFFF" fill-rule="nonzero" stroke-linecap="round" stroke-linejoin="round" transform="translate(104.213534, 168.124595) rotate(-64.510000) translate(-104.213534, -168.124595) " cx="104.213534" cy="168.124595" rx="11.96" ry="12.57"></ellipse>
                    <ellipse id="ear-2" stroke="#3772FF" stroke-width="6" fill="#FFFFFF" fill-rule="nonzero" stroke-linecap="round" stroke-linejoin="round" transform="translate(190.525879, 164.084016) rotate(-64.510000) translate(-190.525879, -164.084016) " cx="190.525879" cy="164.084016" rx="11.96" ry="12.57"></ellipse>
                    <path d="M155.255653,203.657276 L155.945653,221.507276 L170.945653,224.797276 C171.785653,227.227276 172.705653,269.347276 134.215653,264.107276 C108.965653,260.667276 97.1556533,238.107276 90.3956533,217.397276 L111.815653,218.897276 L111.915653,168.657276 L155.255653,203.657276 Z" id="neck" stroke="#3772FF" stroke-width="6" fill="#FFFFFF" fill-rule="nonzero" stroke-linecap="round" stroke-linejoin="round"></path>
                    <ellipse id="face" stroke="#3772FF" stroke-width="6" fill="#FFFFFF" fill-rule="nonzero" stroke-linecap="round" stroke-linejoin="round" transform="translate(147.879521, 163.522978) rotate(-10.410000) translate(-147.879521, -163.522978) " cx="147.879521" cy="163.522978" rx="39.71" ry="51.04"></ellipse>
                    <path d="M151.475653,175.647276 L159.035653,175.397276 C159.406828,175.385165 159.752276,175.204649 159.974163,174.906852 C160.196051,174.609056 160.270216,174.226407 160.175653,173.867276 L154.725653,153.247276" id="nose" stroke="#3772FF" stroke-width="6" stroke-linecap="round" stroke-linejoin="round"></path>
                    <path d="M130.475653,143.207276 C130.475653,143.207276 137.175653,137.207276 142.765653,142.207276" id="brow_II" stroke="#3772FF" stroke-width="6" stroke-linecap="round" stroke-linejoin="round"></path>
                    <path d="M161.045653,141.307276 C161.045653,141.307276 169.605653,138.097276 173.045653,144.647276" id="brow" stroke="#3772FF" stroke-width="6" stroke-linecap="round" stroke-linejoin="round"></path>
                    <ellipse id="eye_II" fill="#3772FF" fill-rule="nonzero" transform="translate(141.793771, 160.065755) rotate(-88.140000) translate(-141.793771, -160.065755) " cx="141.793771" cy="160.065755" rx="4.52" ry="3.03"></ellipse>
                    <ellipse id="eye" fill="#3772FF" fill-rule="nonzero" transform="translate(170.035615, 161.157284) rotate(-4.140000) translate(-170.035615, -161.157284) " cx="170.035615" cy="161.157284" rx="3.02" ry="4.54"></ellipse>
                    <path d="M133.535653,101.477276 L133.445653,101.597276 C120.525653,103.477276 106.095653,109.407276 98.0656533,118.037276 C83.8356533,133.337276 90.3756533,166.207276 104.875653,168.437276 C106.074749,168.624009 107.283266,168.744193 108.495653,168.797276 C108.365653,167.967276 108.255653,167.137276 108.155653,166.297276 C107.818534,163.309838 107.688224,160.302678 107.765653,157.297276 C127.525653,149.917276 127.485653,120.297276 127.455653,117.827276 C131.645653,121.167276 137.135653,126.887276 135.715653,133.147276 L179.425653,135.907276 C183.835529,143.536885 186.614111,151.998621 187.585653,160.757276 C187.585653,160.877276 187.585653,160.987276 187.585653,161.107276 C191.675653,155.257276 191.875653,146.107276 188.445653,136.477276 L203.195653,137.407276 C203.195653,137.407276 216.795653,87.4972762 133.535653,101.477276 Z" id="hair-2" fill="#3772FF" fill-rule="nonzero"></path>
                    <g id="earring_front" transform="translate(104.065653, 170.037925)" stroke="#F038FF" stroke-linecap="round" stroke-linejoin="round" stroke-width="6">
                        <path d="M89.45,0.0793516952 C95.9,-0.920648305 101.31,7.6693517 102.91,18.0293517 C104.51,28.3893517 100.57,37.6093517 94.11,38.6093517 L93.89,38.6093517" id="Path"></path>
                        <path d="M0,4.1793517 C6.46,3.1793517 13,10.7693517 14.6,21.1793517 C16.2,31.5893517 12.26,40.7593517 5.8,41.7493517 L5.58,41.7493517" id="Path"></path>
                    </g>
                    <path d="M152.935653,190.567276 C152.935653,190.567276 135.675653,201.277276 134.795653,178.007276 L152.935653,190.567276 Z" id="mouth" stroke="#3772FF" stroke-width="6" stroke-linecap="round" stroke-linejoin="round"></path>
                </g>
                <g id="arm" transform="translate(43.512196, 265.007276)" stroke="#3772FF" stroke-linecap="round" stroke-linejoin="round" stroke-width="6">
                    <path d="M61.08,57.6 C61.08,57.6 47.5,51.39 40.52,64.19" id="Path"></path>
                    <path d="M59.91,52.17 C59.91,52.17 48.08,38.59 33.73,56.44" id="Path"></path>
                    <g id="hand-2" transform="translate(144.000000, 9.740594)" fill="#FFFFFF" fill-rule="nonzero">
                        <path d="M0,26.2594064 L15.71,20.2594064 C15.71,20.2594064 28.01,6.68940637 33.44,2.61940637 C38.87,-1.45059363 49.55,-0.950593625 42.36,5.33940637 C35.17,11.6294064 34.14,15.4194064 34.14,15.4194064 C34.14,15.4194064 53.06,9.90940637 63.46,3.41940637 C74.09,-3.21059363 71.78,8.16940637 71.78,8.16940637 C71.78,8.16940637 79.78,9.26940637 76.71,13.3894064 C76.71,13.3894064 82.86,16.9094064 76.71,20.4394064 C76.71,20.4394064 85.43,21.3594064 80.44,26.5694064 C76.81,33.9894064 51.63,48.0494064 36.18,46.9094064 L27.54,50.7094064 L16.65,56.0794064" id="Path"></path>
                        <path d="M46.16,19.2594064 C46.16,19.2594064 65.35,14.5394064 71.78,8.25940637" id="Path"></path>
                        <path d="M48.67,25.8594064 C50.75,24.9394064 66.07,22.1194064 75.78,12.7494064" id="Path"></path>
                        <path d="M51.14,32.6894064 C55.49,30.8394064 65.04,31.3794064 76.78,20.9994064" id="Path"></path>
                    </g>
                    <path d="M52.85,0 C60.06,28.06 61.66,58.38 61.66,58.38 L143.2,36.15 L160.35,65.79 C160.35,65.79 140.66,75.29 99.55,96.13 C63.15,114.58 17.21,129.99 2.84217094e-14,81.85" id="lines-2"></path>
                </g>
            </g>
            <g id="thinking_man" transform="translate(790.119927, 71.564630)">
                <g id="legs-2" transform="translate(0.000000, 329.082647)">
                    <g id="boots" transform="translate(0.000000, 257.860000)" fill="#3772FF" fill-rule="nonzero">
                        <path d="M223.520073,0 L223.520073,94.64 L101.140005,94.64 C101.140005,94.64 100.760073,59.92 157.140073,53.52 L157.140073,2.9 L223.520073,0 Z" id="boot-3"></path>
                        <path d="M122.370073,0 L122.370073,94.64 L0,94.64 C0,94.64 -0.389927403,59.92 56.0000726,53.52 L56.0000726,2.9 L122.370073,0 Z" id="boot-4"></path>
                    </g>
                    <g id="trousers" transform="translate(41.770073, 0.000000)" stroke="#3772FF" stroke-linecap="round" stroke-linejoin="round" stroke-width="6">
                        <path d="M117.37,12.62 L24.05,73.73 C12.9028146,86.3538574 6.53351572,102.485876 6.05,119.32 L0,288.11 L77,288.11 C77,288.11 183.47,290.05 183.47,282.29 C183.47,276.07 189.77,163.29 192.27,118.67 C192.841863,108.48699 201.012763,100.380836 211.2,99.89 C229.36,99 256.42,97.73 268.3,97.36 C361.53,94.11 336.6,55.64 325.58,28.26 C321.32,17.69 317.2,7.62 313.95,1.13686838e-13" id="Path" fill="#FFFFFF" fill-rule="nonzero"></path>
                        <path d="M212.97,5.74 L105.9,50.06 C92.49,58.23 92.35,82.48 91.73,99.64 L85.73,288.11" id="Path"></path>
                    </g>
                </g>
                <path d="M382.070073,265.202647 C354.340073,99.9626466 309.220073,123.302647 286.200073,124.082647 L233.770073,126.182647 C233.773539,125.489385 233.696353,124.798073 233.540073,124.122647 C233.110073,122.212647 231.070073,120.672647 228.440073,119.452647 L228.440073,119.372647 C235.120073,117.702647 247.960073,113.982647 247.810073,111.082647 C247.590073,106.992647 221.990073,108.952647 214.130073,109.442647 C210.130073,109.682647 202.360073,112.062647 195.770073,114.312647 C187.176233,117.257624 180.188054,123.633884 176.470073,131.922647 C175.040073,135.102647 170.760073,146.062647 169.470073,149.172647 L152.880073,141.672647 C152.880073,141.672647 121.230073,214.042647 113.880073,232.872647 C113.064681,235.220384 112.377007,237.610549 111.820073,240.032647 C96.3000726,286.442647 128.980073,310.522647 128.980073,310.522647 L288.300073,312.142647 L269.820073,327.842647 C267.110073,330.942647 356.710073,323.962647 359.820073,324.352647 C361.410073,324.542647 353.350073,312.262647 345.110073,300.212647 C364.380073,292.282647 383.300073,280.522647 382.070073,265.202647 Z" id="shape-5" fill="#70E4EF" fill-rule="nonzero"></path>
                <g id="lines-3" transform="translate(169.020073, 157.862647)" stroke="#3772FF" stroke-linecap="round" stroke-linejoin="round" stroke-width="6">
                    <path d="M175.86,76 C175.86,76 161.15,69.15 141.02,82.94 C141.02,82.94 118.3,44.28 120.7,23.81" id="Path"></path>
                    <path d="M62.1,119.68 C64.28,118.48 141.59,83.2 141.59,83.2" id="Path"></path>
                    <polyline id="Path" points="-2.27373675e-13 91.28 30.64 4.21 21.18 0"></polyline>
                </g>
                <g id="head-3" transform="translate(193.190073, -0.000000)">
                    <polygon id="neck-2" stroke="#3772FF" stroke-width="6" fill="#FFFFFF" fill-rule="nonzero" stroke-linecap="round" stroke-linejoin="round" points="90.33 131.862647 72.06 85.2026466 31.98 110.742647 36.87 133.312647 35.6 181.282647"></polygon>
                    <path d="M16.05,34.0326466 C16.05,34.0326466 50,55.6526466 33.37,75.7226466 C33.37,75.7226466 25.96,84.1026466 19.88,82.4126466 C19.88,82.4126466 24.38,75.2926466 19.24,71.5626466 C19.24,71.5626466 17.55,92.9926466 1.13686838e-13,88.5626466 C1.13686838e-13,88.5626466 6.5,79.1026466 4.84,67.7126466 C1.37,43.9226466 6.93,29.7026466 16.05,34.0326466 Z" id="hair_back" fill="#3772FF" fill-rule="nonzero"></path>
                    <path d="M86.46,68.3326466 C86.46,68.3326466 93.3,26.5226466 51,19.0026466 C47.06,18.3026466 20,14.0026466 14.94,36.4626466 C11.53,51.4626466 10.79,67.7026466 11.11,80.3326466 C11.11,80.4126466 11.34,104.212647 20.65,117.502647 C29.96,130.792647 50.81,129.712647 61.88,123.272647 C72.95,116.832647 74.99,113.462647 78.13,105.762647 C81.27,98.0626466 86.44,68.4226466 86.44,68.4226466 L86.46,68.3326466 Z" id="face-2" stroke="#3772FF" stroke-width="6" fill="#FFFFFF" fill-rule="nonzero" stroke-linecap="round" stroke-linejoin="round"></path>
                    <polyline id="nose-2" stroke="#3772FF" stroke-width="6" stroke-linecap="round" stroke-linejoin="round" points="28.58 71.1826466 24.26 91.6926466 31.74 90.5126466"></polyline>
                    <ellipse id="eye_II-2" fill="#3772FF" fill-rule="nonzero" transform="translate(19.121235, 69.567469) rotate(-84.660000) translate(-19.121235, -69.567469) " cx="19.121235" cy="69.567469" rx="3.3" ry="2.13"></ellipse>
                    <ellipse id="eye-2" fill="#3772FF" fill-rule="nonzero" transform="translate(39.304524, 71.815584) rotate(-5.440000) translate(-39.304524, -71.815584) " cx="39.3045237" cy="71.8155844" rx="2.13" ry="3.3"></ellipse>
                    <path d="M51.38,57.1126466 C49.2990967,54.2188815 45.8086832,52.6863179 42.27,53.1126466" id="brow_II-2" stroke="#3772FF" stroke-width="6" stroke-linecap="round" stroke-linejoin="round"></path>
                    <path d="M23.69,51.4426466 C23.69,51.4426466 16.38,48.0826466 13.12,52.4426466" id="brow-2" stroke="#3772FF" stroke-width="6" stroke-linecap="round" stroke-linejoin="round"></path>
                    <path d="M53.47,36.8926466 C53.47,36.8926466 37.06,92.8926466 74.33,98.8926466 C74.33,98.8926466 96.04,102.892647 101.05,95.2426466 C101.05,95.2426466 85.37,86.7726466 87.42,77.8026466 C87.42,77.8026466 104.98,97.3326466 120.49,83.5126466 C120.49,83.5126466 94.8,79.0426466 97.25,55.9126466 C99.01,39.3426466 59.3,23.4426466 53.47,36.8926466 Z" id="hair_front" fill="#3772FF" fill-rule="nonzero"></path>
                    <path d="M121.6,45.2826466 L98.91,41.6826466 C96.67,26.3626466 87.91,4.39264662 56.58,0.522646616 C7.58,-5.47735338 5.8,42.1626466 5.8,42.1626466 L119.28,59.9126466 C123.250777,60.4160919 126.903699,57.6752279 127.530586,53.7220594 C128.157473,49.768891 125.531723,46.0323661 121.6,45.2826466 L121.6,45.2826466 Z" id="cap" fill="#F038FF" fill-rule="nonzero"></path>
                    <path d="M46.76,95.5426466 C46.76,95.5426466 43.61,102.772647 33.39,101.092647" id="mouth-2" stroke="#3772FF" stroke-width="6" stroke-linecap="round" stroke-linejoin="round"></path>
                </g>
                <g id="hand_II-2" transform="translate(163.550073, 106.790580)" fill="#FFFFFF" fill-rule="nonzero" stroke="#3772FF" stroke-linecap="round" stroke-linejoin="round" stroke-width="6">
                    <path d="M-1.13686838e-13,40.3920663 C0.52,39.1220663 1,37.9020663 1.37,36.7420663 C3.48,31.2320663 5.3,26.8520663 6.87,23.3720663 C10.5852299,15.0834996 17.5749438,8.70945994 26.17,5.77206632 C32.76,3.51206632 40.5,1.14206632 44.53,0.892066324 C52.39,0.412066324 77.99,-1.54793368 78.21,2.53206632 C78.36,5.44206632 65.52,9.15206632 58.83,10.8320663 L53.49,31.2720663 C53.49,31.2720663 47.24,32.0220663 44.16,33.7020663 C37.86,37.1420663 31.64,42.8320663 27.1,42.3320663 C27.1,42.3320663 26.78,45.5820663 25.8,51.2120663" id="Path"></path>
                    <path d="M43.98,7.01206632 C43.98,7.01206632 62.52,9.36206632 63.91,15.5720663 C65.3,21.7820663 60.05,22.1320663 60.05,22.1320663" id="Path"></path>
                    <path d="M43.33,14.4520663 C43.33,14.4520663 59.66,17.9420663 60.58,24.2420663 C61.5,30.5420663 56.24,30.5020695 56.24,30.5020695" id="Path"></path>
                    <path d="M42.19,23.6520663 C42.19,23.6520663 61.76,28.1720663 54.26,35.0820663 C46.76,41.9920663 42.99,41.2320663 42.99,41.2320663 C42.99,41.2320663 37.63,37.8220663 46.28,32.5220663" id="Path"></path>
                </g>
                <g id="hand-3" transform="translate(176.221933, 277.812647)" fill="#FFFFFF" fill-rule="nonzero" stroke="#3772FF" stroke-linecap="round" stroke-linejoin="round" stroke-width="6">
                    <path d="M56.13814,0 L46.04814,1.92 C44.82814,2.15 24.28814,15.21 24.28814,15.21 L45.48814,28.9 C45.48814,28.9 47.03814,30.44 79.12814,28.38 C76.83814,20.34 64.88814,8.12 56.13814,0 Z" id="Path"></path>
                    <path d="M52.05814,1.5 C42.7563577,1.9381172 33.5126376,3.20988173 24.43814,5.3 C16.01814,7.3 1.70814002,10.68 0.43814002,12.75 C-2.56185998,17.61 10.61814,18.86 16.43814,14.58" id="Path"></path>
                    <path d="M22.23814,19.63 C10.40814,23.83 4.13814002,24.79 6.34814002,19.91 C7.61814002,17.1 27.02814,6.24 30.89814,4.91 C34.76814,3.58 56.18814,0.42 56.18814,0.42" id="Path"></path>
                    <path d="M36.65814,11.19 C31.8506907,13.100395 27.1504475,15.2702516 22.57814,17.69 C16.48814,21.05 12.94814,24.52 13.48814,25.69 C14.02814,26.86 18.90814,28.98 22.90814,27.18 C28.44814,23.51 41.18814,19.18 41.18814,19.18 C39.80814,18.99 31.04814,23.47 26.18814,25.45 C21.32814,27.43 17.73814,32.52 29.75814,30.86 L47.93814,28.8" id="Path"></path>
                </g>
            </g>
            <g id="hoodie_man" transform="translate(1048.700000, 67.646976)">
                <g id="legs-3" transform="translate(0.000000, 324.000300)" fill-rule="nonzero">
                    <path d="M178.1,230.25 L179.44,311.86 C179.44,311.86 132.44,322.86 120.03,361.97 L224.03,361.89 L240.59,210.44 L178.1,230.25 Z" id="shoe_II" fill="#F038FF"></path>
                    <path d="M67.79,234.36 L55.88,313.94 C55.88,313.94 11.7,324.58 0,361.29 L97.71,361.22 L128.66,224.97 L67.79,234.36 Z" id="shoe" fill="#F038FF"></path>
                    <path d="M403.19,63.98 L398.19,0.32 L204.58,5.68434189e-14 L200.89,21.78 L170.96,20.98 C95.15,17.54 83.04,74.72 83.04,74.72 L20.79,318.1 L113.44,318.55 L160.59,146.69 L139.15,316.94 L233.38,318.34 L251.8,143.23 C274.01,138.17 346.14,121.23 364.6,111.3 C383.3,104.36 404.07,80.7 403.19,63.98 Z" id="trousers-2" fill="#3772FF"></path>
                </g>
                <path d="M400.36,222.4203 C382.979795,195.64959 360.035904,172.937629 333.09,155.8303 C344.78,136.7603 342.71,117.3803 293.54,113.4803 C213.95,110.6903 205.83,132.0303 205.7,148.6603 C179.46,169.5303 163.47,191.8103 153.99,212.8803 C142.57,202.3303 121.46,183.0003 116.07,179.4103 C108.57,174.4103 103.81,183.2203 97.76,180.1403 C91.71,177.0603 89.64,176.1403 89.64,176.1403 C89.64,176.1403 84.38,194.7503 69.47,199.8103 C69.47,199.8103 69.77,202.5903 73.11,208.4303 C76.45,214.2703 69.24,218.4303 74.58,225.6203 C79.92,232.8103 126.3,292.0803 126.3,292.0803 C131.89,297.6103 144.87,317.0803 159.01,311.1603 L159.01,309.8903 L159.58,310.6203 L259.68,311.1003 L257,327.6803 C383.83,339.8403 374.88,397.5403 410,374.8103 L406.3,298.0503 C418.3,283.6103 423.3,257.9303 400.36,222.4203 Z" id="hoodie" fill="#F038FF" fill-rule="nonzero"></path>
                <path d="M302.75,134.8503 L315.42,143.3803 C315.42,143.3803 268.08,172.2903 261.9,246.6803 C257.79,296.1003 256.9,353.4803 256.9,353.4803 L234.9,356.5803 C234.9,356.5803 242.2,221.5803 233.57,196.4803 C224.94,171.3803 232.83,143.1303 238.67,138.5603 C244.51,133.9903 302.75,134.8503 302.75,134.8503 Z" id="shirt" fill="#FFFFFF" fill-rule="nonzero"></path>
                <g id="hand_II-3" transform="translate(37.258977, 142.482327)" fill-rule="nonzero">
                    <path d="M33.2310229,16.7379738 C32.4710229,16.2279738 9.68102294,1.73797381 3.76102294,0.207973812 C-2.15897706,-1.32202619 -2.94897706,5.75797381 15.3410229,15.9079738 C9.69229804,21.786186 8.27443429,30.5482654 11.7810229,37.9079738 C13.4810229,41.7779738 28.9910229,57.1779738 34.3210229,57.7979738 C39.6510229,58.4179738 59.5710229,53.1979738 55.3810229,40.7979738 C51.1910229,28.3979738 44.0410229,23.9679738 33.2310229,16.7379738 Z" id="Path" stroke="#3772FF" stroke-width="6" fill="#FFFFFF" stroke-linecap="round" stroke-linejoin="round"></path>
                    <path d="M44.5410229,25.0579738 C44.5410229,25.0579738 24.8510229,17.2779738 22.8510229,18.4079738 C20.0710229,19.9979738 23.1510229,28.0179738 31.8510229,31.8979738 C31.8510229,31.8979738 25.7910229,39.7679738 29.1310229,45.8979738" id="Path" stroke="#3772FF" stroke-width="6" fill="#FFFFFF" stroke-linecap="round" stroke-linejoin="round"></path>
                    <path d="M34.2610229,65.8779738 C30.3210229,59.9679738 29.7210229,57.2879738 29.7210229,57.2879738 C43.9910229,54.0779738 51.1010229,32.9479738 51.1010229,32.9479738 C51.1010229,32.9479738 53.8910229,33.6379738 60.2410229,37.2179738 C62.8010229,38.6579738 65.1410229,37.5079738 66.9710229,37.2179738 C69.5210229,56.9779738 44.1310229,72.4679738 35.4110229,76.7279738 C34.3510229,72.6579738 37.2610229,70.3679738 34.2610229,65.8779738 Z" id="welt" fill="#3772FF"></path>
                </g>
                <g id="hand-4" transform="translate(185.763365, 255.110300)" fill-rule="nonzero">
                    <path d="M53.6466352,5 C44.5131848,3.19140863 35.2361552,2.20413456 25.9266352,2.05 C17.2666352,1.97 2.56663524,1.8 0.816635235,3.49 C-3.31336476,7.49 9.22663524,11.88 15.9466352,9.13" id="Path" stroke="#3772FF" stroke-width="6" fill="#FFFFFF" stroke-linecap="round" stroke-linejoin="round"></path>
                    <path d="M72.4766352,5.38 C66.4766352,5.01 58.1566352,4.52 47.7166352,3.96 C46.4766352,3.89 23.3966352,11.63 23.3966352,11.63 L40.6866352,30.02 C40.6866352,30.02 41.6866352,31.71 68.9966352,36.78" id="Path" stroke="#3772FF" stroke-width="6" fill="#FFFFFF" stroke-linecap="round" stroke-linejoin="round"></path>
                    <path d="M20.3366352,15.45 C7.84663524,16.68 1.52663524,16.1 4.84663524,11.89 C6.75663524,9.47 28.2066352,3.6 32.2866352,3.21 C36.3666352,2.82 57.9166352,4.94 57.9166352,4.94" id="Path" stroke="#3772FF" stroke-width="6" fill="#FFFFFF" stroke-linecap="round" stroke-linejoin="round"></path>
                    <path d="M36.3666352,10.7 C31.2413688,11.4000654 26.1573851,12.3748016 21.1366352,13.62 C14.4166352,15.42 10.1366352,17.94 10.3966352,19.17 C10.6566352,20.4 14.8666352,23.66 19.1866352,22.88 C25.4466352,20.65 38.8566352,19.51 38.8566352,19.51 C37.5566352,18.99 27.9766352,21.23 22.7966352,21.99 C17.6166352,22.75 12.8966352,26.82 24.9566352,28.1 L43.0966352,30.47" id="Path" stroke="#3772FF" stroke-width="6" fill="#FFFFFF" stroke-linecap="round" stroke-linejoin="round"></path>
                    <path d="M70.6866352,40.95 C64.7566352,38.71 62.8566352,36.95 62.8566352,36.95 C70.5466352,24.95 62.8566352,5.05 62.8566352,5.05 C62.8566352,5.05 64.8566352,4.52 71.0966352,3.26 C73.0611642,2.88583011 74.7777653,1.70271811 75.8266352,-5.68434189e-14 C88.5866352,14.46 80.9266352,39.87 77.5266352,49.08 C74.5366352,46.42 75.1866352,42.64 70.6866352,40.95 Z" id="welt-2" fill="#3772FF"></path>
                </g>
                <g id="hoodie_lines" transform="translate(156.890000, 190.770300)" stroke="#3772FF" stroke-linecap="round" stroke-linejoin="round" stroke-width="6">
                    <path d="M182.61,47.89 C182.61,47.89 169.93,49.13 166.71,65.78" id="Path"></path>
                    <path d="M128.8,0 C128.8,0 115.8,26.94 114.07,45.25" id="Path"></path>
                    <path d="M68.78,1.18 C68.78,1.18 74.78,26.96 72.78,45.25" id="Path"></path>
                    <path d="M185.83,120.59 C185.83,120.59 118.31,116 110.74,114.06 C103.17,112.12 105.97,106.58 100.49,104.47 C95.01,102.36 93.25,100.67 93.25,100.67 C100.36,89.33 93.25,70.54 93.25,70.54 C93.25,70.54 95.12,70.03 100.87,68.85 C106.62,67.67 104.76,61.74 112.55,61.06 C120.34,60.38 187.18,68 187.18,68" id="Path"></path>
                    <path d="M2.27373675e-13,21.72 C2.27373675e-13,21.72 16.87,30.25 26.76,44.8" id="Path"></path>
                </g>
                <path d="M333.43,155.2703 C321.95,174.4603 296.2,193.4903 290.17,196.2703 C290.168643,196.296936 290.168643,196.323664 290.17,196.3503 C307.38,197.1903 347.57,174.9803 354.36,171.0803 C346.02,164.8403 339.1,159.0203 333.43,155.2703 Z" id="shape_II" fill="#3772FF" fill-rule="nonzero"></path>
                <path d="M206.06,157.5803 C205.94,154.7603 205.64,151.5103 205.7,148.0703 L205.65,148.0703 C200.73,151.9503 196.1,155.8803 191.76,159.8603 C196.96,169.9403 207.5,185.2203 219,192.3203 C215.56,185.1403 206.84,175.5903 206.06,157.5803 Z" id="shape-6" fill="#3772FF" fill-rule="nonzero"></path>
                <g id="head-4" transform="translate(174.073941, -0.000000)">
                    <path d="M125.226059,81.6903003 C125.226059,81.6903003 140.226059,81.9803003 137.546059,95.4103003 C134.866059,108.8403 118.286059,101.0703 118.286059,101.0703 L120.506059,81.9803003 L125.226059,81.6903003 Z" id="ear-3" stroke="#3772FF" stroke-width="6" fill="#FFFFFF" fill-rule="nonzero" stroke-linecap="round" stroke-linejoin="round"></path>
                    <path d="M82.4860591,39.3603003 C78.4860591,39.0303003 51.4860591,37.3603003 48.4860591,59.9203003 C45.4860591,82.4803003 48.7160591,107.4603 51.2260591,118.8503 C53.7360591,130.2403 105.576059,124.9703 108.506059,123.9503 C111.436059,122.9303 114.936059,119.5003 114.936059,119.5003 L122.046059,84.8003003 C122.046059,84.8003003 124.946059,42.9103003 82.4860591,39.3603003 Z" id="face-3" stroke="#3772FF" stroke-width="6" fill="#FFFFFF" fill-rule="nonzero" stroke-linecap="round" stroke-linejoin="round"></path>
                    <path d="M119.646059,100.0003 L120.586059,128.1503 L128.586059,137.2903 L128.586059,137.2903 C111.532549,148.572419 96.0624241,162.081874 82.5860591,177.4603 C82.5860591,177.4603 64.1660591,158.0103 60.9360591,127.5403 L104.096059,132.8903 L107.476059,116.0303 L119.646059,100.0003 Z" id="neck-3" stroke="#3772FF" stroke-width="6" fill="#FFFFFF" fill-rule="nonzero" stroke-linecap="round" stroke-linejoin="round"></path>
                    <path d="M116.896059,84.5303003 C114.326059,87.0203003 107.436059,101.3703 105.756059,108.0603 C105.756059,108.0603 88.7560591,102.4403 64.2960591,102.0603 C64.2960591,102.0603 50.9860591,102.3203 45.6760591,103.8603 C45.6760591,103.8603 46.8260591,127.5603 57.6160591,139.8603 C68.4060591,152.1603 91.2360591,148.7003 101.936059,141.3203 C112.636059,133.9403 114.416059,130.4203 116.936059,122.5303 C119.456059,114.6403 125.936059,85.2103003 125.936059,85.2103003 L116.896059,84.5303003 Z" id="beard" fill="#968BB4" fill-rule="nonzero"></path>
                    <path d="M123.896059,89.6003003 C123.896059,89.6003003 130.896059,78.6903003 133.666059,67.3503003 C136.323735,56.7056246 131.225516,45.6442373 121.406059,40.7503003 C113.146059,36.7503003 107.026059,39.8903003 107.026059,39.8903003 C107.026059,39.8903003 115.786059,24.9803003 102.636059,11.8003003 C97.9882248,7.14216622 91.6236051,4.60934426 85.0460591,4.80030031 C75.8868451,4.88214585 67.6443834,10.3771204 64.0460591,18.8003003 C64.0460591,18.8003003 46.8560591,-12.7696997 11.6260591,5.91030031 C8.07605905,7.80030031 4.06605905,13.0503003 2.15605905,16.5903003 C-9.48394095,38.0303003 28.8660591,63.4303003 48.8360591,65.4403003 C70.7560591,67.6503003 83.5860591,64.0203003 90.6460591,58.6503003 C85.3860591,61.8403003 91.2960591,94.6403003 123.896059,89.6003003 Z" id="hair-3" fill="#3772FF" fill-rule="nonzero"></path>
                    <polyline id="nose-3" stroke="#3772FF" stroke-width="6" stroke-linecap="round" stroke-linejoin="round" points="65.1560591 92.9703003 62.7860591 113.6203 70.0660591 111.7603"></polyline>
                    <ellipse id="eye_II-3" fill="#3772FF" fill-rule="nonzero" cx="56.5160591" cy="91.5403003" rx="2.12" ry="3.27"></ellipse>
                    <ellipse id="eye-3" fill="#3772FF" fill-rule="nonzero" cx="75.9860591" cy="91.0003003" rx="2.12" ry="3.27"></ellipse>
                    <path d="M87.0760591,77.8303003 C84.90067,75.0465171 81.3849358,73.6639681 77.8960591,74.2203003" id="brow-3" stroke="#3772FF" stroke-width="6" stroke-linecap="round" stroke-linejoin="round"></path>
                    <path d="M58.4660591,73.8803003 C58.4660591,73.8803003 52.6060591,72.3603003 51.1360591,77.1503003" id="brow_II-3" stroke="#3772FF" stroke-width="6" stroke-linecap="round" stroke-linejoin="round"></path>
                    <path d="M81.2260591,118.5003 C81.2260591,118.5003 80.2260591,124.7603 74.4760591,123.7503" id="mouth-3" stroke="#3772FF" stroke-width="6" stroke-linecap="round" stroke-linejoin="round"></path>
                </g>
            </g>
            <g id="table" transform="translate(118.300000, 380.007276)">
                <rect id="Rectangle" stroke="#3772FF" stroke-width="6" stroke-linecap="round" stroke-linejoin="round" x="2.56" y="0.78" width="1348.21" height="373.71"></rect>
                <rect id="Rectangle" fill="#3772FF" fill-rule="nonzero" x="4.26325641e-14" y="0" width="1352.39" height="48.1"></rect>
            </g>
            <line x1="0" y1="755.017276" x2="1592.1" y2="755.017276" id="line-2" stroke="#3772FF" stroke-width="6" stroke-linecap="round" stroke-linejoin="round"></line>
        </g>
    </g>
</svg>