<?xml version="1.0" encoding="UTF-8"?>
<svg width="930px" height="1069px" viewBox="0 0 800 400" version="1.1" xmlns="http://www.w3.org/2000/svg" xmlns:xlink="http://www.w3.org/1999/xlink">
    <title>product launch_solid II</title>
    <g id="Page-1" stroke="none" stroke-width="1" fill="none" fill-rule="evenodd">
        <g id="product-launch_solid-II" transform="translate(0.209705, 0.099273)">
            <path d="M899.390295,159.310727 C886.680295,166.430727 863.200295,174.930727 843.760295,155.960727 C823.760295,136.460727 809.430295,136.830727 802.760295,138.710727 C800.659755,138.289995 798.528412,139.276802 797.490295,141.150727 L755.440295,217.620727 C752.11418,223.666397 745.760523,227.421876 738.860295,227.420727 L601.790295,227.420727 C599.084099,227.420727 596.890295,229.614532 596.890295,232.320727 C596.890295,235.026923 599.084099,237.220728 601.790295,237.220728 L738.860295,237.220728 C749.336196,237.222438 758.982019,231.520021 764.030295,222.340727 L788.660295,177.550727 C797.830295,178.720727 810.340295,182.880727 822.080295,194.340727 C844.630295,216.340727 871.180295,203.900727 880.910295,198.030727 C883.291417,196.600264 885.261934,194.578073 886.630295,192.160727 L903.100295,163.020727 C903.707124,161.956049 903.527055,160.617046 902.660516,159.750506 C901.793976,158.883967 900.454973,158.703898 899.390295,159.310727 Z" id="flag" fill="#70E4EF" fill-rule="nonzero"></path>
            <g id="flags" transform="translate(214.621735, 11.535076)">
                <path d="M123.43856,24.0256518 C122.480121,23.6266842 121.374281,23.8750975 120.67856,24.6456518 C120.58856,24.7356518 111.96856,34.0756518 93.2085602,42.8056518 C75.8685602,50.8756518 46.0585602,60.0656518 2.56856016,58.0156518 C1.83379162,57.9800593 1.12191633,58.2765089 0.629591599,58.8231056 C0.137266871,59.3697023 -0.0833965455,60.108591 0.0285601644,60.8356518 C0.236816504,62.0128678 1.24354601,62.8817464 2.43856016,62.9156518 C6.31856016,63.0956518 10.0785602,63.1856518 13.7485602,63.1956518 L15.4685602,74.7656518 C15.657475,75.9821701 16.5938879,76.9468308 17.8042563,77.1718063 C19.0146248,77.3967819 20.2351283,76.833035 20.8485602,75.7656518 L28.2885602,62.8156518 C33.6385602,62.5156518 38.7185602,62.0456518 43.5485602,61.4456518 L46.2385602,71.4456518 C46.5551516,72.6230307 47.5743443,73.4766662 48.7890038,73.5818025 C50.0036634,73.6869387 51.154374,73.0211218 51.6685602,71.9156518 L57.5885602,59.1956518 C61.6585602,58.3956518 65.4985602,57.5056518 69.1085602,56.5556518 L72.2885602,66.1056518 C72.6802481,67.2718673 73.7651368,68.0640357 74.9952402,68.0820263 C76.2253437,68.1000168 77.3329348,67.3399139 77.7585602,66.1856518 L82.8185602,52.3656518 C87.3785602,50.7356518 91.4285602,49.0556518 94.9985602,47.3656518 L96.5285602,53.0756518 C96.8451516,54.2530307 97.8643443,55.1066662 99.0790038,55.2118025 C100.293663,55.3169387 101.444374,54.6511218 101.95856,53.5456518 L108.07856,40.4056518 C113.467859,37.1971922 118.496734,33.4188304 123.07856,29.1356518" id="Path" fill="#70E4EF" fill-rule="nonzero"></path>
                <path d="M760.56856,79.9756518 C760.343133,79.3424467 759.867463,78.8296622 759.252947,78.557384 C758.63843,78.2851058 757.939039,78.2772484 757.31856,78.5356518 C718.79856,94.6056518 678.31856,86.5356518 637.01856,54.6256518 C605.95856,30.6256518 586.12856,1.37565175 585.92856,1.08565175 C585.174691,-0.0382475442 583.65246,-0.338216651 582.52856,0.415651974 C581.404661,1.1695206 581.104692,2.69175229 581.85856,3.81565175 C586.87233,10.9423364 592.280776,17.7830194 598.05856,24.3056518 L602.99856,47.7756518 C603.242306,48.9408381 604.175573,49.8373644 605.349604,50.0341418 C606.523636,50.2309192 607.698218,49.6876858 608.30856,48.6656518 L613.24856,40.3656518 C617.40856,44.4156518 621.90856,48.5456518 626.73856,52.6056518 L631.96856,70.6856518 C632.285137,71.7746474 633.209388,72.5778352 634.331894,72.7394245 C635.454401,72.9010137 636.567673,72.3911353 637.17856,71.4356518 L641.77856,64.2156518 C645.89856,67.1023184 650.021893,69.7689851 654.14856,72.2156518 L661.39856,92.5456518 C661.778811,93.6078314 662.742399,94.3516306 663.866252,94.4504781 C664.990105,94.5493256 666.068735,93.9851478 666.62856,93.0056518 L673.00856,81.7556518 C676.96856,83.4156518 680.925227,84.8623184 684.87856,86.0956518 L694.23856,102.545652 C694.811411,103.544681 695.922717,104.108258 697.067183,103.98013 C698.211648,103.852002 699.170814,103.056627 699.50856,101.955652 L703.05856,90.2756518 C708.131652,91.018023 713.251448,91.3956581 718.37856,91.4056518 L719.61856,91.4056518 L729.74856,104.575652 C730.419663,105.434398 731.5168,105.842566 732.585993,105.631263 C733.655187,105.41996 734.514576,104.625127 734.80856,103.575652 L738.91856,89.3256518 C745.824752,87.9216973 752.576944,85.8451306 759.07856,83.1256518 C760.33072,82.6355715 760.983978,81.2545224 760.56856,79.9756518 Z" id="Path" fill="#70E4EF" fill-rule="nonzero"></path>
                <line x1="2.49856016" y1="60.1856518" x2="2.49856016" y2="241.005652" id="Path" stroke="#F038FF" stroke-width="6" stroke-linecap="round" stroke-linejoin="round"></line>
                <line x1="758.53856" y1="80.4156518" x2="758.53856" y2="242.805652" id="Path" stroke="#F038FF" stroke-width="6" stroke-linecap="round" stroke-linejoin="round"></line>
            </g>
            <g id="laptop" transform="translate(-0.000000, 0.000000)">
                <path d="M789.150295,0 L427.150295,2.35072737 C421.616382,2.26185952 416.468709,5.17823655 413.700295,9.97072737 L296.970295,222.500727 L0.19029472,222.700727 C0.19029472,222.700727 -4.91970528,252.470727 37.8202947,254.330727 L677.820295,253.500727 L802.790295,19.0007274 C807.540295,10.1307274 800.200295,-0.0992726282 789.150295,0 Z" id="laptop-2" fill="#F038FF" fill-rule="nonzero"></path>
                <path d="M334.150295,221.660727 L639.790295,220.350727 L734.350295,36.0707274 C738.020295,29.0107274 733.170295,20.3607274 725.590295,20.4401765 L447.810295,23.8107274 L334.150295,221.660727 Z" id="screen" fill="#E2EF70" fill-rule="nonzero"></path>
                <path d="M649.180295,253.500727 L772.960295,22.2107274 C777.680295,13.3307274 770.340295,3.13072737 759.290295,3.21025976" id="Path" stroke="#FFFFFF" stroke-width="6" stroke-linecap="round" stroke-linejoin="round"></path>
            </g>
            <g id="rocket" transform="translate(448.790295, 34.900727)" fill-rule="nonzero">
                <path d="M29,138.002471 L37.4023565,153.233492 C37.5885927,153.551078 37.9680542,153.70587 38.3276189,153.610929 C38.6871835,153.515989 38.9372435,153.194977 38.9373542,152.828188 L38.375525,145.908367 C38.375525,145.908367 43.2890224,162.577722 50.0309729,162.992912 C56.7729235,163.408101 63.2565329,145.446222 63.2565329,145.446222 L61.4857676,152.973999 C61.4858783,153.340788 61.7359383,153.6618 62.0955029,153.75674 C62.4550676,153.85168 62.8345291,153.696888 63.0207653,153.379303 L72,138" id="Path" fill="#70E4EF"></path>
                <path d="M17.9063213,78.5620537 C17.9063213,78.5620537 -2.37648052,105.711253 0.231562224,130 L45,130 L45,78 L17.9063213,78.5620537 Z" id="Path" fill="#70E4EF"></path>
                <path d="M81.0916575,78.5620537 C81.0916575,78.5620537 101.376749,105.711253 98.7684116,130 L54,130 L54,78 L81.0916575,78.5620537 Z" id="Path" fill="#70E4EF"></path>
                <path d="M67.4460472,128.749989 C84.3380401,98.1432962 82.4991333,73.8485578 77.5662722,57.2061213 C72.633411,40.5636848 61.0535382,22 50.0450489,22 C39.0365595,22 27.4591818,40.5536259 22.5238256,57.2061213 C17.5884693,73.8586167 15.5000501,98.1432962 32.392043,128.749989 L27.6687723,139 L72.1992594,139 L67.4585228,128.752504 L67.4460472,128.749989 Z" id="Path" stroke="#3772FF" stroke-width="6" fill="#FFFFFF" stroke-linecap="round" stroke-linejoin="round"></path>
                <ellipse id="Oval" fill="#70E4EF" cx="50.5" cy="71" rx="12.5" ry="15"></ellipse>
                <ellipse id="Oval" fill="#70E4EF" cx="50" cy="90.5" rx="2" ry="2.5"></ellipse>
                <ellipse id="Oval" fill="#70E4EF" cx="58" cy="90.5" rx="2" ry="2.5"></ellipse>
                <ellipse id="Oval" fill="#70E4EF" cx="41" cy="90.5" rx="2" ry="2.5"></ellipse>
                <ellipse id="Oval" stroke="#3772FF" stroke-width="6" fill="#FFFFFF" stroke-linecap="round" stroke-linejoin="round" cx="49.5" cy="69.5" rx="9.5" ry="11.5"></ellipse>
                <path d="M51.8946218,22.1910183 L51.8946218,4.52421643 C51.8946218,4.46937381 51.8946218,4.41453119 51.8946218,4.36218142 C52.7270041,3.22772786 52.5646933,1.64876647 51.5188443,0.706614201 C50.4729953,-0.235538067 48.8825585,-0.235538067 47.8367095,0.706614201 C46.7908606,1.64876647 46.6285497,3.22772786 47.460932,4.36218142 C47.460932,4.41453119 47.460932,4.46937381 47.460932,4.52421643 L47.460932,22.163597 C42.8399032,23.1083858 38.2188744,26.9747904 34,32.1499394 C39.4825412,30.9143933 45.1133476,30.4636567 50.7231286,30.8112809 C55.8709701,31.0812809 60.9839478,31.8138178 66,33 C61.6262587,27.4259956 56.7379596,23.2429995 51.8946218,22.1910183 Z" id="Path" fill="#70E4EF"></path>
                <path d="M70.5654975,42.7923793 C64.0435045,40.5394965 57.21859,39.2735195 50.3188738,39.0367632 C41.6857075,38.7083628 35.1270818,40.6318506 29.7372465,42.7405267 C27.425546,46.978504 25.5052508,51.4165393 24,56 C30.4519208,52.8715544 38.3580052,49.5653282 50.5025054,49.7850848 C62.0315915,49.9924956 69.9748986,52.5159931 76,55.1876412 C74.5446381,50.910171 72.7265964,46.7634983 70.5654975,42.7923793 L70.5654975,42.7923793 Z" id="Path" fill="#70E4EF"></path>
                <path d="M66.6693633,128.970359 C67.4886482,127.540989 68.2655271,126.124794 69,124.721772 C65.0994911,123.180425 59.5069807,121.913259 49.5636091,122.004653 C39.5057411,121.92314 33.8903314,123.239708 30,124.800816 C30.7276879,126.184077 31.4952375,127.583805 32.3026487,129 C32.3026487,129 41.1315892,127.330207 49.5636091,127.39937 C57.8531446,127.315386 66.6693633,128.970359 66.6693633,128.970359 Z" id="Path" fill="#70E4EF"></path>
            </g>
            <g id="clouds" transform="translate(187.410295, 149.845159)" fill-rule="nonzero">
                <path d="M500.48,70.5055683 L343.26,70.5055683 C343.26,70.5055683 320.63,50.2055683 331.02,33.6055683 C341.41,17.0055683 368.73,13.0155683 377.58,29.7655683 C377.58,29.7655683 381.44,-2.33443173 414.39,0.135568269 C447.34,2.60556827 444.75,36.9255683 444.75,36.9255683 C444.75,36.9255683 486.46,7.39556827 485.35,53.5255683 C485.38,53.5255683 488.01,70.4655683 500.48,70.5055683 Z" id="cloud" stroke="#3772FF" stroke-width="6" fill="#FFFFFF" stroke-linecap="round" stroke-linejoin="round"></path>
                <path d="M0,70.7655683 L157.21,70.7655683 C157.21,70.7655683 179.85,50.4755683 169.45,33.8655683 C159.05,17.2555683 131.75,13.2755683 122.89,30.0255683 C122.89,30.0255683 119.04,-2.06443173 86.09,0.395568269 C53.14,2.85556827 55.72,37.1855683 55.72,37.1855683 C55.72,37.1855683 14.02,7.66556827 15.13,53.7955683 C15.13,53.7955683 12.46,70.7255683 0,70.7655683 Z" id="cloud-2" stroke="#3772FF" stroke-width="6" fill="#FFFFFF" stroke-linecap="round" stroke-linejoin="round"></path>
                <path id="Line" d="M85.3661582,16.626773 C85.6460886,16.0669122 86.3268739,15.8399837 86.8867347,16.1199141 C87.106073,16.2295833 87.2839244,16.4074347 87.3935936,16.626773 L87.3935936,16.626773 L95.7600986,33.359783 C96.040029,33.9196438 95.8131006,34.6004292 95.2532397,34.8803596 C95.095865,34.9590469 94.9223312,35.0000127 94.7463809,35.0000127 L94.7463809,35.0000127 L87.88,35 L87.88,52.0555683 C87.88,52.8839954 87.2084271,53.5555683 86.38,53.5555683 C85.6003039,53.5555683 84.9595513,52.9606802 84.8868666,52.2000283 L84.88,52.0555683 L84.88,35 L78.0133708,35.0000127 C77.429157,35.0000127 76.9481837,34.5579871 76.8866505,33.9901351 L76.88,33.8666419 C76.88,33.6906916 76.9209658,33.5171577 76.9996531,33.359783 L76.9996531,33.359783 Z" fill="#3772FF"></path>
                <path id="Line" d="M413.366158,17.626773 C413.646089,17.0669122 414.326874,16.8399837 414.886735,17.1199141 C415.106073,17.2295833 415.283924,17.4074347 415.393594,17.626773 L415.393594,17.626773 L423.760099,34.359783 C424.040029,34.9196438 423.813101,35.6004292 423.25324,35.8803596 C423.095865,35.9590469 422.922331,36.0000127 422.746381,36.0000127 L422.746381,36.0000127 L415.88,36 L415.88,53.0555683 C415.88,53.8839954 415.208427,54.5555683 414.38,54.5555683 C413.600304,54.5555683 412.959551,53.9606802 412.886867,53.2000283 L412.88,53.0555683 L412.88,36 L406.013371,36.0000127 C405.429157,36.0000127 404.948184,35.5579871 404.88665,34.9901351 L404.88,34.8666419 C404.88,34.6906916 404.920966,34.5171577 404.999653,34.359783 L404.999653,34.359783 Z" fill="#3772FF"></path>
            </g>
        </g>
    </g>
</svg>